<?xml version="1.0" encoding="utf-8"?>
<!-- Generator: Adobe Illustrator 18.0.0, SVG Export Plug-In . SVG Version: 6.00 Build 0)  -->
<!DOCTYPE svg PUBLIC "-//W3C//DTD SVG 1.1//EN" "http://www.w3.org/Graphics/SVG/1.1/DTD/svg11.dtd">
<svg version="1.1" id="Camada_1" xmlns="http://www.w3.org/2000/svg" xmlns:xlink="http://www.w3.org/1999/xlink" x="0px" y="0px"
	 viewBox="0 0 411.7 411.7" enable-background="new 0 0 411.7 411.7" xml:space="preserve">
<g opacity="0.7">
	<g>
		<path fill="#DADADA" d="M303.5,355.9H108.2c-28.9,0-52.4-23.4-52.4-52.4V108.2c0-28.9,23.4-52.4,52.4-52.4h195.3
			c28.9,0,52.4,23.4,52.4,52.4v195.3C355.9,332.4,332.4,355.9,303.5,355.9z"/>
	</g>
	<g>
		<g>
			<path fill="#3D3D3B" d="M292,299.8H119.7c-4.3,0-7.8-3.5-7.8-7.8V119.7c0-4.3,3.5-7.8,7.8-7.8H292c4.3,0,7.8,3.5,7.8,7.8V292
				C299.8,296.3,296.3,299.8,292,299.8z"/>
		</g>
		<g>
			<path fill="#DADADA" d="M210.4,263.8c-31,2.8-56.9-23.1-54.1-54.1c2.1-23.8,21.3-42.9,45-45.1c31-2.8,56.9,23.1,54.2,54.2
				C253.3,242.5,234.2,261.7,210.4,263.8z M209.4,175.3c-24.3-2.2-44.6,18.1-42.4,42.4c1.7,18.6,16.7,33.6,35.3,35.3
				c24.3,2.2,44.6-18.1,42.4-42.4C243.1,192,228.1,177,209.4,175.3z"/>
		</g>
		<g>
			<g>
				<path fill="#DADADA" d="M270.2,151.5h-37c-0.8,0-1.5-0.7-1.5-1.5v-18.7c0-0.8,0.7-1.5,1.5-1.5h37c0.8,0,1.5,0.7,1.5,1.5V150
					C271.7,150.8,271,151.5,270.2,151.5z"/>
			</g>
			<g>
				<path fill="#DADADA" d="M162.3,151.5h-18.7c-0.8,0-1.5-0.7-1.5-1.5v-18.7c0-0.8,0.7-1.5,1.5-1.5h18.7c0.8,0,1.5,0.7,1.5,1.5V150
					C163.7,150.8,163.1,151.5,162.3,151.5z"/>
			</g>
		</g>
	</g>
</g>
</svg>
