<?xml version="1.0" encoding="utf-8"?>
<!-- Generator: Adobe Illustrator 18.0.0, SVG Export Plug-In . SVG Version: 6.00 Build 0)  -->
<!DOCTYPE svg PUBLIC "-//W3C//DTD SVG 1.1//EN" "http://www.w3.org/Graphics/SVG/1.1/DTD/svg11.dtd">
<svg version="1.1" id="Camada_1" xmlns="http://www.w3.org/2000/svg" xmlns:xlink="http://www.w3.org/1999/xlink" x="0px" y="0px"
	 viewBox="0 0 411.7 411.7" enable-background="new 0 0 411.7 411.7" xml:space="preserve">
<path fill="#FFFFFF" d="M226.5,90.7c-63.6,0-118.8,45-130.6,107.5c-0.6,3.9-1.1,7.3-1.7,10.7c-0.6,5.1-1.1,10.7-1.1,16.3
	c0,32.8,11.5,63.1,32.4,87.5c-6.3,7.2-14,13.1-22.7,17.2c-2.2,0.5-4.1,2-5.2,4c-2.8,4.5-1.1,9.6,2.8,11.8
	c12.9,7.3,27.6,11.3,42.2,11.3c12,0,23.6-2.2,34.3-7.1c15.9,6.4,32.2,9.3,49.6,9.3c74.3,0,134-60.2,134-134.5
	C360.5,151,300.2,90.7,226.5,90.7z M165.7,240.5c-8.7,0-15.8-7.1-15.8-15.8c0-8.7,7.1-15.8,15.8-15.8c8.7,0,15.8,7.1,15.8,15.8
	C181.5,233.4,174.4,240.5,165.7,240.5z M226.5,240.5c-8.7,0-15.8-7.1-15.8-15.8c0-8.7,7.1-15.8,15.8-15.8c8.7,0,15.8,7.1,15.8,15.8
	C242.3,233.4,235.2,240.5,226.5,240.5z M286.7,240.5c-8.7,0-15.8-7.1-15.8-15.8c0-8.7,7.1-15.8,15.8-15.8c8.7,0,15.8,7.1,15.8,15.8
	C302.5,233.4,295.4,240.5,286.7,240.5z"/>
</svg>
