<?xml version="1.0" encoding="utf-8"?>
<!-- Generator: Adobe Illustrator 18.0.0, SVG Export Plug-In . SVG Version: 6.00 Build 0)  -->
<!DOCTYPE svg PUBLIC "-//W3C//DTD SVG 1.1//EN" "http://www.w3.org/Graphics/SVG/1.1/DTD/svg11.dtd">
<svg version="1.1" id="Camada_1" xmlns="http://www.w3.org/2000/svg" xmlns:xlink="http://www.w3.org/1999/xlink" x="0px" y="0px"
	 viewBox="0 0 411.7 411.7" enable-background="new 0 0 411.7 411.7" xml:space="preserve">
<g>
	<g>
		<path fill="#9E9D9C" d="M303.2,187.5c0.3-1,0.3-2,0.3-3v-11.2c0-26.4-10-51.1-28.3-69.5c-18.4-18.4-43-28.6-69.4-28.6
			c-26.4,0-50.9,10.2-69.3,28.6c-18.4,18.4-28.3,43.1-28.3,69.5v11.2c0,1,0,2,0.3,3c-16.8,1.3-30.3,19.3-30.3,41.2
			c0,22,13.5,40,30.4,41.2c4.5,6.1,11.8,9.8,19.6,9.8c13.5,0,24.5-11,24.5-24.5v-52.9c0-13.1-10.1-23.9-23-24.5v-4.4
			c0-42.9,33.3-76.6,76.1-76.6c42.8,0,76.1,33.6,76.1,76.6v4.4c-12.9,0.7-23,11.4-23,24.5v52.9c0,8.9,4.7,16.6,11.7,20.9
			c-8,11.8-19.3,21.1-32.6,26.8c-3.7-4.1-8.9-6.6-14.8-6.6h-27.6c-11,0-19.9,8.9-19.9,19.9v0.3c0,11,8.9,19.9,19.9,19.9h27.6
			c8.1,0,15.1-4.8,18.2-11.8c13.2-4.8,25.3-12.4,35.4-22.5c7.6-7.5,13.7-16.1,18.4-25.5c3.1-1.7,5.8-4,7.9-6.8
			c16.9-1.2,30.4-19.2,30.4-41.2C333.5,206.8,320.1,188.8,303.2,187.5L303.2,187.5z M303.2,187.5"/>
	</g>
</g>
</svg>
