<?xml version="1.0" encoding="utf-8"?>
<!-- Generator: Adobe Illustrator 18.0.0, SVG Export Plug-In . SVG Version: 6.00 Build 0)  -->
<!DOCTYPE svg PUBLIC "-//W3C//DTD SVG 1.1//EN" "http://www.w3.org/Graphics/SVG/1.1/DTD/svg11.dtd">
<svg version="1.1" id="Camada_1" xmlns="http://www.w3.org/2000/svg" xmlns:xlink="http://www.w3.org/1999/xlink" x="0px" y="0px"
	 viewBox="0 0 411.7 411.7" enable-background="new 0 0 411.7 411.7" xml:space="preserve">
<g>
	<circle fill="#E56113" stroke="#FFFFFF" stroke-width="3" stroke-miterlimit="10" cx="205.9" cy="205.9" r="159"/>
	<g>
		<path fill="#FFFFFF" d="M285.5,144.2c-2.9-2.9-6.5-4.4-10.6-4.4h-138c-4.1,0-7.7,1.5-10.6,4.4c-2.9,2.9-4.4,6.5-4.4,10.6v102
			c0,4.1,1.5,7.7,4.4,10.6c2.9,2.9,6.5,4.4,10.6,4.4h138c4.1,0,7.7-1.5,10.6-4.4c2.9-2.9,4.4-6.5,4.4-10.6v-102
			C289.9,150.7,288.4,147.2,285.5,144.2L285.5,144.2z M277.9,256.9c0,0.8-0.3,1.5-0.9,2.1c-0.6,0.6-1.3,0.9-2.1,0.9h-138
			c-0.8,0-1.5-0.3-2.1-0.9c-0.6-0.6-0.9-1.3-0.9-2.1v-78c0-0.8,0.3-1.5,0.9-2.1c0.6-0.6,1.3-0.9,2.1-0.9h138c0.8,0,1.5,0.3,2.1,0.9
			c0.6,0.6,0.9,1.3,0.9,2.1V256.9z M277.9,256.9"/>
		<path fill="#FFFFFF" d="M154.8,235.9h-6c-0.8,0-1.5,0.3-2.1,0.9c-0.6,0.6-0.9,1.3-0.9,2.1v6c0,0.8,0.3,1.5,0.9,2.1
			c0.6,0.6,1.3,0.9,2.1,0.9h6c0.8,0,1.5-0.3,2.1-0.9c0.6-0.6,0.9-1.3,0.9-2.1v-6c0-0.8-0.3-1.5-0.9-2.1
			C156.4,236.2,155.7,235.9,154.8,235.9L154.8,235.9z M154.8,235.9"/>
		<path fill="#FFFFFF" d="M154.8,211.9h-6c-0.8,0-1.5,0.3-2.1,0.9c-0.6,0.6-0.9,1.3-0.9,2.1v6c0,0.8,0.3,1.5,0.9,2.1
			c0.6,0.6,1.3,0.9,2.1,0.9h6c0.8,0,1.5-0.3,2.1-0.9c0.6-0.6,0.9-1.3,0.9-2.1v-6c0-0.8-0.3-1.5-0.9-2.1
			C156.4,212.2,155.7,211.9,154.8,211.9L154.8,211.9z M154.8,211.9"/>
		<path fill="#FFFFFF" d="M154.8,187.9h-6c-0.8,0-1.5,0.3-2.1,0.9c-0.6,0.6-0.9,1.3-0.9,2.1v6c0,0.8,0.3,1.5,0.9,2.1
			c0.6,0.6,1.3,0.9,2.1,0.9h6c0.8,0,1.5-0.3,2.1-0.9c0.6-0.6,0.9-1.3,0.9-2.1v-6c0-0.8-0.3-1.5-0.9-2.1
			C156.4,188.2,155.7,187.9,154.8,187.9L154.8,187.9z M154.8,187.9"/>
		<path fill="#FFFFFF" d="M262.9,235.9h-90c-0.8,0-1.5,0.3-2.1,0.9c-0.6,0.6-0.9,1.3-0.9,2.1v6c0,0.8,0.3,1.5,0.9,2.1
			c0.6,0.6,1.3,0.9,2.1,0.9h90c0.8,0,1.5-0.3,2.1-0.9c0.6-0.6,0.9-1.3,0.9-2.1v-6c0-0.8-0.3-1.5-0.9-2.1
			C264.4,236.2,263.7,235.9,262.9,235.9L262.9,235.9z M262.9,235.9"/>
		<path fill="#FFFFFF" d="M262.9,211.9h-90c-0.8,0-1.5,0.3-2.1,0.9c-0.6,0.6-0.9,1.3-0.9,2.1v6c0,0.8,0.3,1.5,0.9,2.1
			c0.6,0.6,1.3,0.9,2.1,0.9h90c0.8,0,1.5-0.3,2.1-0.9c0.6-0.6,0.9-1.3,0.9-2.1v-6c0-0.8-0.3-1.5-0.9-2.1
			C264.4,212.2,263.7,211.9,262.9,211.9L262.9,211.9z M262.9,211.9"/>
		<path fill="#FFFFFF" d="M262.9,187.9h-90c-0.8,0-1.5,0.3-2.1,0.9c-0.6,0.6-0.9,1.3-0.9,2.1v6c0,0.8,0.3,1.5,0.9,2.1
			c0.6,0.6,1.3,0.9,2.1,0.9h90c0.8,0,1.5-0.3,2.1-0.9c0.6-0.6,0.9-1.3,0.9-2.1v-6c0-0.8-0.3-1.5-0.9-2.1
			C264.4,188.2,263.7,187.9,262.9,187.9L262.9,187.9z M262.9,187.9"/>
	</g>
</g>
</svg>
