<?xml version="1.0" encoding="utf-8"?>
<!-- Generator: Adobe Illustrator 18.0.0, SVG Export Plug-In . SVG Version: 6.00 Build 0)  -->
<!DOCTYPE svg PUBLIC "-//W3C//DTD SVG 1.1//EN" "http://www.w3.org/Graphics/SVG/1.1/DTD/svg11.dtd">
<svg version="1.1" id="Camada_1" xmlns="http://www.w3.org/2000/svg" xmlns:xlink="http://www.w3.org/1999/xlink" x="0px" y="0px"
	 viewBox="0 0 411.7 411.7" enable-background="new 0 0 411.7 411.7" xml:space="preserve">
<g>
	<g>
		<g>
			<path fill="#F19805" d="M243,125.1c0.6-2.7,1-5.5,1-8.4c0-8.2-2.7-15.8-7.2-22c-6.9-9.5-18.2-10.5-30.9-10.5
				c-13.1,0-24.7,1.4-31.6,11.5c-4.1,6-6.5,13.2-6.5,21c0,2.9,0.3,5.7,1,8.4C174.9,127.4,210.1,139.3,243,125.1z"/>
		</g>
		<g>
			<g>
				<path fill="#1E110C" d="M244.8,125.6c2.3-10.5,0.5-21.3-5.3-30.3c-5-7.7-12.8-11.2-21.6-12.3c-4.7-0.6-9.5-0.6-14.3-0.6
					c-4.6,0.1-9.1,0.4-13.6,1.3c-4,0.8-8,2.4-11.3,4.9c-3.7,2.7-6.3,6.4-8.4,10.4c-2.4,4.5-3.7,9.5-4.1,14.6
					c-0.3,2.7-0.1,5.4,0.2,8.1c0.3,2.1,0.2,4.6,2.4,5.4c5,1.8,10.1,3.2,15.3,4.3c19.5,4.1,40.3,3.6,58.9-4.1
					c0.4-0.2,0.7-0.3,1.1-0.5c2.2-0.9,0.3-4.2-1.9-3.2c-22.6,9.7-49.9,8.3-72.8-0.2c0.4,0.4,0.9,0.9,1.3,1.3c-2.3-10.3-0.1-22,7-30
					c5.9-6.7,15.2-8,23.7-8.3c8.8-0.3,18.9-0.6,26.9,3.5c8.7,4.5,13.1,15.1,13.8,24.4c0.3,3.5-0.1,7-0.8,10.5
					C240.6,127,244.2,128,244.8,125.6z"/>
			</g>
		</g>
	</g>
	<g>
		<g>
			<rect x="204.1" y="64.4" fill="#9B9BA0" width="1.8" height="15.7"/>
			<rect x="201.8" y="62.1" fill="#1E110C" width="6.3" height="20.2"/>
		</g>
		<g>
			<ellipse fill="#E59303" cx="205" cy="82.3" rx="4.9" ry="4.1"/>
			<path fill="#1E110C" d="M205,88.1c-3.6,0-6.6-2.6-6.6-5.7c0-3.2,2.9-5.7,6.6-5.7c3.6,0,6.6,2.6,6.6,5.7
				C211.5,85.5,208.6,88.1,205,88.1z M205,80c-1.7,0-3.2,1.1-3.2,2.4c0,1.3,1.5,2.4,3.2,2.4c1.7,0,3.2-1.1,3.2-2.4
				C208.2,81.1,206.7,80,205,80z"/>
		</g>
		<g>
			<path fill="#ECB043" d="M202.3,62.3c0,0-19.9-6.3-25.2-1.1c-5.3,5.2,21.9,7.5,25.2,2.1"/>
			<path fill="#1E110C" d="M190.5,68.6c-2,0-3.9-0.1-5.5-0.3c-6.2-0.7-9.8-2.3-10.6-4.7c-0.2-0.7-0.6-2.3,1.2-4
				c2.8-2.7,8.2-3.4,16.5-2c5.7,0.9,10.7,2.5,10.9,2.6l-1,3l2.2,1.4C202.2,67.7,196,68.6,190.5,68.6z M179.2,62.4
				c2.1,1,8.1,2.1,14.5,1.6c1.8-0.1,3.2-0.4,4.2-0.7c-1.8-0.5-4.1-1-6.5-1.4C183.6,60.7,180.4,61.7,179.2,62.4z"/>
		</g>
		<g>
			<path fill="#ECB043" d="M207.6,62.3c0,0,19.9-6.3,25.2-1.1c5.3,5.2-21.9,7.5-25.2,2.1"/>
			<path fill="#1E110C" d="M219.4,68.6c-5.5,0-11.7-0.9-13.7-4.1l2.2-1.4l-1-3c0.2-0.1,5.2-1.6,10.9-2.6c8.4-1.4,13.8-0.7,16.5,2
				c1.7,1.7,1.4,3.4,1.2,4c-0.8,2.4-4.4,4-10.6,4.7C223.3,68.5,221.4,68.6,219.4,68.6z M212.1,63.4c1,0.3,2.4,0.5,4.2,0.7
				c6.4,0.5,12.4-0.6,14.5-1.6c-1.2-0.8-4.4-1.7-12.1-0.4C216.2,62.4,213.9,62.9,212.1,63.4z"/>
		</g>
		<g>
			<circle fill="#E59303" cx="205" cy="62.8" r="2.6"/>
			<path fill="#1E110C" d="M205,67.6c-2.7,0-4.9-2.2-4.9-4.9c0-2.7,2.2-4.9,4.9-4.9c2.7,0,4.9,2.2,4.9,4.9
				C209.8,65.5,207.6,67.6,205,67.6z M205,62.4c-0.2,0-0.4,0.2-0.4,0.4c0,0.2,0.2,0.4,0.4,0.4c0.2,0,0.4-0.2,0.4-0.4
				C205.3,62.6,205.2,62.4,205,62.4z"/>
		</g>
	</g>
	<g>
		<g>
			<rect x="204.1" y="64.4" fill="#9B9BA0" width="1.8" height="15.7"/>
		</g>
		<g>
			<ellipse fill="#E59303" cx="205" cy="82.3" rx="4.9" ry="4.1"/>
			<path fill="#1E110C" d="M205,88.6c-3.9,0-7.1-2.8-7.1-6.3c0-3.5,3.2-6.3,7.1-6.3c3.9,0,7.1,2.8,7.1,6.3
				C212.1,85.8,208.9,88.6,205,88.6z M205,80.5c-1.4,0-2.6,0.8-2.6,1.8c0,1,1.2,1.8,2.6,1.8c1.4,0,2.6-0.8,2.6-1.8
				C207.6,81.4,206.4,80.5,205,80.5z"/>
		</g>
		<g>
			<ellipse fill="#E59303" cx="205" cy="82.3" rx="4.9" ry="4.1"/>
		</g>
		<g>
			<path fill="#ECB043" d="M202.3,62.3c0,0-19.9-6.3-25.2-1.1c-5.3,5.2,21.9,7.5,25.2,2.1"/>
		</g>
		<g>
			<path fill="#DF9406" d="M207.6,62.3c0,0,19.9-6.3,25.2-1.1c5.3,5.2-21.9,7.5-25.2,2.1"/>
		</g>
		<g>
			<path fill="#E59303" d="M201.9,61.5c0,0-11.5-2.5-14.7-2.3c0,0,0.6,6.5,13.9,5.3C201,64.6,201.6,64.2,201.9,61.5z"/>
		</g>
		<g>
			<path fill="#CF7F10" d="M209.1,61.6c0,0,8.4-2.4,15,4.5c0,0-11.2,1-15.4-1.8C208.7,64.4,209.3,62.6,209.1,61.6z"/>
		</g>
		<g>
			<circle fill="#E59303" cx="205" cy="62.8" r="2.6"/>
			<path fill="#1E110C" d="M205,67.1c-2.4,0-4.3-1.9-4.3-4.3c0-2.4,1.9-4.3,4.3-4.3c2.4,0,4.3,1.9,4.3,4.3
				C209.3,65.1,207.3,67.1,205,67.1z M205,61.8c-0.5,0-0.9,0.4-0.9,0.9c0,0.5,0.4,0.9,0.9,0.9c0.5,0,0.9-0.4,0.9-0.9
				C205.9,62.2,205.5,61.8,205,61.8z"/>
		</g>
		<g>
			<circle fill="#B21827" cx="205" cy="62.8" r="2.6"/>
		</g>
	</g>
	<g>
		<path fill="#E56113" d="M193.7,85.4c0,0-9.4,18.2-6.8,34.5c0,0,27.9-3.9,35.8,1c7.8,4.9,1.3-37.6-4.8-37.5
			C211.6,83.5,193.7,85.4,193.7,85.4z"/>
	</g>
	<g opacity="0.6">
		<g>
			<path fill="#AC2318" d="M238.1,94.7c-6.9-9.5-18.2-10.5-30.9-10.5l0,47.7c11.5,0.2,24.5-1.4,37.1-6.8c0.6-2.7,1-5.5,1-8.4
				C245.2,108.5,242.6,100.9,238.1,94.7z"/>
		</g>
	</g>
	<g>
		<g>
			<path fill="#2C110D" d="M245.7,125.8c2.4-10.7,0.5-21.8-5.4-31c-5.2-8-13.2-11.6-22.4-12.8c-4.7-0.6-9.5-0.6-14.3-0.6
				c-4.6,0.1-9.3,0.4-13.8,1.4c-4.1,0.9-8.1,2.5-11.5,4.9c-3.8,2.8-6.6,6.5-8.8,10.7c-2.4,4.7-3.8,9.8-4.3,15.1
				c-0.3,2.7-0.1,5.4,0.2,8.1c0.3,2.6,0.3,5.3,3.1,6.3c5,1.8,10.1,3.2,15.3,4.3c19.6,4.1,40.7,3.7,59.4-4.1c0.4-0.2,0.9-0.4,1.3-0.6
				c1.4-0.6,1.7-2.7,1-3.9c-0.8-1.4-2.4-1.6-3.9-1c-22.4,9.6-49.5,8.1-72-0.3c0.7,0.7,1.3,1.3,2,2c-2.2-9.9-0.1-21.3,6.8-29.1
				c5.7-6.5,14.8-7.8,23-8.1c8.6-0.3,18.6-0.6,26.5,3.4c8.4,4.3,12.7,14.7,13.3,23.6c0.3,3.4,0,6.9-0.8,10.2
				C239.5,127.9,244.9,129.4,245.7,125.8z"/>
		</g>
	</g>
	<g>
		<g>
			<path fill="#F6CBBE" d="M313.6,218.1c0-54.3-48.3-98.3-107.8-98.3c-59.5,0-107.8,44-107.8,98.3c0,43,30.2,79.5,72.3,92.9l36,41.1
				l34.9-41.1C283.4,297.5,313.6,261,313.6,218.1z"/>
		</g>
		<g>
			<g>
				<path fill="#1E110C" d="M316.5,218.1c0-16.5-4.5-32.7-12.7-47.1c-8.2-14.3-20-26.3-33.8-35.3c-29.6-19.5-68.1-23.8-101.7-12.8
					c-31.6,10.4-58.4,34.8-68.7,66.8c-5.2,16.2-5.7,33.8-1.8,50.4c4,16.8,12.9,32.2,24.8,44.7c12.3,12.9,28,22.4,44.8,28.2
					c0.5,0.2,1,0.3,1.6,0.5c-0.5-0.1-0.9-0.8-0.7-0.5c0.1,0.1,0.1,0.1,0.2,0.2c0.3,0.3,0.6,0.6,0.8,1c1.1,1.2,2.2,2.5,3.2,3.7
					c3.6,4.1,7.1,8.1,10.7,12.2c7,8,14,16,21.1,24.1c1,1.1,3,1.1,4,0c11.5-13.5,22.9-27,34.4-40.5c0.2-0.2,0.3-0.4,0.5-0.6
					c0,0,0,0,0,0c-0.2,0.2-0.5,0.4-0.7,0.6c0.3-0.1,0.7-0.2,1-0.3c1.2-0.4,2.4-0.8,3.6-1.3c4.3-1.6,8.5-3.4,12.6-5.5
					c7.9-4,15.3-9,22-14.8c13.1-11.3,23.3-25.8,29.2-42.1C314.7,239.4,316.4,228.7,316.5,218.1c0-3.6-5.6-3.6-5.6,0
					c-0.1,17.2-5.2,33.9-14.5,48.4c-9.3,14.6-22.8,26.2-38,34.3c-3.9,2.1-8,3.9-12.1,5.5c-2,0.8-4.5,1.2-6.4,2.3
					c-0.4,0.2-0.6,0.5-0.9,0.8c-2.2,2.6-4.4,5.2-6.7,7.9c-7.5,8.8-15,17.7-22.5,26.5c-1.8,2.1-3.6,4.3-5.5,6.4c1.3,0,2.7,0,4,0
					c-11.7-13.4-23.5-26.8-35.2-40.3c-1.1-1.3-2.4-1.7-4.1-2.3c-4.2-1.4-8.4-3.1-12.4-5.1c-7.9-3.8-15.3-8.6-22-14.2
					c-13-10.9-23.3-25.2-28.9-41.3c-5.6-15.9-6.4-33.3-2.4-49.7c3.8-15.6,11.9-29.8,22.8-41.4c23.9-25.3,59.6-36.4,93.8-32.4
					c33,3.9,64.1,23.1,80.1,52.5c7,12.9,10.7,27.4,10.7,42.1C310.8,221.7,316.5,221.7,316.5,218.1z"/>
			</g>
		</g>
	</g>
	<g opacity="0.7">
		<path fill="#ECB0A0" d="M206.2,120.9l0,230l35.5-40.5c0,0,79-24.2,69.8-103.1C302.5,130.8,242.8,127.2,206.2,120.9z"/>
	</g>
	<g>
		<g>
			<path fill="#ECB043" d="M230.2,122.1c0,0,0.6,11.5-14.8,15.2c-15.4,3.7-9.8,12.8-2.8,13.3c6.9,0.5,14.8-3.9,15.2-7.5
				c0.1-0.9,18.4,16-20.3,20.3c-41.8,4.6-29.8-43.6,1.1-43.6"/>
		</g>
		<g>
			<g>
				<g>
					<defs>
						<path id="SVGID_33_" d="M228.3,122.1c0.1,1.2-0.1,1.5-0.4,2.7c-0.6,2.3-1.9,4.4-3.6,6c-3.1,3-7.2,4-11.2,5.2
							c-3.2,1-6.8,2.6-8.5,5.6c-2.8,4.8,1.9,9.6,6.4,10.7c4.2,1,8.9-0.3,12.6-2.2c1.7-0.8,3.3-2,4.5-3.4c0.5-0.6,1-1.3,1.3-2.1
							c0.8-2.2-1.3,0.8-2.3,0.2c0.1,0.1,0.5,0.4-0.1-0.1c0.1,0.1,0.2,0.2,0.4,0.3c0.3,0.3,0.7,0.7,1,1c0.4,0.5,0-0.1,0.3,0.3
							c0.2,0.2,0.3,0.5,0.5,0.7c0.2,0.2,0.3,0.5,0.4,0.8c0.1,0.2,0.5,1,0.3,0.7c1.1,2.7,0.6,4.8-1.9,6.9c-2,1.7-4.7,2.7-7.2,3.5
							c-4.4,1.4-9.1,2.1-13.7,2.6c-6,0.6-12.6,0.4-18-2.9c-7.6-4.6-7.9-14.5-4.4-21.8c4.4-9.2,13.7-15.2,23.9-15.3
							c2.4,0,2.4-3.8,0-3.8c-11.1,0.1-21.3,6.3-26.6,16.1c-4.4,8.2-4.9,19.1,2.4,25.9c4.2,3.9,10,5.4,15.5,5.7
							c4.2,0.3,8.5-0.3,12.7-0.9c4-0.6,8-1.5,11.8-3c4-1.6,8.4-4.2,9.5-8.7c0.7-2.9-0.3-5.9-2-8.3c-1.1-1.6-3.7-5-5.7-2.4
							c-0.3,0.4-0.2,0.9-0.4,1.2c-0.3,0.7-1,1.2-1.5,1.8c-1.7,1.5-4.1,2.4-6.3,3c-2.8,0.8-6.4,1.1-8.8-0.9c-1.5-1.2-2-2.7-1-4.3
							c2.1-3.2,7.4-3.6,10.6-4.7c6-2,11.1-6.3,12.8-12.5c0.3-1.2,0.6-2.5,0.5-3.7C232,119.7,228.2,119.7,228.3,122.1L228.3,122.1z"
							/>
					</defs>
					<clipPath id="SVGID_1_">
						<use xlink:href="#SVGID_33_"  overflow="visible"/>
					</clipPath>
					<g clip-path="url(#SVGID_1_)">
						<rect x="215.2" y="80.6" fill="none" width="84" height="59.3"/>
						<rect x="215.2" y="80.6" fill="#2C110D" width="84" height="59.3"/>
					</g>
					<g clip-path="url(#SVGID_1_)">
						<rect x="215.2" y="139.9" fill="none" width="84" height="59.3"/>
						<rect x="215.2" y="139.9" fill="#2C110D" width="84" height="59.3"/>
					</g>
					<g clip-path="url(#SVGID_1_)">
						<rect x="131.2" y="80.6" fill="none" width="84" height="59.3"/>
						<rect x="131.2" y="80.6" fill="#2C110D" width="84" height="59.3"/>
					</g>
					<g clip-path="url(#SVGID_1_)">
						<rect x="131.2" y="139.9" fill="none" width="84" height="59.3"/>
						<rect x="131.2" y="139.9" fill="#2C110D" width="84" height="59.3"/>
					</g>
				</g>
			</g>
		</g>
	</g>
	<g>
		<path fill="#D79344" d="M215.9,120.2c0,0-0.8,3.5-4.8,7.3c-2.9,2.8-9.8,6.6-11.8,10.9c-4.4,9.1,2.2,21.7,14.2,21.2
			c14.8-0.6,21.4-4.8,15.7-14.5c0,0-28.1,12.6-21.5-1.5c5.1-10.7,19-6.2,20.8-16.6c1.8-10.4-5.3-6.7-5.3-6.7"/>
	</g>
	<g>
		<g>
			<g>
				<defs>
					<path id="SVGID_35_" d="M228.3,122.1c0.1,1.2-0.1,1.5-0.4,2.7c-0.6,2.3-1.9,4.4-3.6,6c-3.1,3-7.2,4-11.2,5.2
						c-3.2,1-6.8,2.6-8.5,5.6c-2.8,4.8,1.9,9.6,6.4,10.7c4.2,1,8.9-0.3,12.6-2.2c1.7-0.8,3.3-2,4.5-3.4c0.5-0.6,1-1.3,1.3-2.1
						c0.8-2.2-1.3,0.8-2.3,0.2c0.1,0.1,0.5,0.4-0.1-0.1c0.1,0.1,0.2,0.2,0.4,0.3c0.3,0.3,0.7,0.7,1,1c0.4,0.5,0-0.1,0.3,0.3
						c0.2,0.2,0.3,0.5,0.5,0.7c0.2,0.2,0.3,0.5,0.4,0.8c0.1,0.2,0.5,1,0.3,0.7c1.1,2.7,0.6,4.8-1.9,6.9c-2,1.7-4.7,2.7-7.2,3.5
						c-4.4,1.4-9.1,2.1-13.7,2.6c-6,0.6-12.6,0.4-18-2.9c-7.6-4.6-7.9-14.5-4.4-21.8c4.4-9.2,13.7-15.2,23.9-15.3
						c2.4,0,2.4-3.8,0-3.8c-11.1,0.1-21.3,6.3-26.6,16.1c-4.4,8.2-4.9,19.1,2.4,25.9c4.2,3.9,10,5.4,15.5,5.7
						c4.2,0.3,8.5-0.3,12.7-0.9c4-0.6,8-1.5,11.8-3c4-1.6,8.4-4.2,9.5-8.7c0.7-2.9-0.3-5.9-2-8.3c-1.1-1.6-3.7-5-5.7-2.4
						c-0.3,0.4-0.2,0.9-0.4,1.2c-0.3,0.7-1,1.2-1.5,1.8c-1.7,1.5-4.1,2.4-6.3,3c-2.8,0.8-6.4,1.1-8.8-0.9c-1.5-1.2-2-2.7-1-4.3
						c2.1-3.2,7.4-3.6,10.6-4.7c6-2,11.1-6.3,12.8-12.5c0.3-1.2,0.6-2.5,0.5-3.7C232,119.7,228.2,119.7,228.3,122.1L228.3,122.1z"/>
				</defs>
				<clipPath id="SVGID_2_">
					<use xlink:href="#SVGID_35_"  overflow="visible"/>
				</clipPath>
				<g clip-path="url(#SVGID_2_)">
					<rect x="231.2" y="100" fill="none" width="84" height="59.3"/>
					<rect x="231.2" y="100" fill="#2C110D" width="84" height="59.3"/>
				</g>
				<g clip-path="url(#SVGID_2_)">
					<rect x="231.2" y="159.3" fill="none" width="84" height="59.3"/>
					<rect x="231.2" y="159.3" fill="#2C110D" width="84" height="59.3"/>
				</g>
				<g clip-path="url(#SVGID_2_)">
					<rect x="147.2" y="100" fill="none" width="84" height="59.3"/>
					<rect x="147.2" y="100" fill="#2C110D" width="84" height="59.3"/>
				</g>
				<g clip-path="url(#SVGID_2_)">
					<rect x="147.2" y="159.3" fill="none" width="84" height="59.3"/>
					<rect x="147.2" y="159.3" fill="#2C110D" width="84" height="59.3"/>
				</g>
			</g>
		</g>
	</g>
	<g>
		<g>
			<path fill="#2C110D" d="M316.5,218.1c0-16.5-4.5-32.7-12.7-47.1c-8.2-14.3-20-26.3-33.8-35.3c-29.6-19.5-68.1-23.8-101.7-12.8
				c-31.6,10.4-58.4,34.8-68.7,66.8c-5.2,16.2-5.7,33.8-1.8,50.4c4,16.8,12.9,32.2,24.8,44.7c12.3,12.9,28,22.4,44.8,28.2
				c0.5,0.2,1,0.3,1.6,0.5c-0.5-0.1-0.9-0.8-0.7-0.5c0.1,0.1,0.1,0.1,0.2,0.2c0.3,0.3,0.6,0.6,0.8,1c1.1,1.2,2.2,2.5,3.2,3.7
				c3.6,4.1,7.1,8.1,10.7,12.2c7,8,14,16,21.1,24.1c1,1.1,3,1.1,4,0c11.5-13.5,22.9-27,34.4-40.5c0.2-0.2,0.3-0.4,0.5-0.6
				c0,0,0,0,0,0c-0.2,0.2-0.5,0.4-0.7,0.6c0.3-0.1,0.7-0.2,1-0.3c1.2-0.4,2.4-0.8,3.6-1.3c4.3-1.6,8.5-3.4,12.6-5.5
				c7.9-4,15.3-9,22-14.8c13.1-11.3,23.3-25.8,29.2-42.1C314.7,239.4,316.4,228.7,316.5,218.1c0-3.6-5.6-3.6-5.6,0
				c-0.1,17.2-5.2,33.9-14.5,48.4c-9.3,14.6-22.8,26.2-38,34.3c-3.9,2.1-8,3.9-12.1,5.5c-2,0.8-4.5,1.2-6.4,2.3
				c-0.4,0.2-0.6,0.5-0.9,0.8c-2.2,2.6-4.4,5.2-6.7,7.9c-7.5,8.8-15,17.7-22.5,26.5c-1.8,2.1-3.6,4.3-5.5,6.4c1.3,0,2.7,0,4,0
				c-11.7-13.4-23.5-26.8-35.2-40.3c-1.1-1.3-2.4-1.7-4.1-2.3c-4.2-1.4-8.4-3.1-12.4-5.1c-7.9-3.8-15.3-8.6-22-14.2
				c-13-10.9-23.3-25.2-28.9-41.3c-5.6-15.9-6.4-33.3-2.4-49.7c3.8-15.6,11.9-29.8,22.8-41.4c23.9-25.3,59.6-36.4,93.8-32.4
				c33,3.9,64.1,23.1,80.1,52.5c7,12.9,10.7,27.4,10.7,42.1C310.8,221.7,316.5,221.7,316.5,218.1z"/>
		</g>
	</g>
	<g opacity="0.4">
		<g>
			<path fill="#CA3650" d="M268,214.5c1.4,0.7,3.1,0.6,4.3-0.5c1-0.9,1.3-2.1,0.4-3.2c-1.2-1.4-4-1.4-5.7-1.1
				c-2.2,0.3-4.3,1.1-5.6,2.9c-1.1,1.5-0.8,3.7,0.4,5.1c1.4,1.6,4.1,1.8,6,1.8c5,0.2,10.9,0.5,13.9-4.3c0.3-0.5-0.5-1-0.8-0.5
				c-2.2,3.7-6,3.8-9.8,3.8c-2.8,0-7.9,0.7-9.1-2.6c-1.4-3.8,3.8-5.4,6.5-5.5c1.1,0,4.7,0.3,3.9,2.1c-0.6,1.4-2.6,1.6-3.8,1
				C267.9,213.4,267.4,214.2,268,214.5L268,214.5z"/>
		</g>
	</g>
	<g>
		<g>
			<path fill="#2C110D" d="M272.3,188.3c-11.4-6.7-26.4-5.6-37.9,0c-2.7,1.3-0.5,5.3,2.2,4.4c0.7-0.1,2.2-0.5,4.2-0.8
				c1.4-0.2,3-0.5,4.7-0.8c0.9-0.1,1.8-0.2,2.7-0.3c0.9-0.1,1.8-0.2,2.7-0.2c0.9-0.1,1.8-0.1,2.7-0.1c0.9,0,1.8,0,2.6,0.1
				c0.9,0.1,1.7,0.1,2.5,0.2c0.8,0.1,1.5,0.3,2.2,0.4c0.7,0.2,1.3,0.3,1.8,0.5c0.5,0.2,1,0.4,1.4,0.5c0.4,0.2,0.7,0.3,0.9,0.4
				c0.2,0.1,0.3,0.2,0.3,0.2s-0.1-0.1-0.3-0.2c-0.2-0.1-0.4-0.4-0.8-0.6c-0.3-0.2-0.8-0.5-1.3-0.8c-0.5-0.3-1.1-0.5-1.8-0.8
				c-0.3-0.1-0.7-0.3-1.1-0.4c-0.4-0.1-0.8-0.2-1.2-0.3c-0.8-0.2-1.7-0.3-2.5-0.4c-0.4,0-0.9-0.1-1.4-0.1c-0.5,0-0.9-0.1-1.4-0.1
				c-0.9,0-1.8,0-2.7,0.1c-1.1,0-2.5,0-2.9-0.1c7.4-1.2,15.3-0.3,21.7,3.5C272.5,194.1,275,189.9,272.3,188.3z"/>
		</g>
		<g>
			<path fill="#2C110D" d="M174,176.1c-0.5,0.2-1,0.4-1.5,0.4c-2.1,0-3.8-2-3.8-4.4c0-1,0.3-2,0.8-2.7c-2.4-0.6-5.1,1-6.5,4.5
				c-3.8,4.9-2.4,18.4-1.3,24.2c1.5,10.5,10.9,13.1,12.8,3.3c1.1-6.5,0.7-18.2-0.4-24.7C174,176.3,174,176.2,174,176.1z"/>
		</g>
	</g>
	<g opacity="0.4">
		<g>
			<path fill="#CA3650" d="M142.4,213.7c-1.2,0.6-2.8,0.3-3.6-0.8c-1.3-1.8,2.5-2.3,3.4-2.3c3.2-0.1,7.7,1.6,6.8,5.5
				c-0.7,3.2-6.4,2.7-8.8,2.6c-4-0.1-7.9,0-10.2-3.9c-0.3-0.5-1.1,0-0.8,0.5c2.9,4.8,8.5,4.4,13.4,4.3c2.1,0,4.4-0.3,6.2-1.6
				c1.6-1.3,1.6-3.8,0.6-5.4c-1.8-3-8.3-4.3-11-2c-1.1,0.9-1,2.2,0,3.2c1.1,1.2,3.1,1.4,4.5,0.7C143.4,214.2,143,213.4,142.4,213.7
				L142.4,213.7z"/>
		</g>
	</g>
	<g>
		<g>
			<g>
				<path fill="#2C110D" d="M260.7,232.1c-1.8,0.8-1.6,2.9-1.7,4.6c0,0.5-0.1,1-0.1,1.5c0,0.3-0.1,0.6-0.1,0.8c0,0.1,0,0.3-0.1,0.4
					c0,0.3,0-0.3,0,0.3c-0.2,1.4-0.5,2.9-0.9,4.3c-2,8-6.9,14.8-13.8,19.5c-11.2,7.5-25.4,9.1-38.6,9.1c-2.4,0-2.4,3.8,0,3.8
					c0.3,0,0.6,0,0.9,0c2.4,0,2.4-3.7,0-3.8c-14.1,0-29.9-1.9-41.2-11.1c-6.2-5-10.1-11.9-11.6-19.5c-0.5-2.2-0.6-3.5-0.8-5.9
					c-0.1-1.6,0-3.3-1.7-4c-2.2-0.9-3.2,2.7-1,3.6c-0.7-0.3-1.1-0.7-1.2-1.1c0,0.1,0,0.2,0,0.2c-0.1-0.8,0,0.1,0,0.4
					c0.1,0.9,0.1,1.8,0.2,2.7c0.3,2.9,0.8,5.8,1.6,8.6c2.6,8.6,8.2,15.7,15.7,20.6c11.6,7.5,26.4,9.3,39.9,9.3c0-1.3,0-2.5,0-3.8
					c-0.3,0-0.6,0-0.9,0c0,1.3,0,2.5,0,3.8c14.5,0,30.3-2,42.3-10.9c6.9-5.1,11.7-12.3,13.8-20.6c0.6-2.4,1-4.9,1.2-7.4
					c0.1-0.8,0.1-1.5,0.2-2.3c0-0.3,0.1-0.9,0-0.2c0-0.1,0-0.2,0-0.2c-0.1,0.4-0.6,0.9-1.2,1.1C263.9,234.8,262.9,231.2,260.7,232.1
					L260.7,232.1z"/>
			</g>
		</g>
		<g>
			<g>
				<path fill="#2C110D" d="M251.1,223.4c-1.9,6,3.8,10.2,8.9,11.6c5.2,1.4,14.4,1.6,16.4-5c0.7-2.3-2.9-3.3-3.6-1
					c0,0.1,0,0.1-0.1,0.2c0.3-0.7-0.1,0.1-0.2,0.2c-0.3,0.5-0.7,0.9-1.3,1.4c-2.8,1.9-6.6,1.4-9.7,0.7c-2.5-0.5-5.8-1.7-6.7-4.4
					c-0.3-0.8-0.3-1.2-0.2-2.1c0-0.1,0,0.2,0.1-0.3c0-0.1,0-0.2,0.1-0.3C255.5,222.1,251.8,221.1,251.1,223.4L251.1,223.4z"/>
			</g>
		</g>
		<g>
			<g>
				<path fill="#2C110D" d="M156.1,224.4c0.2,0.7,0.2,1.4-0.1,2.5c-0.7,2.7-3.8,3.8-6.2,4.5c-3.1,0.8-7.1,1.3-10-0.5
					c-0.7-0.4-1.3-1-1.5-1.4c-0.1-0.2-0.3-0.4-0.4-0.6c0.3,0.6,0.1,0.3,0.1,0.1c-0.7-2.3-4.3-1.3-3.6,1c2,6.4,10.7,6.2,15.8,5.1
					c5.2-1.1,11.4-5.5,9.5-11.7C159,221.1,155.4,222.1,156.1,224.4L156.1,224.4z"/>
			</g>
		</g>
	</g>
	<g>
		<g>
			<path fill="none" stroke="#2C110D" stroke-width="7" stroke-miterlimit="10" d="M205.9,97.2C205.9,97.2,205.9,97.1,205.9,97.2
				c-0.1,0-0.1,0-0.1,0C93.9,100.4,93.9,184,93.9,184h9.7c14.4-79.8,98.9-76.8,102.3-76.7c0,0,0,0,0.1,0c0,0,0.1,0,0.1,0
				c3.4-0.1,87.9-3.1,102.3,76.7h9.7C317.9,184,317.9,100.4,205.9,97.2z"/>
			<g>
				<path fill="none" stroke="#2C110D" stroke-width="4" stroke-miterlimit="10" d="M94.8,176.7c-4.7,0-8.7,3.8-9.2,8.6
					c-8.1,4.4-13.8,14.2-13.8,25.6c0,11.4,5.7,21.2,13.8,25.6c0.5,4.8,4.5,8.6,9.2,8.6c5.1,0,9.3-4.4,9.3-9.7v-49
					C104.1,181.1,99.9,176.7,94.8,176.7z"/>
				<path fill="none" stroke="#2C110D" stroke-width="4" stroke-miterlimit="10" d="M316.9,176.7c4.7,0,8.7,3.8,9.2,8.6
					c8.1,4.4,13.8,14.2,13.8,25.6c0,11.4-5.7,21.2-13.8,25.6c-0.5,4.8-4.5,8.6-9.2,8.6c-5.1,0-9.3-4.4-9.3-9.7v-49
					C307.6,181.1,311.8,176.7,316.9,176.7z"/>
			</g>
		</g>
		<g>
			<path fill="#282829" stroke="#2C110D" stroke-width="2" stroke-miterlimit="10" d="M307.6,221c0,0-6.4,28-41.6,40.2l5.2,4.6
				c0,0,23-2.5,37.8-32.1"/>
			<circle fill="#1E1E1C" stroke="#2C110D" stroke-width="2" stroke-miterlimit="10" cx="262.9" cy="265.8" r="7.8"/>
		</g>
		<g>
			<g>
				<path fill="#3D3D3B" d="M205.9,97L205.9,97C205.9,97,205.9,97,205.9,97c-0.1,0-0.1,0-0.1,0v0c-111.9,3.3-111.9,87-111.9,87h9.7
					c14.4-79.9,98.9-77,102.3-76.8v0c0,0,0,0,0.1,0c0,0,0.1,0,0.1,0v0c3.4-0.2,87.9-3.1,102.3,76.8h9.7
					C317.9,184,317.9,100.3,205.9,97z"/>
				<g>
					<path fill="#282829" stroke="#2C110D" stroke-width="3" stroke-miterlimit="10" d="M94.4,176.7c-4.9,0-9,3.8-9.6,8.6
						c-8.5,4.4-14.4,14.2-14.4,25.6c0,11.4,5.9,21.2,14.4,25.6c0.6,4.8,4.7,8.6,9.6,8.6c5.3,0,9.7-4.4,9.7-9.7v-49
						C104.1,181.1,99.7,176.7,94.4,176.7z"/>
					<path fill="#282829" stroke="#2C110D" stroke-width="3" stroke-miterlimit="10" d="M317.3,176.7c4.9,0,9,3.8,9.6,8.6
						c8.5,4.4,14.4,14.2,14.4,25.6c0,11.4-5.9,21.2-14.4,25.6c-0.6,4.8-4.7,8.6-9.6,8.6c-5.3,0-9.7-4.4-9.7-9.7v-49
						C307.6,181.1,312,176.7,317.3,176.7z"/>
				</g>
			</g>
			<g>
				<path fill="#585857" d="M315.5,180.8c0,0,7,1.4,6.6,5.9C322.1,186.7,323.5,181,315.5,180.8z"/>
				<path fill="#585857" stroke="#2C110D" stroke-width="2" stroke-miterlimit="10" d="M326.5,185.3v51.2c0,0,12.7-6.4,13.4-24.7
					C340.7,193.5,326.5,185.3,326.5,185.3z"/>
			</g>
			<g>
				<path fill="#585857" d="M96.3,181c0,0-7,1.4-6.6,5.9C89.7,186.9,88.2,181.1,96.3,181z"/>
				<path fill="#585857" stroke="#2C110D" stroke-width="2" stroke-miterlimit="10" d="M84.8,184.8v51.9c0,0-12.3-6.4-13-25
					S84.8,184.8,84.8,184.8z"/>
			</g>
		</g>
	</g>
	<g>
		<g>
			<g>
				<path fill="#442A19" d="M312.7,108.5c-1.3,3-2.5,6.1-3.8,9.1c-0.6,1.5,1.8,2.1,2.4,0.7c1.3-3,2.5-6.1,3.8-9.1
					C315.7,107.7,313.3,107,312.7,108.5L312.7,108.5z"/>
			</g>
		</g>
		<g>
			<g>
				<path fill="#442A19" d="M324.9,121.8c-3,1.3-5.9,2.6-8.9,3.9c-1.5,0.6-0.2,2.8,1.3,2.2c3-1.3,5.9-2.6,8.9-3.9
					C327.7,123.3,326.4,121.2,324.9,121.8L324.9,121.8z"/>
			</g>
		</g>
		<g>
			<g>
				<path fill="#442A19" d="M321.4,141.1c3.5-0.2,6.9-0.3,10.4-0.5c1.6-0.1,1.6-2.6,0-2.5c-3.5,0.2-6.9,0.3-10.4,0.5
					C319.8,138.7,319.8,141.2,321.4,141.1L321.4,141.1z"/>
			</g>
		</g>
	</g>
</g>
</svg>
