<?xml version="1.0" encoding="utf-8"?>
<!-- Generator: Adobe Illustrator 18.0.0, SVG Export Plug-In . SVG Version: 6.00 Build 0)  -->
<!DOCTYPE svg PUBLIC "-//W3C//DTD SVG 1.1//EN" "http://www.w3.org/Graphics/SVG/1.1/DTD/svg11.dtd">
<svg version="1.1" id="Camada_1" xmlns="http://www.w3.org/2000/svg" xmlns:xlink="http://www.w3.org/1999/xlink" x="0px" y="0px"
	 viewBox="0 0 411.7 411.7" enable-background="new 0 0 411.7 411.7" xml:space="preserve">
<g>
	<g>
		<g>
			<path fill="none" stroke="#1E1E1C" stroke-width="2" stroke-miterlimit="10" d="M336.3,157.5c0,0-0.7,0-2,0"/>
			<path fill="none" stroke="#1E1E1C" stroke-width="2" stroke-miterlimit="10" stroke-dasharray="3.9888,9.9719" d="M324.4,157.8
				c-62.1,1.9-342.4,13.9-286,70c62.2,61.9,399.2,16.7,294.1,80.2"/>
			<path fill="none" stroke="#1E1E1C" stroke-width="2" stroke-miterlimit="10" d="M328.1,310.5c-0.6,0.3-1.2,0.7-1.7,1"/>
		</g>
	</g>
	<g>
		<g>
			<g>
				<path fill="#B21827" d="M187.5,144c0.4-1.7,0.6-3.5,0.6-5.4c0-5.3-1.7-10.1-4.6-14.1c-4.4-6.1-11.6-6.7-19.8-6.7
					c-8.4,0-15.8,0.9-20.2,7.3c-2.6,3.8-4.2,8.5-4.2,13.5c0,1.8,0.2,3.6,0.6,5.4C143.9,145.4,166.4,153.1,187.5,144z"/>
			</g>
			<g>
				<g>
					<path fill="#1E110C" d="M188.7,144.3c1.5-6.7,0.3-13.6-3.4-19.4c-3.2-4.9-8.2-7.1-13.8-7.9c-3-0.4-6.1-0.4-9.2-0.4
						c-2.9,0-5.8,0.2-8.7,0.8c-2.6,0.5-5.1,1.6-7.3,3.1c-2.4,1.7-4.1,4.1-5.4,6.6c-1.5,2.9-2.3,6.1-2.7,9.3
						c-0.2,1.7-0.1,3.5,0.1,5.2c0.2,1.3,0.1,2.9,1.5,3.4c3.2,1.2,6.5,2,9.8,2.7c12.5,2.6,25.8,2.3,37.7-2.6c0.2-0.1,0.5-0.2,0.7-0.3
						c1.4-0.6,0.2-2.7-1.2-2.1c-14.5,6.2-32,5.3-46.6-0.2c0.3,0.3,0.6,0.6,0.8,0.8c-1.4-6.6,0-14.1,4.5-19.2
						c3.8-4.3,9.8-5.1,15.2-5.3c5.6-0.2,12.1-0.4,17.3,2.3c5.6,2.9,8.4,9.7,8.8,15.6c0.2,2.3,0,4.5-0.5,6.7
						C186,145.2,188.3,145.8,188.7,144.3z"/>
				</g>
			</g>
		</g>
		<g>
			<g>
				<rect x="162.6" y="105.1" fill="#9B9BA0" width="1.1" height="10.1"/>
				<rect x="161.2" y="103.6" fill="#1E110C" width="4" height="13"/>
			</g>
			<g>
				<ellipse fill="#E59303" cx="163.2" cy="116.6" rx="3.1" ry="2.6"/>
				<path fill="#1E110C" d="M163.2,120.3c-2.3,0-4.2-1.6-4.2-3.7c0-2,1.9-3.7,4.2-3.7c2.3,0,4.2,1.6,4.2,3.7
					C167.4,118.6,165.5,120.3,163.2,120.3z M163.2,115.1c-1.1,0-2,0.7-2,1.5c0,0.8,0.9,1.5,2,1.5c1.1,0,2-0.7,2-1.5
					C165.2,115.8,164.3,115.1,163.2,115.1z"/>
			</g>
			<g>
				<path fill="#ECB043" d="M161.5,103.7c0,0-12.8-4-16.2-0.7c-3.4,3.3,14,4.8,16.2,1.4"/>
				<path fill="#1E110C" d="M153.9,107.8c-1.3,0-2.5-0.1-3.5-0.2c-4-0.4-6.3-1.5-6.8-3c-0.1-0.4-0.4-1.5,0.7-2.6
					c1.8-1.7,5.2-2.2,10.6-1.3c3.7,0.6,6.9,1.6,7,1.6l-0.6,1.9l1.4,0.9C161.4,107.2,157.4,107.8,153.9,107.8z M146.7,103.8
					c1.3,0.6,5.2,1.4,9.3,1c1.2-0.1,2-0.2,2.7-0.4c-1.2-0.3-2.6-0.6-4.2-0.9C149.5,102.8,147.5,103.3,146.7,103.8z"/>
			</g>
			<g>
				<path fill="#ECB043" d="M164.8,103.7c0,0,12.8-4,16.2-0.7c3.4,3.3-14,4.8-16.2,1.4"/>
				<path fill="#1E110C" d="M172.4,107.8c-3.5,0-7.5-0.6-8.8-2.7l1.4-0.9l-0.6-1.9c0.1,0,3.3-1,7-1.6c5.4-0.9,8.8-0.4,10.6,1.3
					c1.1,1.1,0.9,2.2,0.7,2.6c-0.5,1.6-2.8,2.6-6.8,3C174.9,107.7,173.7,107.8,172.4,107.8z M167.7,104.4c0.7,0.2,1.5,0.3,2.7,0.4
					c4.1,0.3,7.9-0.4,9.3-1c-0.8-0.5-2.8-1.1-7.8-0.3C170.4,103.8,168.9,104.1,167.7,104.4z"/>
			</g>
			<g>
				<circle fill="#E59303" cx="163.2" cy="104" r="1.7"/>
				<path fill="#1E110C" d="M163.2,107.2c-1.7,0-3.1-1.4-3.1-3.1c0-1.7,1.4-3.1,3.1-3.1c1.7,0,3.1,1.4,3.1,3.1
					C166.3,105.8,164.9,107.2,163.2,107.2z M163.2,103.8c-0.1,0-0.2,0.1-0.2,0.2c0,0.1,0.1,0.2,0.2,0.2c0.1,0,0.2-0.1,0.2-0.2
					C163.4,103.9,163.3,103.8,163.2,103.8z"/>
			</g>
		</g>
		<g>
			<g>
				<rect x="162.6" y="105.1" fill="#9B9BA0" width="1.1" height="10.1"/>
			</g>
			<g>
				<ellipse fill="#E59303" cx="163.2" cy="116.6" rx="3.1" ry="2.6"/>
				<path fill="#1E110C" d="M163.2,120.6c-2.5,0-4.6-1.8-4.6-4c0-2.2,2.1-4,4.6-4c2.5,0,4.6,1.8,4.6,4
					C167.7,118.8,165.7,120.6,163.2,120.6z M163.2,115.4c-0.9,0-1.7,0.5-1.7,1.2c0,0.6,0.8,1.2,1.7,1.2c0.9,0,1.7-0.5,1.7-1.2
					C164.9,116,164.1,115.4,163.2,115.4z"/>
			</g>
			<g>
				<ellipse fill="#E59303" cx="163.2" cy="116.6" rx="3.1" ry="2.6"/>
			</g>
			<g>
				<path fill="#ECB043" d="M161.5,103.7c0,0-12.8-4-16.2-0.7c-3.4,3.3,14,4.8,16.2,1.4"/>
			</g>
			<g>
				<path fill="#DF9406" d="M164.8,103.7c0,0,12.8-4,16.2-0.7c3.4,3.3-14,4.8-16.2,1.4"/>
			</g>
			<g>
				<path fill="#E59303" d="M161.2,103.3c0,0-7.4-1.6-9.4-1.5c0,0,0.4,4.2,8.9,3.4C160.6,105.2,161,105,161.2,103.3z"/>
			</g>
			<g>
				<path fill="#CF7F10" d="M165.8,103.3c0,0,5.4-1.5,9.6,2.9c0,0-7.2,0.6-9.9-1.1C165.6,105.1,165.9,104,165.8,103.3z"/>
			</g>
			<g>
				<circle fill="#E59303" cx="163.2" cy="104" r="1.7"/>
				<path fill="#1E110C" d="M163.2,106.8c-1.5,0-2.8-1.2-2.8-2.8c0-1.5,1.2-2.8,2.8-2.8c1.5,0,2.8,1.2,2.8,2.8
					C165.9,105.6,164.7,106.8,163.2,106.8z M163.2,103.4c-0.3,0-0.6,0.3-0.6,0.6c0,0.3,0.3,0.6,0.6,0.6c0.3,0,0.6-0.3,0.6-0.6
					C163.8,103.7,163.5,103.4,163.2,103.4z"/>
			</g>
			<g>
				<circle fill="#B21827" cx="163.2" cy="104" r="1.7"/>
			</g>
		</g>
		<g>
			<path fill="#85181A" d="M155.9,118.6c0,0-6,11.7-4.4,22.1c0,0,17.9-2.5,22.9,0.7c5,3.2,0.8-24.1-3.1-24
				C167.4,117.4,155.9,118.6,155.9,118.6z"/>
		</g>
		<g opacity="0.6">
			<g>
				<path fill="#671413" d="M183.5,124.5c-4.4-6.1-11.6-6.7-19.8-6.7v30.6c7.4,0.1,15.7-0.9,23.8-4.4c0.4-1.7,0.6-3.5,0.6-5.4
					C188.1,133.3,186.4,128.5,183.5,124.5z"/>
			</g>
		</g>
		<g>
			<g>
				<path fill="#2C110D" d="M189.3,144.5c1.5-6.9,0.3-14-3.5-19.9c-3.3-5.1-8.5-7.4-14.4-8.2c-3-0.4-6.1-0.4-9.2-0.4
					c-3,0-6,0.3-8.9,0.9c-2.6,0.6-5.2,1.6-7.4,3.2c-2.4,1.8-4.2,4.2-5.6,6.9c-1.6,3-2.4,6.3-2.7,9.6c-0.2,1.7-0.1,3.5,0.1,5.2
					c0.2,1.6,0.2,3.4,2,4c3.2,1.2,6.5,2,9.8,2.7c12.6,2.6,26.1,2.4,38-2.6c0.3-0.1,0.6-0.2,0.8-0.4c0.9-0.4,1.1-1.7,0.6-2.5
					c-0.5-0.9-1.6-1-2.5-0.6c-14.4,6.1-31.7,5.2-46.2-0.2c0.4,0.4,0.8,0.8,1.3,1.3c-1.4-6.4,0-13.7,4.3-18.7c3.7-4.2,9.5-5,14.7-5.2
					c5.5-0.2,11.9-0.4,17,2.2c5.4,2.8,8.1,9.4,8.5,15.1c0.2,2.2,0,4.4-0.5,6.5C185.3,145.8,188.7,146.7,189.3,144.5z"/>
			</g>
		</g>
		<g>
			<g>
				<path fill="#F6CBBE" d="M232.8,203.6c0-34.8-30.9-63-69.1-63c-38.1,0-69.1,28.2-69.1,63c0,27.5,19.4,50.9,46.3,59.5l23.1,26.4
					l22.4-26.4C213.4,254.5,232.8,231.1,232.8,203.6z"/>
			</g>
			<g>
				<g>
					<path fill="#1E110C" d="M234.6,203.6c0-10.6-2.9-21-8.1-30.2c-5.2-9.2-12.8-16.8-21.6-22.6c-19-12.5-43.6-15.2-65.1-8.2
						c-20.3,6.7-37.4,22.3-44,42.8c-3.4,10.4-3.7,21.7-1.1,32.3c2.6,10.8,8.3,20.6,15.9,28.6c7.9,8.3,17.9,14.4,28.7,18.1
						c0.3,0.1,0.7,0.2,1,0.3c-0.3-0.1-0.6-0.5-0.4-0.3c0,0,0.1,0.1,0.1,0.1c0.2,0.2,0.4,0.4,0.5,0.6c0.7,0.8,1.4,1.6,2.1,2.4
						c2.3,2.6,4.6,5.2,6.8,7.8c4.5,5.1,9,10.3,13.5,15.4c0.6,0.7,1.9,0.7,2.6,0c7.3-8.6,14.7-17.3,22-25.9c0.1-0.1,0.2-0.3,0.3-0.4
						c0,0,0,0,0,0c-0.2,0.1-0.3,0.2-0.5,0.4c0.2-0.1,0.4-0.1,0.7-0.2c0.8-0.3,1.5-0.5,2.3-0.8c2.7-1,5.4-2.2,8-3.5
						c5.1-2.6,9.8-5.8,14.1-9.5c8.4-7.2,14.9-16.6,18.7-27C233.5,217.2,234.6,210.4,234.6,203.6c0-2.3-3.6-2.3-3.6,0
						c0,11-3.3,21.7-9.3,31c-6,9.3-14.6,16.8-24.3,22c-2.5,1.3-5.1,2.5-7.8,3.5c-1.3,0.5-2.9,0.8-4.1,1.4c-0.3,0.2-0.4,0.3-0.6,0.5
						c-1.4,1.7-2.8,3.4-4.3,5c-4.8,5.7-9.6,11.3-14.4,17c-1.2,1.4-2.3,2.7-3.5,4.1c0.9,0,1.7,0,2.6,0c-7.5-8.6-15-17.2-22.6-25.8
						c-0.7-0.8-1.5-1.1-2.6-1.5c-2.7-0.9-5.4-2-7.9-3.2c-5.1-2.4-9.8-5.5-14.1-9.1c-8.3-7-14.9-16.1-18.5-26.4
						c-3.6-10.2-4.1-21.3-1.5-31.8c2.4-10,7.6-19.1,14.6-26.5c15.3-16.2,38.2-23.3,60.1-20.8c21.2,2.5,41,14.8,51.3,33.7
						c4.5,8.3,6.9,17.6,6.9,27C231,205.9,234.6,205.9,234.6,203.6z"/>
				</g>
			</g>
		</g>
		<g opacity="0.7">
			<path fill="#ECB0A0" d="M164,141.3l0,147.4l22.7-26c0,0,50.6-15.5,44.7-66C225.6,147.7,187.4,145.3,164,141.3z"/>
		</g>
		<g>
			<g>
				<path fill="#ECB043" d="M179.3,142.1c0,0,0.4,7.3-9.5,9.7c-9.8,2.4-6.3,8.2-1.8,8.5c4.4,0.3,9.5-2.5,9.7-4.8
					c0.1-0.6,11.8,10.2-13,13c-26.8,2.9-19.1-27.9,0.7-28"/>
			</g>
			<g>
				<g>
					<g>
						<defs>
							<path id="SVGID_24_" d="M178.1,142.1c0,0.8,0,0.9-0.2,1.7c-0.4,1.5-1.2,2.8-2.3,3.9c-2,1.9-4.6,2.6-7.2,3.3
								c-2.1,0.6-4.3,1.6-5.5,3.6c-1.8,3.1,1.2,6.2,4.1,6.8c2.7,0.6,5.7-0.2,8.1-1.4c1.1-0.5,2.1-1.3,2.9-2.2
								c0.3-0.4,0.6-0.8,0.8-1.3c0.5-1.4-0.8,0.5-1.5,0.2c0.1,0.1,0.3,0.2,0,0c0.1,0.1,0.2,0.1,0.2,0.2c0.2,0.2,0.4,0.4,0.6,0.6
								c0.3,0.3,0,0,0.2,0.2c0.1,0.1,0.2,0.3,0.3,0.4c0.1,0.2,0.2,0.3,0.3,0.5c0.1,0.1,0.3,0.7,0.2,0.4c0.7,1.7,0.4,3.1-1.2,4.5
								c-1.3,1.1-3,1.8-4.6,2.3c-2.8,0.9-5.8,1.4-8.8,1.7c-3.9,0.4-8.1,0.2-11.5-1.8c-4.9-3-5-9.3-2.8-14c2.8-5.9,8.8-9.7,15.3-9.8
								c1.5,0,1.6-2.4,0-2.4c-7.1,0.1-13.7,4-17,10.3c-2.8,5.2-3.1,12.3,1.5,16.6c2.7,2.5,6.4,3.4,10,3.7c2.7,0.2,5.4-0.2,8.1-0.6
								c2.6-0.4,5.2-1,7.6-1.9c2.6-1,5.4-2.7,6.1-5.6c0.4-1.9-0.2-3.8-1.3-5.3c-0.7-1-2.4-3.2-3.6-1.5c-0.2,0.2-0.1,0.5-0.3,0.8
								c-0.2,0.5-0.6,0.8-1,1.1c-1.1,1-2.6,1.6-4.1,2c-1.8,0.5-4.1,0.7-5.7-0.6c-1-0.8-1.3-1.7-0.6-2.8c1.3-2,4.7-2.3,6.8-3
								c3.8-1.3,7.1-4,8.2-8c0.2-0.7,0.4-1.6,0.3-2.4C180.5,140.5,178.1,140.5,178.1,142.1L178.1,142.1z"/>
						</defs>
						<clipPath id="SVGID_1_">
							<use xlink:href="#SVGID_24_"  overflow="visible"/>
						</clipPath>
						<g clip-path="url(#SVGID_1_)">
							<rect x="169.7" y="115.5" fill="none" width="53.8" height="38"/>
							<rect x="169.7" y="115.5" fill="#2C110D" width="53.8" height="38"/>
						</g>
						<g clip-path="url(#SVGID_1_)">
							<rect x="169.7" y="153.4" fill="none" width="53.8" height="38"/>
							<rect x="169.7" y="153.4" fill="#2C110D" width="53.8" height="38"/>
						</g>
						<g clip-path="url(#SVGID_1_)">
							<rect x="115.9" y="115.5" fill="none" width="53.8" height="38"/>
							<rect x="115.9" y="115.5" fill="#2C110D" width="53.8" height="38"/>
						</g>
						<g clip-path="url(#SVGID_1_)">
							<rect x="115.9" y="153.4" fill="none" width="53.8" height="38"/>
							<rect x="115.9" y="153.4" fill="#2C110D" width="53.8" height="38"/>
						</g>
					</g>
				</g>
			</g>
		</g>
		<g>
			<path fill="#D79344" d="M170.1,140.8c0,0-0.5,2.2-3.1,4.7c-1.9,1.8-6.3,4.2-7.6,7c-2.8,5.8,1.4,13.9,9.1,13.6
				c9.5-0.4,13.7-3.1,10-9.3c0,0-18,8.1-13.8-1c3.2-6.9,12.2-4,13.3-10.6c1.1-6.7-3.4-4.3-3.4-4.3"/>
		</g>
		<g>
			<g>
				<g>
					<defs>
						<path id="SVGID_26_" d="M178.1,142.1c0,0.8,0,0.9-0.2,1.7c-0.4,1.5-1.2,2.8-2.3,3.9c-2,1.9-4.6,2.6-7.2,3.3
							c-2.1,0.6-4.3,1.6-5.5,3.6c-1.8,3.1,1.2,6.2,4.1,6.8c2.7,0.6,5.7-0.2,8.1-1.4c1.1-0.5,2.1-1.3,2.9-2.2
							c0.3-0.4,0.6-0.8,0.8-1.3c0.5-1.4-0.8,0.5-1.5,0.2c0.1,0.1,0.3,0.2,0,0c0.1,0.1,0.2,0.1,0.2,0.2c0.2,0.2,0.4,0.4,0.6,0.6
							c0.3,0.3,0,0,0.2,0.2c0.1,0.1,0.2,0.3,0.3,0.4c0.1,0.2,0.2,0.3,0.3,0.5c0.1,0.1,0.3,0.7,0.2,0.4c0.7,1.7,0.4,3.1-1.2,4.5
							c-1.3,1.1-3,1.8-4.6,2.3c-2.8,0.9-5.8,1.4-8.8,1.7c-3.9,0.4-8.1,0.2-11.5-1.8c-4.9-3-5-9.3-2.8-14c2.8-5.9,8.8-9.7,15.3-9.8
							c1.5,0,1.6-2.4,0-2.4c-7.1,0.1-13.7,4-17,10.3c-2.8,5.2-3.1,12.3,1.5,16.6c2.7,2.5,6.4,3.4,10,3.7c2.7,0.2,5.4-0.2,8.1-0.6
							c2.6-0.4,5.2-1,7.6-1.9c2.6-1,5.4-2.7,6.1-5.6c0.4-1.9-0.2-3.8-1.3-5.3c-0.7-1-2.4-3.2-3.6-1.5c-0.2,0.2-0.1,0.5-0.3,0.8
							c-0.2,0.5-0.6,0.8-1,1.1c-1.1,1-2.6,1.6-4.1,2c-1.8,0.5-4.1,0.7-5.7-0.6c-1-0.8-1.3-1.7-0.6-2.8c1.3-2,4.7-2.3,6.8-3
							c3.8-1.3,7.1-4,8.2-8c0.2-0.7,0.4-1.6,0.3-2.4C180.5,140.5,178.1,140.5,178.1,142.1L178.1,142.1z"/>
					</defs>
					<clipPath id="SVGID_3_">
						<use xlink:href="#SVGID_26_"  overflow="visible"/>
					</clipPath>
					<g clip-path="url(#SVGID_3_)">
						<rect x="180" y="127.9" fill="none" width="53.8" height="38"/>
						<rect x="180" y="127.9" fill="#2C110D" width="53.8" height="38"/>
					</g>
					<g clip-path="url(#SVGID_3_)">
						<rect x="180" y="165.9" fill="none" width="53.8" height="38"/>
						<rect x="180" y="165.9" fill="#2C110D" width="53.8" height="38"/>
					</g>
					<g clip-path="url(#SVGID_3_)">
						<rect x="126.2" y="127.9" fill="none" width="53.8" height="38"/>
						<rect x="126.2" y="127.9" fill="#2C110D" width="53.8" height="38"/>
					</g>
					<g clip-path="url(#SVGID_3_)">
						<rect x="126.2" y="165.9" fill="none" width="53.8" height="38"/>
						<rect x="126.2" y="165.9" fill="#2C110D" width="53.8" height="38"/>
					</g>
				</g>
			</g>
		</g>
		<g>
			<g>
				<path fill="#2C110D" d="M234.6,203.6c0-10.6-2.9-21-8.1-30.2c-5.2-9.2-12.8-16.8-21.6-22.6c-19-12.5-43.6-15.2-65.1-8.2
					c-20.3,6.7-37.4,22.3-44,42.8c-3.4,10.4-3.7,21.7-1.1,32.3c2.6,10.8,8.3,20.6,15.9,28.6c7.9,8.3,17.9,14.4,28.7,18.1
					c0.3,0.1,0.7,0.2,1,0.3c-0.3-0.1-0.6-0.5-0.4-0.3c0,0,0.1,0.1,0.1,0.1c0.2,0.2,0.4,0.4,0.5,0.6c0.7,0.8,1.4,1.6,2.1,2.4
					c2.3,2.6,4.6,5.2,6.8,7.8c4.5,5.1,9,10.3,13.5,15.4c0.6,0.7,1.9,0.7,2.6,0c7.3-8.6,14.7-17.3,22-25.9c0.1-0.1,0.2-0.3,0.3-0.4
					c0,0,0,0,0,0c-0.2,0.1-0.3,0.2-0.5,0.4c0.2-0.1,0.4-0.1,0.7-0.2c0.8-0.3,1.5-0.5,2.3-0.8c2.7-1,5.4-2.2,8-3.5
					c5.1-2.6,9.8-5.8,14.1-9.5c8.4-7.2,14.9-16.6,18.7-27C233.5,217.2,234.6,210.4,234.6,203.6c0-2.3-3.6-2.3-3.6,0
					c0,11-3.3,21.7-9.3,31c-6,9.3-14.6,16.8-24.3,22c-2.5,1.3-5.1,2.5-7.8,3.5c-1.3,0.5-2.9,0.8-4.1,1.4c-0.3,0.2-0.4,0.3-0.6,0.5
					c-1.4,1.7-2.8,3.4-4.3,5c-4.8,5.7-9.6,11.3-14.4,17c-1.2,1.4-2.3,2.7-3.5,4.1c0.9,0,1.7,0,2.6,0c-7.5-8.6-15-17.2-22.6-25.8
					c-0.7-0.8-1.5-1.1-2.6-1.5c-2.7-0.9-5.4-2-7.9-3.2c-5.1-2.4-9.8-5.5-14.1-9.1c-8.3-7-14.9-16.1-18.5-26.4
					c-3.6-10.2-4.1-21.3-1.5-31.8c2.4-10,7.6-19.1,14.6-26.5c15.3-16.2,38.2-23.3,60.1-20.8c21.2,2.5,41,14.8,51.3,33.7
					c4.5,8.3,6.9,17.6,6.9,27C231,205.9,234.6,205.9,234.6,203.6z"/>
			</g>
		</g>
		<g opacity="0.4">
			<g>
				<path fill="#CA3650" d="M207.9,201.3c0.9,0.4,2,0.4,2.8-0.3c0.6-0.6,0.8-1.3,0.2-2c-0.8-0.9-2.6-0.9-3.6-0.7
					c-1.4,0.2-2.7,0.7-3.6,1.9c-0.7,1-0.5,2.4,0.2,3.3c0.9,1,2.6,1.1,3.8,1.2c3.2,0.1,7,0.3,8.9-2.8c0.2-0.3-0.3-0.6-0.5-0.3
					c-1.4,2.4-3.8,2.4-6.3,2.5c-1.8,0-5.1,0.4-5.9-1.7c-0.9-2.4,2.4-3.5,4.1-3.5c0.7,0,3,0.2,2.5,1.3c-0.4,0.9-1.6,1-2.4,0.7
					C207.9,200.6,207.6,201.1,207.9,201.3L207.9,201.3z"/>
			</g>
		</g>
		<g opacity="0.4">
			<g>
				<path fill="#E04358" d="M119.9,200.7c-0.8,0.4-1.8,0.2-2.3-0.5c-0.9-1.1,1.6-1.5,2.2-1.5c2-0.1,5,1,4.4,3.5
					c-0.5,2-4.1,1.7-5.6,1.7c-2.6-0.1-5.1,0-6.5-2.5c-0.2-0.3-0.7,0-0.5,0.3c1.9,3.1,5.4,2.8,8.6,2.8c1.4,0,2.8-0.2,4-1
					c1-0.8,1-2.4,0.4-3.4c-1.2-1.9-5.3-2.8-7.1-1.3c-0.7,0.6-0.6,1.4,0,2c0.7,0.8,2,0.9,2.9,0.4
					C120.6,201.1,120.3,200.6,119.9,200.7L119.9,200.7z"/>
			</g>
		</g>
		<path fill="#170907" d="M129.3,218.8c0,0,56,0,68.9,0c0,0,0.1,30.3-35.5,30.3C128.7,249.1,129.3,218.8,129.3,218.8z"/>
		<g>
			<g>
				<path fill="#201410" d="M141.1,175.1c-0.4,0.2-0.7,0.3-1.2,0.3c-1.6,0-2.8-1.5-2.8-3.3c0-0.8,0.2-1.5,0.6-2
					c-1.8-0.5-3.8,0.8-4.8,3.3c-2.8,3.7-1.8,13.7-1,18c1.1,7.9,8.2,9.8,9.5,2.4c0.8-4.9,0.5-13.6-0.3-18.4
					C141.2,175.3,141.2,175.2,141.1,175.1z"/>
			</g>
			<g>
				<path fill="#201410" d="M193.8,175.4c-1.6,0-2.8-1.5-2.8-3.3c0-0.7,0.2-1.4,0.5-2c-2.1-0.7-4.5,0.8-5.2,5.3
					c-0.8,4.9-1.1,13.6-0.3,18.4c1.4,7.3,8.4,5.4,9.5-2.4c0.7-3.8,1.6-12.2-0.2-16.6C194.9,175.2,194.4,175.4,193.8,175.4z"/>
			</g>
		</g>
		<g>
			<defs>
				<path id="SVGID_28_" d="M129.3,218.8c0,0,56,0,68.9,0c0,0,0.1,30.3-35.5,30.3C128.7,249.1,129.3,218.8,129.3,218.8z"/>
			</defs>
			<clipPath id="SVGID_5_">
				<use xlink:href="#SVGID_28_"  overflow="visible"/>
			</clipPath>
			<path clip-path="url(#SVGID_5_)" fill="#BE1823" d="M136.2,241.6c0,0,23-15.1,57.6-5.8c0,0-3.1,12.9-28.8,14.5
				C139.3,251.8,136.2,241.6,136.2,241.6z"/>
			<path clip-path="url(#SVGID_5_)" fill="#FFFFFF" d="M142.6,218.6c0,0,21.8,13.5,47.7-0.8C190.3,217.9,153.9,210.8,142.6,218.6z"
				/>
		</g>
	</g>
	<g>
		<g>
			<path fill="none" stroke="#1E1E1C" stroke-width="2" stroke-miterlimit="10" d="M131.2,258.3c0.7,0.1,1.3,0.2,2,0.3"/>
			<path fill="none" stroke="#1E1E1C" stroke-width="2" stroke-miterlimit="10" stroke-dasharray="4.3666,10.9164" d="M144.1,259.8
				c13.1,1.5,26.6,2.6,40.2,3.6"/>
			<path fill="none" stroke="#1E1E1C" stroke-width="2" stroke-miterlimit="10" d="M189.7,263.8c0.7,0,1.3,0.1,2,0.1"/>
		</g>
	</g>
	<g>
		<polyline fill="#F9BE63" points="379.6,149.4 365.5,169.1 358,160.2 349.8,163.7 351.6,153.5 344.9,145.7 		"/>
		<polyline fill="#F28F43" points="351.6,153.5 350,163.4 355.7,158.4 378.2,149.8 		"/>
		<polyline fill="#C6743C" points="352.3,162.7 357.6,160.4 356.1,158.8 352.3,162.1 		"/>
		<g>
			<g>
				<defs>
					
						<rect id="SVGID_30_" x="341.4" y="139.3" transform="matrix(-0.8854 -0.4648 0.4648 -0.8854 605.1613 456.1642)" width="34.9" height="28.3"/>
				</defs>
				<clipPath id="SVGID_7_">
					<use xlink:href="#SVGID_30_"  overflow="visible"/>
				</clipPath>
				<path clip-path="url(#SVGID_7_)" d="M380.5,149.5C380.5,149.5,380.5,149.5,380.5,149.5C380.5,149.5,380.6,149.5,380.5,149.5
					C380.6,149.5,380.6,149.5,380.5,149.5C380.6,149.5,380.6,149.5,380.5,149.5L380.5,149.5C380.6,149.5,380.6,149.5,380.5,149.5
					C380.6,149.5,380.6,149.4,380.5,149.5c0-0.1,0-0.1,0.1-0.1c0,0,0,0,0,0l0,0c0,0,0,0,0,0c0,0,0,0,0,0c0,0,0,0,0,0c0,0,0,0,0,0
					l0,0c0,0,0,0,0,0c0,0,0,0,0,0c0,0,0,0,0,0c0,0,0,0,0,0c0,0,0,0,0,0c0,0,0,0,0,0l0,0l0,0c0,0,0,0,0,0c0,0,0,0,0,0c0,0,0,0,0,0
					c0,0,0,0,0,0c0,0,0,0,0,0l0,0c0,0,0,0,0,0c0,0,0,0,0,0c0,0,0,0,0,0c0,0,0,0,0,0c0,0,0,0,0,0c0,0,0,0,0,0c0,0,0,0,0,0
					c0,0,0,0,0,0c0,0,0,0,0,0c0,0,0,0,0,0c0,0,0,0,0,0c0,0,0,0,0,0c0,0,0,0,0,0c0,0,0,0,0,0c0,0,0,0,0,0c0,0,0,0,0,0c0,0,0,0,0,0
					c0,0,0,0,0,0c0,0,0,0,0,0c0,0,0,0,0,0c0,0,0,0,0,0c0,0,0,0,0,0c0,0,0,0,0,0l0,0c0,0,0,0,0,0c0,0,0,0,0,0c0,0,0,0,0,0
					c0,0,0,0,0,0c0,0,0,0,0,0c0,0,0,0,0,0c0,0,0,0,0,0c0,0,0,0,0,0c0,0,0,0,0,0c0,0,0,0,0,0c0,0,0,0,0,0l-36-4.1
					c-0.2,0-0.4,0.1-0.5,0.3c-0.1,0.2-0.1,0.4,0.1,0.6l7.1,8.1l-1.8,10.3c0,0,0,0,0,0l0,0c0,0,0,0,0,0.1c0,0,0,0,0,0c0,0,0,0,0,0.1
					c0,0,0,0,0,0s0,0,0,0l0,0c0,0,0,0,0,0c0,0,0,0,0,0c0,0,0,0,0,0l0,0c0,0,0,0,0,0c0,0,0,0,0,0s0,0,0,0c0,0,0,0,0,0l0,0
					c0,0,0,0,0,0c0,0,0,0,0,0c0,0,0,0,0,0.1c0,0,0,0,0,0l0,0c0,0,0,0,0,0c0,0,0,0,0,0c0,0,0,0,0,0c0,0,0,0,0.1,0c0,0,0,0,0,0
					c0,0,0,0,0,0c0,0,0,0,0.1,0c0,0,0,0,0,0c0,0,0,0,0.1,0c0,0,0,0,0,0c0,0,0,0,0,0c0,0,0,0,0.1,0c0,0,0,0,0,0c0,0,0,0,0,0
					c0,0,0,0,0,0c0,0,0,0,0,0c0,0,0,0,0,0c0,0,0,0,0,0c0,0,0,0,0,0c0,0,0,0,0,0c0,0,0,0,0,0c0,0,0,0,0,0c0,0,0,0,0,0c0,0,0,0,0,0
					c0,0,0,0,0,0c0,0,0,0,0,0c0,0,0,0,0,0c0,0,0,0,0,0c0,0,0,0,0.1,0c0,0,0,0,0,0c0,0,0,0,0,0c0,0,0,0,0,0l6-2.9
					c0.3-0.1,0.4-0.5,0.3-0.7c-0.1-0.3-0.5-0.4-0.7-0.3l-2.6,1.3l3-2.7l9.2,10.4c0,0,0.1,0.1,0.2,0.1c0.1,0,0.2,0.1,0.3,0.1
					c0.2,0,0.3-0.1,0.4-0.2L380.5,149.5C380.5,149.6,380.5,149.6,380.5,149.5C380.5,149.6,380.5,149.6,380.5,149.5
					C380.5,149.6,380.5,149.5,380.5,149.5L380.5,149.5z M375.9,149.3l-19,2.8c-0.3,0-0.5,0.3-0.5,0.6c0,0.2,0.1,0.3,0.3,0.4
					c0.1,0.1,0.2,0.1,0.3,0.1l18.2-2.6l-19.6,7.4c-0.1,0-0.1,0.1-0.2,0.1c0,0,0,0,0,0l-5,4.5l1.5-9c0-0.2,0-0.3-0.1-0.5l0,0
					l-6.3-7.2L375.9,149.3z M365.3,168.4l-8.6-9.7l21.9-8.2L365.3,168.4z M365.3,168.4"/>
			</g>
			<path d="M353.3,153.6c0.1,0.1,0.2,0.1,0.3,0.1l1.3-0.2c0.3,0,0.5-0.3,0.5-0.6c0-0.3-0.3-0.5-0.6-0.5l-1.3,0.2
				c-0.3,0-0.5,0.3-0.5,0.6C353.1,153.4,353.2,153.5,353.3,153.6L353.3,153.6z M353.3,153.6"/>
		</g>
	</g>
</g>
</svg>
