<?xml version="1.0" encoding="utf-8"?>
<!-- Generator: Adobe Illustrator 18.0.0, SVG Export Plug-In . SVG Version: 6.00 Build 0)  -->
<!DOCTYPE svg PUBLIC "-//W3C//DTD SVG 1.1//EN" "http://www.w3.org/Graphics/SVG/1.1/DTD/svg11.dtd">
<svg version="1.1" id="Camada_1" xmlns="http://www.w3.org/2000/svg" xmlns:xlink="http://www.w3.org/1999/xlink" x="0px" y="0px"
	 viewBox="0 0 411.7 411.7" enable-background="new 0 0 411.7 411.7" xml:space="preserve">
<g>
	<circle fill="#4DA933" stroke="#FFFFFF" stroke-width="3" stroke-miterlimit="10" cx="205.9" cy="205.9" r="159"/>
	<g>
		<path fill="#FFFFFF" d="M205.9,127.4c-43.3,0-78.4,35.1-78.4,78.4c0,43.3,35.1,78.4,78.4,78.4s78.4-35.1,78.4-78.4
			C284.3,162.5,249.2,127.4,205.9,127.4L205.9,127.4z M205.9,267.8c-34.2,0-62-27.8-62-62c0-34.2,27.8-62,62-62
			c34.2,0,62,27.8,62,62C267.8,240,240,267.8,205.9,267.8L205.9,267.8z M205.9,267.8"/>
		<path fill="#FFFFFF" d="M255.6,176.8c-0.4-0.7-1.2-1-2-0.8l-55.7,15.2c-0.3,0.1-0.6,0.2-0.8,0.5l-40.5,41.2
			c-0.6,0.6-0.7,1.5-0.3,2.2c0.4,0.7,1.2,1,2,0.8l55.7-15.2c0.2,0,0.3-0.1,0.4-0.2c0.1-0.1,0.3-0.2,0.4-0.3l40.5-41.2
			C255.9,178.4,256,177.5,255.6,176.8L255.6,176.8z M171.5,226l27.2-27.6l10.2,17.4L171.5,226z M171.5,226"/>
	</g>
</g>
</svg>
