<?xml version="1.0" encoding="utf-8"?>
<!-- Generator: Adobe Illustrator 18.0.0, SVG Export Plug-In . SVG Version: 6.00 Build 0)  -->
<!DOCTYPE svg PUBLIC "-//W3C//DTD SVG 1.1//EN" "http://www.w3.org/Graphics/SVG/1.1/DTD/svg11.dtd">
<svg version="1.1" id="Camada_1" xmlns="http://www.w3.org/2000/svg" xmlns:xlink="http://www.w3.org/1999/xlink" x="0px" y="0px"
	 viewBox="0 0 411.7 411.7" enable-background="new 0 0 411.7 411.7" xml:space="preserve">
<g>
	<g>
		<path fill="#ED6A42" d="M174.8,280.2c-22.7,0-44.6-8.3-61.6-23.3c-18.7-16.5-29.9-39.2-31.4-64.1c-1.6-24.9,6.6-48.8,23.1-67.5
			c17.7-20.1,43.2-31.6,70-31.6c22.7,0,44.6,8.3,61.6,23.3c18.7,16.5,29.9,39.2,31.4,64.1c1.6,24.9-6.6,48.8-23.1,67.5
			C227.1,268.7,201.6,280.2,174.8,280.2z M174.9,125.3c-17.7,0-34.6,7.6-46.3,20.9c-10.9,12.4-16.3,28.2-15.3,44.7
			c1,16.4,8.4,31.5,20.8,42.4c11.3,9.9,25.7,15.4,40.7,15.4c17.7,0,34.6-7.6,46.3-20.9c10.9-12.4,16.3-28.2,15.3-44.7
			c-1-16.4-8.4-31.5-20.8-42.4C204.3,130.7,189.9,125.3,174.9,125.3z"/>
	</g>
	<g>
		<g>
			<polygon fill="#ED6A42" points="220.6,218.7 220.8,218.8 220.7,218.7 			"/>
		</g>
		<g>
			<polygon fill="#ED6A42" points="297.9,263.7 244.5,232.6 237.6,240.7 275.1,289.6 307.3,318 330.2,292.1 			"/>
		</g>
	</g>
</g>
</svg>
