<?xml version="1.0" encoding="utf-8"?>
<!-- Generator: Adobe Illustrator 18.0.0, SVG Export Plug-In . SVG Version: 6.00 Build 0)  -->
<!DOCTYPE svg PUBLIC "-//W3C//DTD SVG 1.1//EN" "http://www.w3.org/Graphics/SVG/1.1/DTD/svg11.dtd">
<svg version="1.1" id="Camada_1" xmlns="http://www.w3.org/2000/svg" xmlns:xlink="http://www.w3.org/1999/xlink" x="0px" y="0px"
	 viewBox="0 0 411.7 411.7" enable-background="new 0 0 411.7 411.7" xml:space="preserve">
<g>
	<g>
		<path fill="#FFFFFF" d="M162.2,300.3c-31.8,0-62.6-11.6-86.5-32.7C21.5,219.9,16.3,137,64,82.8c24.9-28.2,60.7-44.4,98.3-44.4
			c31.8,0,62.6,11.6,86.5,32.7c54.2,47.7,59.5,130.6,11.7,184.8C235.7,284.1,199.8,300.3,162.2,300.3z M162.3,82.7
			c-24.9,0-48.6,10.7-65.1,29.4c-15.3,17.4-22.9,39.6-21.4,62.7c1.5,23.1,11.8,44.2,29.2,59.5c15.8,13.9,36.2,21.6,57.2,21.6
			c24.9,0,48.6-10.7,65.1-29.4c15.3-17.4,22.9-39.6,21.4-62.7c-1.5-23.1-11.8-44.2-29.2-59.5C203.7,90.4,183.4,82.7,162.3,82.7z"/>
	</g>
	<g>
		<g>
			<polygon fill="#FFFFFF" points="226.5,213.9 226.8,214.1 226.6,213.9 			"/>
		</g>
		<g>
			<polygon fill="#FFFFFF" points="335.1,277.1 260.1,233.5 250.4,244.9 303,313.6 348.3,353.4 380.4,317 			"/>
		</g>
	</g>
</g>
</svg>
