<?xml version="1.0" encoding="utf-8"?>
<!-- Generator: Adobe Illustrator 18.0.0, SVG Export Plug-In . SVG Version: 6.00 Build 0)  -->
<!DOCTYPE svg PUBLIC "-//W3C//DTD SVG 1.1//EN" "http://www.w3.org/Graphics/SVG/1.1/DTD/svg11.dtd">
<svg version="1.1" id="Camada_1" xmlns="http://www.w3.org/2000/svg" xmlns:xlink="http://www.w3.org/1999/xlink" x="0px" y="0px"
	 viewBox="0 0 411.7 411.7" enable-background="new 0 0 411.7 411.7" xml:space="preserve">
<g>
	<circle fill="#2072B9" stroke="#FFFFFF" stroke-width="3" stroke-miterlimit="10" cx="205.9" cy="205.9" r="159"/>
	<g>
		<path fill="#FFFFFF" stroke="#FFFFFF" stroke-width="3" stroke-miterlimit="10" d="M224,294h-36.3c-2.9,0-5.2-2.4-5.2-5.2V123
			c0-2.9,2.4-5.2,5.2-5.2H224c2.9,0,5.2,2.4,5.2,5.2v165.7C229.3,291.6,226.9,294,224,294z"/>
		<path fill="#FFFFFF" stroke="#FFFFFF" stroke-width="3" stroke-miterlimit="10" d="M117.8,224v-36.3c0-2.9,2.4-5.2,5.2-5.2h165.7
			c2.9,0,5.2,2.4,5.2,5.2V224c0,2.9-2.4,5.2-5.2,5.2H123C120.1,229.3,117.8,226.9,117.8,224z"/>
	</g>
</g>
</svg>
