<?xml version="1.0" encoding="utf-8"?>
<!-- Generator: Adobe Illustrator 18.0.0, SVG Export Plug-In . SVG Version: 6.00 Build 0)  -->
<!DOCTYPE svg PUBLIC "-//W3C//DTD SVG 1.1//EN" "http://www.w3.org/Graphics/SVG/1.1/DTD/svg11.dtd">
<svg version="1.1" id="Camada_1" xmlns="http://www.w3.org/2000/svg" xmlns:xlink="http://www.w3.org/1999/xlink" x="0px" y="0px"
	 viewBox="0 0 411.7 411.7" enable-background="new 0 0 411.7 411.7" xml:space="preserve">
<pattern  x="-3192.1" y="-634.4" width="172" height="121.4" patternUnits="userSpaceOnUse" id="Unnamed_Pattern_2" viewBox="0 -121.4 172 121.4" overflow="visible">
	<g>
		<polygon fill="none" points="0,-121.4 172,-121.4 172,0 0,0 		"/>
		<polygon fill="#2D1114" points="172,-121.4 0,-121.4 0,0 172,0 		"/>
	</g>
</pattern>
<g>
	<circle fill="#FFFFFF" cx="213.1" cy="169.9" r="120.6"/>
	<g>
		<circle fill="#878787" cx="213.1" cy="169.9" r="108.3"/>
		<g>
			<g>
				<path fill="#717070" d="M232.6,123.4c0.3-1.5,0.4-3.1,0.4-4.8c-0.2-4.7-1.8-8.9-4.5-12.3c-4.1-5.3-10.5-5.6-17.7-5.4
					c-7.5,0.3-14,1.3-17.7,7.1c-2.2,3.5-3.4,7.6-3.3,12.1c0.1,1.6,0.3,3.2,0.7,4.7C194,126,214.2,132.1,232.6,123.4"/>
				<path fill="#221317" d="M233.7,123.6c1.1-6-0.1-12.1-3.6-17.1c-3-4.3-7.5-6.1-12.5-6.6c-2.7-0.3-5.4-0.2-8.1-0.1
					c-2.6,0.1-5.2,0.4-7.7,1c-2.3,0.6-4.5,1.5-6.3,3c-2,1.6-3.5,3.7-4.6,6c-1.2,2.6-1.9,5.5-2.1,8.4c-0.1,1.5,0,3.1,0.3,4.6
					c0.2,1.2,0.2,2.6,1.5,3c2.9,0.9,5.8,1.6,8.8,2.1c11.1,1.9,23,1.3,33.3-3.5c0.2-0.1,0.4-0.2,0.6-0.3c1.2-0.6,0.1-2.4-1.1-1.8
					c-12.7,5.9-28.2,5.7-41.3,1.3c0.3,0.2,0.5,0.5,0.8,0.7c-1.5-5.8-0.5-12.5,3.4-17.2c3.2-3.9,8.5-4.8,13.3-5.2
					c5-0.4,10.7-0.7,15.4,1.5c5,2.4,7.7,8.3,8.3,13.6c0.2,2,0.1,4-0.3,6C231.3,124.5,233.4,125,233.7,123.6"/>
				
					<rect x="209.5" y="89.6" transform="matrix(0.9994 -3.403049e-002 3.403049e-002 0.9994 -3.0807 7.202)" fill="#94979E" width="1" height="8.9"/>
				
					<rect x="208.2" y="88.4" transform="matrix(0.9994 -3.403049e-002 3.403049e-002 0.9994 -3.0807 7.202)" fill="#221317" width="3.6" height="11.5"/>
				<path fill="#E68F27" d="M213,99.7c0,1.3-1.2,2.3-2.7,2.4c-1.5,0.1-2.8-0.9-2.8-2.2c0-1.3,1.2-2.3,2.7-2.4
					C211.7,97.5,213,98.5,213,99.7"/>
				<path fill="#221317" d="M210.3,103.1c-2.1,0.1-3.8-1.3-3.8-3.1c-0.1-1.8,1.6-3.3,3.6-3.4c2.1-0.1,3.8,1.3,3.8,3.1
					C214,101.5,212.4,103,210.3,103.1 M210.2,98.5c-1,0-1.8,0.7-1.8,1.4c0,0.7,0.9,1.3,1.9,1.3c1,0,1.8-0.7,1.8-1.4
					C212,99,211.2,98.4,210.2,98.5"/>
				<path fill="#EBAA46" d="M208.4,88.5c0,0-11.4-3.2-14.3-0.1c-2.9,3.1,12.6,3.8,14.4,0.7"/>
				<path fill="#221317" d="M201.8,92.3c-1.1,0-2.2,0-3.1-0.1c-3.5-0.3-5.6-1.1-6.1-2.5c-0.1-0.4-0.4-1.3,0.6-2.3
					c1.5-1.6,4.6-2.1,9.3-1.5c3.3,0.4,6.1,1.2,6.3,1.2l-0.5,1.7l1.3,0.7C208.4,91.6,204.9,92.2,201.8,92.3 M195.2,89
					c1.2,0.5,4.6,1,8.2,0.6c1-0.1,1.8-0.3,2.4-0.5c-1-0.2-2.4-0.5-3.7-0.6C197.7,88,195.9,88.6,195.2,89"/>
				<path fill="#EBAA46" d="M211.3,88.4c0,0,11.2-3.9,14.3-1.1c3.1,2.9-12.3,4.7-14.3,1.7"/>
				<path fill="#221317" d="M218.1,91.8c-3.1,0.1-6.7-0.3-7.9-2.1l1.2-0.8l-0.6-1.7c0.1,0,2.9-1,6.2-1.7c4.7-0.9,7.8-0.7,9.4,0.8
					c1,0.9,0.9,1.9,0.7,2.3c-0.4,1.4-2.4,2.4-5.9,2.9C220.4,91.6,219.3,91.7,218.1,91.8 M213.9,88.9c0.6,0.1,1.4,0.2,2.4,0.3
					c3.6,0.2,7-0.6,8.2-1.2c-0.7-0.4-2.5-0.9-6.9,0C216.2,88.3,214.9,88.6,213.9,88.9"/>
				<path fill="#E68F27" d="M211.3,88.7c0,0.8-0.6,1.5-1.4,1.5c-0.8,0-1.5-0.6-1.5-1.4c0-0.8,0.6-1.5,1.4-1.5
					C210.6,87.2,211.3,87.8,211.3,88.7"/>
				<path fill="#221317" d="M209.9,91.5c-1.5,0.1-2.8-1.1-2.9-2.7c-0.1-1.5,1.1-2.8,2.7-2.9c1.5-0.1,2.8,1.1,2.9,2.7
					C212.7,90.1,211.5,91.4,209.9,91.5 M209.8,88.5c-0.1,0-0.2,0.1-0.2,0.2c0,0.1,0.1,0.2,0.2,0.2c0.1,0,0.2-0.1,0.2-0.2
					C210.1,88.6,210,88.5,209.8,88.5"/>
				
					<rect x="209.5" y="89.6" transform="matrix(0.9994 -3.403049e-002 3.403049e-002 0.9994 -3.0807 7.202)" fill="#94979E" width="1" height="8.9"/>
				<path fill="#E68F27" d="M213,99.7c0,1.3-1.2,2.3-2.7,2.4c-1.5,0.1-2.8-0.9-2.8-2.2c0-1.3,1.2-2.3,2.7-2.4
					C211.7,97.5,213,98.5,213,99.7"/>
				<path fill="#221317" d="M210.3,103.4c-2.2,0.1-4.1-1.5-4.2-3.4c-0.1-2,1.7-3.6,3.9-3.7c2.2-0.1,4.1,1.5,4.2,3.4
					C214.3,101.7,212.6,103.3,210.3,103.4 M210.2,98.8c-0.8,0-1.5,0.5-1.5,1.1c0,0.5,0.7,1,1.5,1c0.8,0,1.5-0.5,1.5-1.1
					C211.7,99.2,211,98.8,210.2,98.8"/>
				<path fill="#E68F27" d="M213,99.7c0,1.3-1.2,2.3-2.7,2.4c-1.5,0.1-2.8-0.9-2.8-2.2c0-1.3,1.2-2.3,2.7-2.4
					C211.7,97.5,213,98.5,213,99.7"/>
				<path fill="#DADADA" d="M208.4,88.5c0,0-11.4-3.2-14.3-0.1c-2.9,3.1,12.6,3.8,14.4,0.7"/>
				<path fill="#C7C6C7" d="M211.3,88.4c0,0,11.2-3.9,14.3-1.1c3.1,2.9-12.3,4.7-14.3,1.7"/>
				<path fill="#9E9D9C" d="M208.1,88.1c0,0-6.6-1.2-8.4-1c0,0,0.5,3.7,8,2.8C207.6,89.8,208,89.6,208.1,88.1"/>
				<path fill="#878787" d="M212.2,88c0,0,4.7-1.5,8.6,2.3c0,0-6.3,0.8-8.8-0.7C212,89.6,212.3,88.6,212.2,88"/>
				<path fill="#E68F27" d="M211.3,88.7c0,0.8-0.6,1.5-1.4,1.5c-0.8,0-1.5-0.6-1.5-1.4c0-0.8,0.6-1.5,1.4-1.5
					C210.6,87.2,211.3,87.8,211.3,88.7"/>
				<path fill="#221317" d="M209.9,91.2c-1.3,0-2.5-1-2.5-2.4c0-1.3,1-2.5,2.4-2.5c1.3,0,2.5,1,2.5,2.4
					C212.3,90,211.3,91.1,209.9,91.2 M209.8,88.2c-0.3,0-0.5,0.3-0.5,0.5c0,0.3,0.3,0.5,0.5,0.5c0.3,0,0.5-0.3,0.5-0.5
					C210.4,88.4,210.1,88.2,209.8,88.2"/>
				<path fill="#B52934" d="M211.3,88.7c0,0.8-0.6,1.5-1.4,1.5c-0.8,0-1.5-0.6-1.5-1.4c0-0.8,0.6-1.5,1.4-1.5
					C210.6,87.2,211.3,87.8,211.3,88.7"/>
				<path fill="#3D3D3B" d="M203.9,101.8c0,0-5,10.5-3.2,19.7c0,0,15.8-2.8,20.3-0.1c4.5,2.7,0-21.4-3.5-21.2
					C214,100.4,203.9,101.8,203.9,101.8"/>
				<g opacity="0.6">
					<g>
						<defs>
							
								<rect id="SVGID_71_" x="211.2" y="100.5" transform="matrix(-0.9994 3.403045e-002 -3.403045e-002 -0.9994 447.821 220.4828)" width="21.6" height="27.1"/>
						</defs>
						<clipPath id="SVGID_1_">
							<use xlink:href="#SVGID_71_"  overflow="visible"/>
						</clipPath>
						<path clip-path="url(#SVGID_1_)" fill="#1E1E1C" d="M228.5,106.2c-4.1-5.3-10.5-5.6-17.7-5.4l0.9,27.1
							c6.5-0.1,13.9-1.3,20.9-4.6c0.3-1.5,0.4-3.1,0.4-4.8C232.8,113.9,231.2,109.7,228.5,106.2"/>
					</g>
				</g>
				<path fill="#2D1114" d="M234.2,123.7c1.1-6.1-0.1-12.4-3.7-17.5c-3.1-4.5-7.7-6.3-13-6.8c-2.7-0.3-5.4-0.2-8.1-0.1
					c-2.6,0.1-5.3,0.4-7.8,1c-2.3,0.6-4.6,1.6-6.5,3c-2.1,1.6-3.6,3.8-4.8,6.2c-1.3,2.7-2,5.6-2.1,8.6c-0.1,1.5,0,3.1,0.3,4.6
					c0.2,1.4,0.3,3,1.9,3.5c2.9,0.9,5.8,1.6,8.8,2.1c11.2,2,23.1,1.3,33.6-3.5c0.2-0.1,0.5-0.2,0.7-0.3c0.8-0.4,0.9-1.5,0.5-2.2
					c-0.5-0.8-1.4-0.9-2.2-0.5c-12.5,5.9-27.9,5.6-40.9,1.2c0.4,0.4,0.8,0.7,1.2,1.1c-1.4-5.6-0.4-12.1,3.3-16.7
					c3.1-3.8,8.3-4.7,12.9-5c4.9-0.4,10.5-0.7,15.1,1.4c4.8,2.3,7.5,8.1,8,13.1c0.2,1.9,0.1,3.9-0.2,5.8
					C230.7,125,233.8,125.8,234.2,123.7"/>
				<path fill="#C7C6C7" d="M274.5,174.7c-1-30.8-29.3-54.9-63.1-53.7c-33.8,1.2-60.3,27.1-59.3,57.9c0.8,24.4,18.7,44.5,42.8,51.3
					l21.2,22.6l19-24C258.9,220.4,275.4,199.1,274.5,174.7"/>
				<path fill="#221317" d="M276.1,174.7c-0.3-9.4-3.2-18.5-8.1-26.5c-4.9-8-11.9-14.5-19.8-19.4c-17.2-10.5-39.1-12.2-57.9-5.3
					c-17.8,6.5-32.5,20.9-37.7,39.2c-2.7,9.3-2.6,19.3,0,28.6c2.6,9.5,8,18,15,24.9c7.3,7.1,16.3,12.2,26,15.1
					c0.3,0.1,0.6,0.2,0.9,0.3c-0.3-0.1-0.5-0.4-0.4-0.3c0,0,0.1,0.1,0.1,0.1c0.2,0.2,0.3,0.4,0.5,0.5c0.6,0.7,1.3,1.4,1.9,2
					c2.1,2.2,4.2,4.5,6.3,6.7c4.1,4.4,8.3,8.8,12.4,13.3c0.6,0.6,1.7,0.6,2.3-0.1c6.2-7.9,12.5-15.8,18.7-23.6
					c0.1-0.1,0.2-0.2,0.3-0.4c0,0,0,0,0,0c-0.1,0.1-0.3,0.2-0.4,0.3c0.2-0.1,0.4-0.1,0.6-0.2c0.7-0.3,1.4-0.5,2-0.8
					c2.4-1,4.7-2.1,7-3.4c4.4-2.4,8.5-5.4,12.2-8.8c7.2-6.6,12.7-15.1,15.8-24.5C275.5,186.8,276.3,180.7,276.1,174.7
					c-0.1-2.1-3.3-2-3.2,0.1c0.3,9.8-2.3,19.4-7.3,27.7c-5,8.4-12.4,15.3-20.9,20.2c-2.2,1.3-4.5,2.4-6.8,3.3
					c-1.1,0.5-2.5,0.8-3.6,1.4c-0.2,0.1-0.3,0.3-0.5,0.5c-1.2,1.5-2.4,3.1-3.6,4.6c-4.1,5.2-8.2,10.3-12.3,15.5c-1,1.3-2,2.5-3,3.8
					l2.3-0.1c-6.9-7.4-13.8-14.8-20.8-22.2c-0.7-0.7-1.4-0.9-2.4-1.2c-2.4-0.7-4.8-1.6-7.1-2.6c-4.5-2-8.9-4.6-12.8-7.6
					c-7.6-6-13.7-13.8-17.2-22.9c-3.5-8.9-4.3-18.8-2.3-28.2c1.8-8.9,6.2-17.1,12.2-24c13-14.8,33.1-21.8,52.6-20.2
					c18.8,1.6,36.8,11.9,46.5,28.3c4.2,7.2,6.6,15.4,6.9,23.7C273,176.9,276.2,176.8,276.1,174.7"/>
				<g opacity="0.7">
					<g>
						<defs>
							
								<rect id="SVGID_73_" x="213.9" y="120.6" transform="matrix(-0.9994 3.403045e-002 -3.403045e-002 -0.9994 494.1712 363.4402)" width="60.2" height="130.6"/>
						</defs>
						<clipPath id="SVGID_2_">
							<use xlink:href="#SVGID_73_"  overflow="visible"/>
						</clipPath>
						<path clip-path="url(#SVGID_2_)" fill="#9E9D9C" d="M211.7,121.7l4.4,130.6l19.3-23.7c0,0,44.4-15.3,37.6-59.8
							C266.5,125.5,232.6,124.5,211.7,121.7"/>
					</g>
				</g>
				<path fill="#DADADA" d="M225.3,121.9c0,0,0.6,6.5-8.1,8.9c-8.6,2.4-5.3,7.4-1.3,7.6c3.9,0.2,8.3-2.5,8.5-4.5
					c0-0.5,10.8,8.7-11.1,11.9c-23.6,3.4-17.8-24.2-0.2-24.8"/>
			</g>
			<g>
				<defs>
					<path id="SVGID_75_" d="M213,119.9c-6.3,0.3-12,4-14.8,9.6c-2.3,4.7-2.4,10.9,1.8,14.6c2.5,2.1,5.8,2.9,8.9,2.9
						c2.4,0.1,4.8-0.3,7.2-0.8c2.3-0.4,4.5-1,6.7-1.9c2.2-1,4.7-2.5,5.2-5.1c0.3-1.7-0.3-3.4-1.3-4.7c-0.7-0.9-2.2-2.7-3.3-1.3
						c-0.1,0.2-0.1,0.5-0.2,0.7c-0.2,0.4-0.5,0.7-0.8,1c-1,0.9-2.3,1.5-3.5,1.9c-1.6,0.5-3.6,0.7-5-0.3c-0.9-0.7-1.2-1.5-0.6-2.4
						c1.1-1.9,4.1-2.2,5.9-2.9c3.3-1.3,6.2-3.8,7-7.3c0.2-0.7,0.3-1.4,0.2-2.1c-0.1-1.4-2.2-1.3-2.1,0.1c0.1,0.7,0,0.8-0.2,1.5
						c-0.3,1.3-1,2.5-1.9,3.5c-1.7,1.8-4,2.4-6.3,3.2c-1.8,0.6-3.8,1.6-4.7,3.3c-1.5,2.8,1.2,5.4,3.8,5.9c2.4,0.5,5-0.4,7.1-1.5
						c0.9-0.5,1.8-1.2,2.5-2c0.1-0.1,0.1-0.2,0.2-0.2c0,0,0,0,0,0c0,0,0,0,0.1,0.1c0.1,0.1,0.2,0.3,0.3,0.4c0.1,0.1,0.2,0.3,0.3,0.4
						c0.1,0.1,0.3,0.6,0.2,0.4c0.7,1.5,0.4,2.7-0.9,4c-1.1,1-2.6,1.6-4,2.1c-2.5,0.9-5.1,1.4-7.7,1.7c-3.4,0.5-7.2,0.5-10.2-1.3
						c-4.4-2.5-4.7-8.1-2.9-12.3c2.3-5.3,7.5-8.9,13.3-9.1C214.4,122,214.4,119.9,213,119.9C213,119.9,213,119.9,213,119.9"/>
				</defs>
				<clipPath id="SVGID_4_">
					<use xlink:href="#SVGID_75_"  overflow="visible"/>
				</clipPath>
				
					<rect x="187.6" y="111.5" transform="matrix(0.9994 -3.403049e-002 3.403049e-002 0.9994 -4.2438 7.2709)" clip-path="url(#SVGID_4_)" fill="#2D1114" width="47.7" height="33.7"/>
				
					<rect x="188.8" y="145.1" transform="matrix(0.9994 -3.403049e-002 3.403049e-002 0.9994 -5.388 7.3293)" clip-path="url(#SVGID_4_)" fill="#2D1114" width="47.7" height="33.7"/>
			</g>
			<path fill="#9E9D9C" d="M217.1,121.1c0,0-0.4,2-2.6,4.3c-1.6,1.6-5.4,3.9-6.5,6.4c-2.3,5.3,1.7,12.3,8.4,11.8
				c8.4-0.6,12.1-3.2,8.6-8.5c0,0-15.7,7.7-12.2-0.5c2.7-6.2,10.7-3.9,11.5-9.8c0.8-5.9-3.1-3.7-3.1-3.7"/>
			<g>
				<defs>
					<path id="SVGID_77_" d="M213,119.9c-6.3,0.3-12,4-14.8,9.6c-2.3,4.7-2.4,10.9,1.8,14.6c2.5,2.1,5.8,2.9,8.9,2.9
						c2.4,0.1,4.8-0.3,7.2-0.8c2.3-0.4,4.5-1,6.7-1.9c2.2-1,4.7-2.5,5.2-5.1c0.3-1.7-0.3-3.4-1.3-4.7c-0.7-0.9-2.2-2.7-3.3-1.3
						c-0.1,0.2-0.1,0.5-0.2,0.7c-0.2,0.4-0.5,0.7-0.8,1c-1,0.9-2.3,1.5-3.5,1.9c-1.6,0.5-3.6,0.7-5-0.3c-0.9-0.7-1.2-1.5-0.6-2.4
						c1.1-1.9,4.1-2.2,5.9-2.9c3.3-1.3,6.2-3.8,7-7.3c0.2-0.7,0.3-1.4,0.2-2.1c-0.1-1.4-2.2-1.3-2.1,0.1c0.1,0.7,0,0.8-0.2,1.5
						c-0.3,1.3-1,2.5-1.9,3.5c-1.7,1.8-4,2.4-6.3,3.2c-1.8,0.6-3.8,1.6-4.7,3.3c-1.5,2.8,1.2,5.4,3.8,5.9c2.4,0.5,5-0.4,7.1-1.5
						c0.9-0.5,1.8-1.2,2.5-2c0.1-0.1,0.1-0.2,0.2-0.2c0,0,0,0,0,0c0,0,0,0,0.1,0.1c0.1,0.1,0.2,0.3,0.3,0.4c0.1,0.1,0.2,0.3,0.3,0.4
						c0.1,0.1,0.3,0.6,0.2,0.4c0.7,1.5,0.4,2.7-0.9,4c-1.1,1-2.6,1.6-4,2.1c-2.5,0.9-5.1,1.4-7.7,1.7c-3.4,0.5-7.2,0.5-10.2-1.3
						c-4.4-2.5-4.7-8.1-2.9-12.3c2.3-5.3,7.5-8.9,13.3-9.1C214.4,122,214.4,119.9,213,119.9C213,119.9,213,119.9,213,119.9"/>
				</defs>
				<clipPath id="SVGID_6_">
					<use xlink:href="#SVGID_77_"  overflow="visible"/>
				</clipPath>
				
					<rect x="195.9" y="88.5" transform="matrix(0.9994 -3.403049e-002 3.403049e-002 0.9994 -3.4587 7.5394)" clip-path="url(#SVGID_6_)" fill="#2D1114" width="47.7" height="33.7"/>
				
					<rect x="197.1" y="122.2" transform="matrix(0.9994 -3.403049e-002 3.403049e-002 0.9994 -4.6029 7.5979)" clip-path="url(#SVGID_6_)" fill="#2D1114" width="47.7" height="33.7"/>
				
					<rect x="148.3" y="90.2" transform="matrix(0.9994 -3.403049e-002 3.403049e-002 0.9994 -3.5415 5.9187)" clip-path="url(#SVGID_6_)" fill="#2D1114" width="47.7" height="33.7"/>
				
					<rect x="149.4" y="123.8" transform="matrix(0.9994 -3.403049e-002 3.403049e-002 0.9994 -4.6857 5.9772)" clip-path="url(#SVGID_6_)" fill="#2D1114" width="47.7" height="33.7"/>
			</g>
			<path fill="#2D1114" d="M276.1,174.7c-0.3-9.4-3.2-18.5-8.1-26.5c-4.9-8-11.9-14.5-19.8-19.4c-17.2-10.5-39.1-12.2-57.9-5.3
				c-17.8,6.5-32.5,20.9-37.7,39.2c-2.7,9.3-2.6,19.3,0,28.6c2.6,9.5,8,18,15,24.9c7.3,7.1,16.3,12.2,26,15.1
				c0.3,0.1,0.6,0.2,0.9,0.3c-0.3-0.1-0.5-0.4-0.4-0.3c0,0,0.1,0.1,0.1,0.1c0.2,0.2,0.3,0.4,0.5,0.5c0.6,0.7,1.3,1.4,1.9,2
				c2.1,2.2,4.2,4.5,6.3,6.7c4.1,4.4,8.3,8.8,12.4,13.3c0.6,0.6,1.7,0.6,2.3-0.1c6.2-7.9,12.5-15.8,18.7-23.6
				c0.1-0.1,0.2-0.2,0.3-0.4c0,0,0,0,0,0c-0.1,0.1-0.3,0.2-0.4,0.3c0.2-0.1,0.4-0.1,0.6-0.2c0.7-0.3,1.4-0.5,2-0.8
				c2.4-1,4.7-2.1,7-3.4c4.4-2.4,8.5-5.4,12.2-8.8c7.2-6.6,12.7-15.1,15.8-24.5C275.5,186.8,276.3,180.7,276.1,174.7
				c-0.1-2.1-3.3-2-3.2,0.1c0.3,9.8-2.3,19.4-7.3,27.7c-5,8.4-12.4,15.3-20.9,20.2c-2.2,1.3-4.5,2.4-6.8,3.3
				c-1.1,0.5-2.5,0.8-3.6,1.4c-0.2,0.1-0.3,0.3-0.5,0.5c-1.2,1.5-2.4,3.1-3.6,4.6c-4.1,5.2-8.2,10.3-12.3,15.5c-1,1.3-2,2.5-3,3.8
				l2.3-0.1c-6.9-7.4-13.8-14.8-20.8-22.2c-0.7-0.7-1.4-0.9-2.4-1.2c-2.4-0.7-4.8-1.6-7.1-2.6c-4.5-2-8.9-4.6-12.8-7.6
				c-7.6-6-13.7-13.8-17.2-22.9c-3.5-8.9-4.3-18.8-2.3-28.2c1.8-8.9,6.2-17.1,12.2-24c13-14.8,33.1-21.8,52.6-20.2
				c18.8,1.6,36.8,11.9,46.5,28.3c4.2,7.2,6.6,15.4,6.9,23.7C273,176.9,276.2,176.8,276.1,174.7"/>
			<path fill="#FFFFFF" d="M250.7,183.7c0,0-29.7-1.9-37.1-1.5c-7.4,0.1-37,4-37,4C177.1,232.4,253.3,229.8,250.7,183.7"/>
			
				<pattern  id="SVGID_8_" xlink:href="#Unnamed_Pattern_2" patternTransform="matrix(4.182059e-002 0 0 -4.182056e-002 -2912.999 -6786.79)">
			</pattern>
			<path fill="url(#SVGID_8_)" d="M214.8,220.6c-11.4,0.4-22.1-3.3-29.3-10.2c-6.4-6.1-9.8-14.4-9.9-24l0-0.8l0.8-0.1
				c1.2-0.2,29.6-4,37.1-4c7.4-0.4,36.1,1.4,37.2,1.5l0.8,0.1l0,0.8c0.5,9.6-2.3,18.2-8.2,24.6C236.7,215.7,226.3,220.2,214.8,220.6
				 M177.6,187.1c0.3,8.8,3.5,16.3,9.3,21.8c6.8,6.5,17,10.1,27.9,9.7c10.9-0.4,20.8-4.6,27.2-11.6c5.4-5.9,8.1-13.6,7.8-22.4
				c-4.9-0.3-29.6-1.8-36.2-1.4l0,0l0,0C207,183.2,182.4,186.5,177.6,187.1"/>
			<g opacity="0.3">
				<g>
					<defs>
						
							<rect id="SVGID_79_" x="214.4" y="181.6" transform="matrix(-0.9994 3.403045e-002 -3.403045e-002 -0.9994 472.5205 392.5127)" width="37.1" height="37.4"/>
					</defs>
					<clipPath id="SVGID_10_">
						<use xlink:href="#SVGID_79_"  overflow="visible"/>
					</clipPath>
					<path clip-path="url(#SVGID_10_)" fill="#B9BAC0" d="M213.8,182.2l1.3,37.4c0,0,35.5-1.2,35.9-35.9L213.8,182.2z"/>
				</g>
			</g>
			
				<pattern  id="SVGID_12_" xlink:href="#Unnamed_Pattern_2" patternTransform="matrix(4.182059e-002 0 0 -4.182056e-002 -2912.999 -6786.79)">
			</pattern>
			<path fill="url(#SVGID_12_)" d="M214.8,220.6c-11.4,0.4-22.1-3.3-29.3-10.2c-6.4-6.1-9.8-14.4-9.9-24l0-0.8l0.8-0.1
				c1.2-0.2,29.6-4,37.1-4c7.4-0.4,36.1,1.4,37.2,1.5l0.8,0.1l0,0.8c0.5,9.6-2.3,18.2-8.2,24.6C236.7,215.7,226.3,220.2,214.8,220.6
				 M177.6,187.1c0.3,8.8,3.5,16.3,9.3,21.8c6.8,6.5,17,10.1,27.9,9.7c10.9-0.4,20.8-4.6,27.2-11.6c5.4-5.9,8.1-13.6,7.8-22.4
				c-4.9-0.3-29.6-1.8-36.2-1.4l0,0l0,0C207,183.2,182.4,186.5,177.6,187.1"/>
			<g opacity="0.4">
				<g>
					<defs>
						
							<rect id="SVGID_81_" x="248.3" y="170.6" transform="matrix(-0.9994 3.403045e-002 -3.403045e-002 -0.9994 514.2476 338.267)" width="11.9" height="5.7"/>
					</defs>
					<clipPath id="SVGID_14_">
						<use xlink:href="#SVGID_81_"  overflow="visible"/>
					</clipPath>
					<path clip-path="url(#SVGID_14_)" fill="#3D3D3B" d="M252.4,173.5c0.8,0.4,1.8,0.3,2.4-0.4c0.5-0.5,0.7-1.2,0.2-1.8
						c-0.7-0.8-2.3-0.7-3.2-0.5c-1.2,0.2-2.4,0.7-3.1,1.8c-0.6,0.9-0.4,2.1,0.3,2.9c0.8,0.9,2.3,0.9,3.4,0.9c2.8,0,6.2,0.1,7.8-2.7
						c0.2-0.3-0.3-0.6-0.5-0.3c-1.2,2.1-3.3,2.3-5.5,2.4c-1.6,0.1-4.5,0.5-5.2-1.3c-0.9-2.1,2-3.1,3.6-3.2c0.6,0,2.7,0.1,2.3,1.1
						c-0.3,0.8-1.4,0.9-2.1,0.7C252.3,172.9,252.1,173.3,252.4,173.5"/>
				</g>
			</g>
			<g opacity="0.4">
				<g>
					<defs>
						
							<rect id="SVGID_83_" x="167" y="173.3" transform="matrix(-0.9994 3.403045e-002 -3.403045e-002 -0.9994 351.713 346.4766)" width="11.9" height="5.8"/>
					</defs>
					<clipPath id="SVGID_16_">
						<use xlink:href="#SVGID_83_"  overflow="visible"/>
					</clipPath>
					<path clip-path="url(#SVGID_16_)" fill="#3D3D3B" d="M174.5,175.7c-0.7,0.4-1.6,0.2-2.1-0.4c-0.8-1,1.4-1.3,1.9-1.4
						c1.8-0.1,4.4,0.8,4,3c-0.4,1.8-3.6,1.6-4.9,1.6c-2.3,0-4.5,0.1-5.9-2c-0.2-0.3-0.6,0-0.5,0.3c1.7,2.7,4.9,2.3,7.7,2.2
						c1.2-0.1,2.5-0.2,3.5-1c0.9-0.7,0.8-2.2,0.2-3.1c-1.1-1.6-4.8-2.3-6.3-0.9c-0.6,0.5-0.5,1.3,0,1.8c0.7,0.7,1.8,0.7,2.6,0.3
						C175.1,176,174.8,175.5,174.5,175.7"/>
				</g>
			</g>
			<path fill="#C6BBBB" d="M239.3,196.8c-1.1,1.5-36.3,3-49.3,1.7"/>
			<path fill="#2D1114" d="M250.5,158.6c-6.6-3.6-15.1-2.7-21.5,0.7c-1.5,0.8-0.2,3,1.3,2.4c0.4-0.1,1.2-0.3,2.4-0.6
				c0.8-0.2,1.7-0.4,2.7-0.5c0.5-0.1,1-0.2,1.5-0.2c0.5-0.1,1-0.1,1.6-0.2c0.5-0.1,1-0.1,1.6-0.1c0.5,0,1,0,1.5,0c0.5,0,1,0,1.4,0.1
				c0.4,0.1,0.9,0.1,1.2,0.2c0.4,0.1,0.7,0.2,1,0.3c0.3,0.1,0.6,0.2,0.8,0.3c0.2,0.1,0.4,0.2,0.5,0.2c0.1,0.1,0.2,0.1,0.2,0.1
				s-0.1,0-0.2-0.1c-0.1-0.1-0.2-0.2-0.4-0.3c-0.2-0.1-0.4-0.3-0.7-0.4c-0.3-0.2-0.6-0.3-1-0.4c-0.2-0.1-0.4-0.1-0.6-0.2
				c-0.2-0.1-0.4-0.1-0.7-0.2c-0.5-0.1-0.9-0.2-1.5-0.2c-0.3,0-0.5,0-0.8,0c-0.3,0-0.5,0-0.8,0c-0.5,0-1,0-1.5,0.1
				c-0.6,0-1.4,0.1-1.6,0c4.2-0.8,8.7-0.4,12.4,1.6C250.7,161.9,252.1,159.5,250.5,158.6"/>
			<path fill="#2D1114" d="M198.5,160.4c-6.6-3-15.1-3.3-21.5,0.7c-1.5,1,0,3.3,1.5,2.4c3.6-2.3,8-2.9,12.3-2.4
				c-0.2,0.1-1,0.1-1.6,0.1c-0.5,0-1,0-1.5,0c-0.3,0-0.5,0-0.8,0.1c-0.3,0-0.5,0.1-0.8,0.1c-0.5,0.1-1,0.2-1.4,0.3
				c-0.2,0.1-0.4,0.1-0.7,0.2c-0.2,0.1-0.4,0.2-0.6,0.2c-0.4,0.2-0.7,0.3-1,0.5c-0.3,0.2-0.5,0.3-0.7,0.5c-0.2,0.1-0.3,0.3-0.4,0.3
				c-0.1,0.1-0.1,0.1-0.1,0.1s0.1,0,0.2-0.1c0.1-0.1,0.3-0.1,0.5-0.2c0.2-0.1,0.5-0.2,0.8-0.3c0.3-0.1,0.6-0.2,1-0.3
				c0.4-0.1,0.8-0.2,1.2-0.3c0.4-0.1,0.9-0.1,1.4-0.2c0.5,0,1-0.1,1.5-0.1c0.5,0,1,0,1.6,0c0.5,0,1,0,1.6,0.1c0.5,0,1,0.1,1.5,0.1
				c1,0.1,1.9,0.2,2.7,0.3c1.2,0.2,2,0.3,2.4,0.4C199,163.4,200.1,161.1,198.5,160.4"/>
		</g>
	</g>
</g>
</svg>
