<?xml version="1.0" encoding="utf-8"?>
<!-- Generator: Adobe Illustrator 18.0.0, SVG Export Plug-In . SVG Version: 6.00 Build 0)  -->
<!DOCTYPE svg PUBLIC "-//W3C//DTD SVG 1.1//EN" "http://www.w3.org/Graphics/SVG/1.1/DTD/svg11.dtd">
<svg version="1.1" id="Camada_1" xmlns="http://www.w3.org/2000/svg" xmlns:xlink="http://www.w3.org/1999/xlink" x="0px" y="0px"
	 viewBox="0 0 411.7 411.7" enable-background="new 0 0 411.7 411.7" xml:space="preserve">
<g>
	<g>
		<g>
			<g>
				<path fill="#813F90" d="M245.7,90.3c0.7-2.9,1-5.9,1-9c0-8.8-2.8-16.9-7.7-23.6c-7.4-10.2-19.5-11.3-33.2-11.3
					c-14.1,0-26.6,1.5-33.9,12.3c-4.4,6.4-7,14.2-7,22.6c0,3.1,0.4,6.1,1,9C172.6,92.8,210.4,105.6,245.7,90.3z"/>
			</g>
			<g>
				<g>
					<path fill="#1E110C" d="M247.7,90.9c2.5-11.2,0.5-22.9-5.7-32.6c-5.4-8.3-13.7-12-23.2-13.3c-5.1-0.7-10.2-0.7-15.4-0.6
						c-4.9,0.1-9.8,0.4-14.6,1.4c-4.3,0.9-8.6,2.6-12.2,5.2c-4,2.9-6.8,6.8-9,11.1c-2.5,4.9-3.9,10.2-4.4,15.7
						c-0.3,2.9-0.2,5.9,0.2,8.8c0.3,2.2,0.2,4.9,2.6,5.8c5.3,2,10.9,3.4,16.4,4.6c20.9,4.4,43.3,3.9,63.2-4.4
						c0.4-0.2,0.8-0.3,1.2-0.5c2.4-1,0.3-4.5-2-3.5c-24.3,10.4-53.6,8.9-78.2-0.3c0.5,0.5,0.9,0.9,1.4,1.4
						c-2.4-11-0.1-23.6,7.5-32.3c6.3-7.2,16.4-8.6,25.4-9c9.5-0.4,20.3-0.6,28.9,3.8c9.3,4.8,14.1,16.3,14.8,26.2
						c0.3,3.8-0.1,7.6-0.9,11.2C243.2,92.3,247.1,93.4,247.7,90.9z"/>
				</g>
			</g>
		</g>
		<g>
			<g>
				<rect x="203.9" y="25.1" fill="#9B9BA0" width="1.9" height="16.9"/>
				<rect x="201.5" y="22.7" fill="#1E110C" width="6.8" height="21.8"/>
			</g>
			<g>
				<ellipse fill="#E59303" cx="204.9" cy="44.4" rx="5.2" ry="4.4"/>
				<path fill="#1E110C" d="M204.9,50.5c-3.9,0-7.1-2.8-7.1-6.2c0-3.4,3.2-6.2,7.1-6.2c3.9,0,7.1,2.8,7.1,6.2
					C212,47.8,208.8,50.5,204.9,50.5z M204.9,41.8c-1.9,0-3.4,1.2-3.4,2.5c0,1.4,1.6,2.5,3.4,2.5c1.9,0,3.4-1.2,3.4-2.5
					C208.3,43,206.8,41.8,204.9,41.8z"/>
			</g>
			<g>
				<path fill="#ECB043" d="M202.1,22.8c0,0-21.4-6.7-27.1-1.1c-5.7,5.6,23.5,8,27.1,2.3"/>
				<path fill="#1E110C" d="M189.4,29.7c-2.2,0-4.2-0.1-5.9-0.3c-6.7-0.7-10.5-2.4-11.4-5.1c-0.2-0.7-0.6-2.5,1.2-4.3
					c3-2.9,8.8-3.6,17.8-2.2c6.2,1,11.5,2.7,11.8,2.7l-1,3.3l2.4,1.5C202,28.7,195.3,29.7,189.4,29.7z M177.2,23
					c2.2,1.1,8.7,2.3,15.5,1.7c1.9-0.2,3.4-0.4,4.5-0.7c-2-0.5-4.4-1-7-1.5C181.9,21.2,178.6,22.2,177.2,23z"/>
			</g>
			<g>
				<path fill="#ECB043" d="M207.7,22.8c0,0,21.4-6.7,27.1-1.1c5.7,5.6-23.5,8-27.1,2.3"/>
				<path fill="#1E110C" d="M220.4,29.7c-5.9,0-12.6-1-14.7-4.4l2.4-1.5l-1-3.3c0.2-0.1,5.6-1.7,11.8-2.7c9-1.5,14.8-0.7,17.8,2.2
					c1.9,1.8,1.5,3.6,1.2,4.3c-0.9,2.6-4.7,4.3-11.4,5.1C224.6,29.5,222.6,29.7,220.4,29.7z M212.5,24c1.1,0.3,2.6,0.6,4.5,0.7
					c6.8,0.5,13.3-0.6,15.5-1.7c-1.3-0.8-4.7-1.8-13-0.4C216.9,23,214.5,23.5,212.5,24z"/>
			</g>
			<g>
				<circle fill="#E59303" cx="204.9" cy="23.4" r="2.8"/>
				<path fill="#1E110C" d="M204.9,28.6c-2.9,0-5.2-2.3-5.2-5.2s2.3-5.2,5.2-5.2c2.9,0,5.2,2.3,5.2,5.2S207.8,28.6,204.9,28.6z
					 M204.9,23c-0.2,0-0.4,0.2-0.4,0.4s0.2,0.4,0.4,0.4c0.2,0,0.4-0.2,0.4-0.4S205.1,23,204.9,23z"/>
			</g>
		</g>
		<g>
			<g>
				<rect x="203.9" y="25.1" fill="#9B9BA0" width="1.9" height="16.9"/>
			</g>
			<g>
				<ellipse fill="#E59303" cx="204.9" cy="44.4" rx="5.2" ry="4.4"/>
				<path fill="#1E110C" d="M204.9,51.1c-4.2,0-7.7-3-7.7-6.8c0-3.7,3.4-6.8,7.7-6.8c4.2,0,7.7,3,7.7,6.8
					C212.6,48.1,209.1,51.1,204.9,51.1z M204.9,42.4c-1.5,0-2.8,0.9-2.8,1.9c0,1,1.3,1.9,2.8,1.9c1.5,0,2.8-0.9,2.8-1.9
					C207.7,43.4,206.4,42.4,204.9,42.4z"/>
			</g>
			<g>
				<ellipse fill="#E59303" cx="204.9" cy="44.4" rx="5.2" ry="4.4"/>
			</g>
			<g>
				<path fill="#ECB043" d="M202.1,22.8c0,0-21.4-6.7-27.1-1.1c-5.7,5.6,23.5,8,27.1,2.3"/>
			</g>
			<g>
				<path fill="#DF9406" d="M207.7,22.8c0,0,21.4-6.7,27.1-1.1c5.7,5.6-23.5,8-27.1,2.3"/>
			</g>
			<g>
				<path fill="#E59303" d="M201.6,22.1c0,0-12.4-2.7-15.8-2.5c0,0,0.7,7,14.9,5.7C200.6,25.3,201.3,25,201.6,22.1z"/>
			</g>
			<g>
				<path fill="#CF7F10" d="M209.4,22.2c0,0,9-2.6,16.1,4.9c0,0-12,1.1-16.6-1.9C208.9,25.1,209.5,23.2,209.4,22.2z"/>
			</g>
			<g>
				<circle fill="#E59303" cx="204.9" cy="23.4" r="2.8"/>
				<path fill="#1E110C" d="M204.9,28c-2.6,0-4.6-2.1-4.6-4.6s2.1-4.6,4.6-4.6s4.6,2.1,4.6,4.6S207.4,28,204.9,28z M204.9,22.4
					c-0.6,0-1,0.5-1,1s0.5,1,1,1c0.6,0,1-0.5,1-1S205.4,22.4,204.9,22.4z"/>
			</g>
			<g>
				<circle fill="#B21827" cx="204.9" cy="23.4" r="2.8"/>
			</g>
		</g>
		<g>
			<path fill="#5D256E" d="M192.7,47.7c0,0-10.1,19.6-7.3,37.1c0,0,30-4.2,38.4,1.1c8.4,5.3,1.4-40.4-5.2-40.3
				C212,45.7,192.7,47.7,192.7,47.7z"/>
		</g>
		<g opacity="0.6">
			<g>
				<path fill="#402155" d="M239.1,57.7c-7.4-10.2-19.5-11.3-33.2-11.3v51.3c12.4,0.2,26.3-1.5,39.9-7.3c0.7-2.9,1-5.9,1-9
					C246.7,72.5,243.9,64.3,239.1,57.7z"/>
			</g>
		</g>
		<g>
			<g>
				<path fill="#2C110D" d="M248.6,91.1c2.5-11.5,0.6-23.4-5.8-33.3c-5.6-8.6-14.2-12.4-24.1-13.8c-5.1-0.7-10.2-0.7-15.4-0.6
					c-5,0.1-10,0.4-14.9,1.5c-4.4,0.9-8.7,2.7-12.4,5.3c-4.1,3-7.1,7-9.4,11.5c-2.6,5-4.1,10.5-4.6,16.2c-0.3,2.9-0.2,5.9,0.2,8.8
					c0.3,2.8,0.4,5.7,3.3,6.7c5.3,2,10.9,3.4,16.4,4.6c21.1,4.4,43.7,4,63.8-4.4c0.5-0.2,0.9-0.4,1.4-0.6c1.5-0.6,1.8-2.8,1.1-4.1
					c-0.9-1.6-2.6-1.7-4.1-1.1c-24.1,10.3-53.1,8.7-77.4-0.4c0.7,0.7,1.4,1.4,2.1,2.1c-2.3-10.7-0.1-22.9,7.3-31.3
					c6.1-7,15.9-8.3,24.7-8.7c9.3-0.4,20-0.7,28.4,3.7c9,4.6,13.6,15.7,14.3,25.4c0.3,3.7,0,7.4-0.8,11
					C241.9,93.3,247.8,94.9,248.6,91.1z"/>
			</g>
		</g>
		<g>
			<g>
				<path fill="#E99D8F" d="M321.6,190.2c0-58.3-51.8-105.6-115.8-105.6c-64,0-115.8,47.3-115.8,105.6c0,46.1,32.5,85.4,77.7,99.7
					l38.7,44.2l37.5-44.2C289.2,275.6,321.6,236.3,321.6,190.2z"/>
			</g>
			<g>
				<g>
					<path fill="#1E110C" d="M324.7,190.2c0-17.7-4.8-35.2-13.6-50.5c-8.8-15.4-21.5-28.2-36.3-37.9C243,80.8,201.6,76.1,165.6,88
						c-34,11.2-62.7,37.4-73.8,71.8c-5.6,17.4-6.2,36.3-1.9,54.1c4.3,18.1,13.9,34.6,26.7,48c13.3,13.9,30.1,24.1,48.2,30.3
						c0.6,0.2,1.1,0.4,1.7,0.6c-0.5-0.2-1-0.8-0.8-0.6c0.1,0.1,0.1,0.1,0.2,0.2c0.3,0.3,0.6,0.7,0.9,1c1.2,1.3,2.3,2.7,3.5,4
						c3.8,4.4,7.6,8.7,11.5,13.1c7.5,8.6,15.1,17.2,22.6,25.9c1,1.2,3.3,1.2,4.3,0c12.3-14.5,24.6-29,36.9-43.5
						c0.2-0.2,0.4-0.4,0.5-0.6c0,0,0,0,0,0c-0.3,0.2-0.5,0.4-0.8,0.6c0.4-0.1,0.7-0.2,1.1-0.4c1.3-0.4,2.6-0.9,3.9-1.4
						c4.6-1.7,9.1-3.7,13.5-5.9c8.5-4.3,16.4-9.7,23.7-15.9c14.1-12.1,25-27.7,31.4-45.2C322.7,213.1,324.6,201.6,324.7,190.2
						c0-3.9-6-3.9-6,0c-0.1,18.5-5.6,36.4-15.5,52c-10,15.6-24.5,28.1-40.8,36.8c-4.2,2.2-8.6,4.2-13,5.9c-2.2,0.8-4.9,1.3-6.8,2.4
						c-0.4,0.3-0.6,0.5-0.9,0.9c-2.4,2.8-4.8,5.6-7.2,8.4c-8.1,9.5-16.1,19-24.2,28.4c-2,2.3-3.9,4.6-5.9,6.9c1.4,0,2.9,0,4.3,0
						c-12.6-14.4-25.2-28.8-37.8-43.2c-1.2-1.4-2.6-1.8-4.4-2.5c-4.5-1.5-9-3.4-13.3-5.4c-8.5-4.1-16.5-9.2-23.7-15.3
						c-14-11.7-25-27-31-44.3c-6-17.1-6.8-35.8-2.6-53.4c4-16.7,12.8-32,24.5-44.5c25.6-27.2,64-39.1,100.7-34.8
						c35.5,4.2,68.8,24.9,86.1,56.4c7.6,13.8,11.5,29.5,11.5,45.2C318.6,194.1,324.7,194.1,324.7,190.2z"/>
				</g>
			</g>
		</g>
		<g opacity="0.7">
			<path fill="#D6817B" d="M206.3,85.8l0,247.1l38.1-43.5c0,0,84.9-26,74.9-110.7C309.6,96.5,245.6,92.5,206.3,85.8z"/>
		</g>
		<g>
			<g>
				<path fill="#ECB043" d="M232,87.1c0,0,0.6,12.3-15.9,16.3c-16.5,4-10.5,13.7-3,14.3c7.4,0.6,15.9-4.1,16.3-8
					c0.1-0.9,19.8,17.2-21.8,21.8c-44.9,4.9-32.1-46.8,1.1-46.9"/>
			</g>
			<g>
				<g>
					<g>
						<defs>
							<path id="SVGID_49_" d="M230,87.1c0.1,1.3-0.1,1.6-0.4,2.9c-0.7,2.5-2.1,4.7-3.9,6.5c-3.3,3.2-7.7,4.3-12,5.6
								c-3.5,1-7.3,2.8-9.2,6c-3,5.2,2,10.3,6.9,11.5c4.5,1,9.5-0.4,13.6-2.4c1.8-0.9,3.5-2.1,4.8-3.7c0.6-0.7,1-1.4,1.3-2.2
								c0.9-2.4-1.4,0.8-2.5,0.3c0.2,0.1,0.5,0.4-0.1-0.1c0.1,0.1,0.3,0.2,0.4,0.3c0.4,0.3,0.7,0.7,1,1.1c0.4,0.5,0-0.1,0.3,0.4
								c0.2,0.2,0.3,0.5,0.5,0.7c0.2,0.3,0.3,0.5,0.5,0.8c0.1,0.2,0.5,1.1,0.4,0.7c1.2,2.9,0.6,5.2-2,7.5c-2.2,1.9-5.1,2.9-7.7,3.8
								c-4.7,1.5-9.7,2.3-14.7,2.8c-6.5,0.7-13.6,0.4-19.3-3.1c-8.2-5-8.4-15.5-4.7-23.4c4.7-9.9,14.7-16.3,25.7-16.4
								c2.6,0,2.6-4.1,0-4c-11.9,0.1-22.9,6.8-28.6,17.3c-4.7,8.8-5.2,20.5,2.5,27.8c4.5,4.2,10.7,5.8,16.7,6.1
								c4.6,0.3,9.1-0.3,13.6-1c4.3-0.7,8.6-1.6,12.7-3.2c4.3-1.7,9.1-4.5,10.2-9.4c0.7-3.1-0.3-6.4-2.2-9c-1.2-1.7-4-5.3-6.1-2.6
								c-0.3,0.4-0.2,0.9-0.4,1.3c-0.4,0.8-1,1.3-1.6,1.9c-1.9,1.7-4.4,2.6-6.8,3.3c-3,0.8-6.9,1.1-9.5-1c-1.6-1.3-2.2-2.9-1-4.7
								c2.3-3.4,7.9-3.9,11.4-5.1c6.4-2.2,12-6.8,13.8-13.4c0.3-1.3,0.6-2.6,0.5-4C233.9,84.5,229.9,84.5,230,87.1L230,87.1z"/>
						</defs>
						<clipPath id="SVGID_1_">
							<use xlink:href="#SVGID_49_"  overflow="visible"/>
						</clipPath>
						<g clip-path="url(#SVGID_1_)">
							<rect x="215.9" y="42.5" fill="none" width="90.2" height="63.7"/>
							<rect x="215.9" y="42.5" fill="#2C110D" width="90.2" height="63.7"/>
						</g>
						<g clip-path="url(#SVGID_1_)">
							<rect x="215.9" y="106.2" fill="none" width="90.2" height="63.7"/>
							<rect x="215.9" y="106.2" fill="#2C110D" width="90.2" height="63.7"/>
						</g>
						<g clip-path="url(#SVGID_1_)">
							<rect x="125.7" y="42.5" fill="none" width="90.2" height="63.7"/>
							<rect x="125.7" y="42.5" fill="#2C110D" width="90.2" height="63.7"/>
						</g>
						<g clip-path="url(#SVGID_1_)">
							<rect x="125.7" y="106.2" fill="none" width="90.2" height="63.7"/>
							<rect x="125.7" y="106.2" fill="#2C110D" width="90.2" height="63.7"/>
						</g>
					</g>
				</g>
			</g>
		</g>
		<g>
			<path fill="#D79344" d="M216.6,85c0,0-0.9,3.8-5.2,7.9c-3.1,3-10.5,7.1-12.7,11.7c-4.8,9.8,2.4,23.4,15.2,22.8
				c15.9-0.7,23-5.2,16.8-15.6c0,0-30.2,13.5-23.1-1.7c5.4-11.5,20.5-6.6,22.4-17.8c1.9-11.2-5.7-7.2-5.7-7.2"/>
		</g>
		<g>
			<g>
				<g>
					<defs>
						<path id="SVGID_51_" d="M230,87.1c0.1,1.3-0.1,1.6-0.4,2.9c-0.7,2.5-2.1,4.7-3.9,6.5c-3.3,3.2-7.7,4.3-12,5.6
							c-3.5,1-7.3,2.8-9.2,6c-3,5.2,2,10.3,6.9,11.5c4.5,1,9.5-0.4,13.6-2.4c1.8-0.9,3.5-2.1,4.8-3.7c0.6-0.7,1-1.4,1.3-2.2
							c0.9-2.4-1.4,0.8-2.5,0.3c0.2,0.1,0.5,0.4-0.1-0.1c0.1,0.1,0.3,0.2,0.4,0.3c0.4,0.3,0.7,0.7,1,1.1c0.4,0.5,0-0.1,0.3,0.4
							c0.2,0.2,0.3,0.5,0.5,0.7c0.2,0.3,0.3,0.5,0.5,0.8c0.1,0.2,0.5,1.1,0.4,0.7c1.2,2.9,0.6,5.2-2,7.5c-2.2,1.9-5.1,2.9-7.7,3.8
							c-4.7,1.5-9.7,2.3-14.7,2.8c-6.5,0.7-13.6,0.4-19.3-3.1c-8.2-5-8.4-15.5-4.7-23.4c4.7-9.9,14.7-16.3,25.7-16.4
							c2.6,0,2.6-4.1,0-4c-11.9,0.1-22.9,6.8-28.6,17.3c-4.7,8.8-5.2,20.5,2.5,27.8c4.5,4.2,10.7,5.8,16.7,6.1
							c4.6,0.3,9.1-0.3,13.6-1c4.3-0.7,8.6-1.6,12.7-3.2c4.3-1.7,9.1-4.5,10.2-9.4c0.7-3.1-0.3-6.4-2.2-9c-1.2-1.7-4-5.3-6.1-2.6
							c-0.3,0.4-0.2,0.9-0.4,1.3c-0.4,0.8-1,1.3-1.6,1.9c-1.9,1.7-4.4,2.6-6.8,3.3c-3,0.8-6.9,1.1-9.5-1c-1.6-1.3-2.2-2.9-1-4.7
							c2.3-3.4,7.9-3.9,11.4-5.1c6.4-2.2,12-6.8,13.8-13.4c0.3-1.3,0.6-2.6,0.5-4C233.9,84.5,229.9,84.5,230,87.1L230,87.1z"/>
					</defs>
					<clipPath id="SVGID_2_">
						<use xlink:href="#SVGID_51_"  overflow="visible"/>
					</clipPath>
					<g clip-path="url(#SVGID_2_)">
						<rect x="233" y="63.4" fill="none" width="90.2" height="63.7"/>
						<rect x="233" y="63.4" fill="#2C110D" width="90.2" height="63.7"/>
					</g>
					<g clip-path="url(#SVGID_2_)">
						<rect x="233" y="127" fill="none" width="90.2" height="63.7"/>
						<rect x="233" y="127" fill="#2C110D" width="90.2" height="63.7"/>
					</g>
					<g clip-path="url(#SVGID_2_)">
						<rect x="142.8" y="63.4" fill="none" width="90.2" height="63.7"/>
						<rect x="142.8" y="63.4" fill="#2C110D" width="90.2" height="63.7"/>
					</g>
					<g clip-path="url(#SVGID_2_)">
						<rect x="142.8" y="127" fill="none" width="90.2" height="63.7"/>
						<rect x="142.8" y="127" fill="#2C110D" width="90.2" height="63.7"/>
					</g>
				</g>
			</g>
		</g>
		<g>
			<g>
				<path fill="#2C110D" d="M324.7,190.2c0-17.7-4.8-35.2-13.6-50.5c-8.8-15.4-21.5-28.2-36.3-37.9C243,80.8,201.6,76.1,165.6,88
					c-34,11.2-62.7,37.4-73.8,71.8c-5.6,17.4-6.2,36.3-1.9,54.1c4.3,18.1,13.9,34.6,26.7,48c13.3,13.9,30.1,24.1,48.2,30.3
					c0.6,0.2,1.1,0.4,1.7,0.6c-0.5-0.2-1-0.8-0.8-0.6c0.1,0.1,0.1,0.1,0.2,0.2c0.3,0.3,0.6,0.7,0.9,1c1.2,1.3,2.3,2.7,3.5,4
					c3.8,4.4,7.6,8.7,11.5,13.1c7.5,8.6,15.1,17.2,22.6,25.9c1,1.2,3.3,1.2,4.3,0c12.3-14.5,24.6-29,36.9-43.5
					c0.2-0.2,0.4-0.4,0.5-0.6c0,0,0,0,0,0c-0.3,0.2-0.5,0.4-0.8,0.6c0.4-0.1,0.7-0.2,1.1-0.4c1.3-0.4,2.6-0.9,3.9-1.4
					c4.6-1.7,9.1-3.7,13.5-5.9c8.5-4.3,16.4-9.7,23.7-15.9c14.1-12.1,25-27.7,31.4-45.2C322.7,213.1,324.6,201.6,324.7,190.2
					c0-3.9-6-3.9-6,0c-0.1,18.5-5.6,36.4-15.5,52c-10,15.6-24.5,28.1-40.8,36.8c-4.2,2.2-8.6,4.2-13,5.9c-2.2,0.8-4.9,1.3-6.8,2.4
					c-0.4,0.3-0.6,0.5-0.9,0.9c-2.4,2.8-4.8,5.6-7.2,8.4c-8.1,9.5-16.1,19-24.2,28.4c-2,2.3-3.9,4.6-5.9,6.9c1.4,0,2.9,0,4.3,0
					c-12.6-14.4-25.2-28.8-37.8-43.2c-1.2-1.4-2.6-1.8-4.4-2.5c-4.5-1.5-9-3.4-13.3-5.4c-8.5-4.1-16.5-9.2-23.7-15.3
					c-14-11.7-25-27-31-44.3c-6-17.1-6.8-35.8-2.6-53.4c4-16.7,12.8-32,24.5-44.5c25.6-27.2,64-39.1,100.7-34.8
					c35.5,4.2,68.8,24.9,86.1,56.4c7.6,13.8,11.5,29.5,11.5,45.2C318.6,194.1,324.7,194.1,324.7,190.2z"/>
			</g>
		</g>
		<g opacity="0.4">
			<g>
				<path fill="#AB191A" d="M279.6,191.7c1.7,0.8,3.8,0.7,5.2-0.6c1.3-1.2,1.6-2.8,0.4-4.1c-1.4-1.6-4.6-1.6-6.6-1.3
					c-2.5,0.4-4.8,1.3-6.3,3.4c-1.3,1.8-0.9,4.5,0.5,6.1c1.6,1.8,4.6,2,6.8,2.1c5.6,0.2,12.1,0.5,15.3-4.9c0.7-1.1-1.1-2.1-1.7-1
					c-2.3,3.8-6.2,3.8-10.1,3.9c-2.7,0-8.1,0.8-9.3-2.4c-1.4-3.7,3.9-5.2,6.4-5.3c0.7,0,4.3,0.2,3.8,1.5c-0.5,1.2-2.3,1.4-3.3,0.9
					C279.5,189.4,278.5,191.1,279.6,191.7L279.6,191.7z"/>
			</g>
		</g>
		<g opacity="0.4">
			<g>
				<path fill="#AB191A" d="M132.1,189.9c-1.1,0.5-2.5,0.3-3.2-0.7c-1-1.4,2.6-1.7,3.2-1.7c3-0.1,7.7,1.4,6.8,5.3
					c-0.7,3.1-6.7,2.5-9,2.4c-4.1-0.1-8.1,0-10.5-3.9c-0.7-1.1-2.4-0.1-1.7,1c3.2,5.3,9.3,5,14.9,4.9c2.5,0,5-0.3,7-1.9
					c1.9-1.5,1.9-4.5,0.7-6.4c-2.1-3.5-9.5-4.9-12.6-2.2c-1.4,1.2-1.2,2.9,0,4.1c1.4,1.5,3.7,1.6,5.5,0.8
					C134.3,191.1,133.3,189.4,132.1,189.9L132.1,189.9z"/>
			</g>
		</g>
	</g>
	<g>
		<g>
			<path fill="#310F0E" d="M156.6,147.5c-1.6,7.2-0.4,17.9,0.6,23.1c1.7,12.3,12.7,15.3,14.9,3.8c0.9-5.1,0.9-12.9,0.5-19.8
				L156.6,147.5z"/>
		</g>
	</g>
	<g>
		<g>
			<path fill="#310F0E" d="M253.4,147.5c1.6,7.2,0.4,17.9-0.6,23.1c-1.7,12.3-12.7,15.3-14.9,3.8c-0.9-5.1-0.9-12.9-0.5-19.8
				L253.4,147.5z"/>
		</g>
	</g>
	<g>
		<g>
			<g>
				<path fill="#2C110D" d="M260.9,227.2c-7.3-3.8-15.5-6.2-23.4-8.1c-18.8-4.4-38.4-4.8-57.3-1.2c-10,1.9-19.7,5.1-29,9.2
					c-2.4,1-0.3,4.5,2,3.5c20.7-9.1,43.4-12.7,66-10.5c12.5,1.2,25.7,4.4,36.9,9.2c0.9,0.4,1.9,0.8,2.8,1.3
					C261.2,231.9,263.2,228.4,260.9,227.2L260.9,227.2z"/>
			</g>
		</g>
		<g>
			<g>
				<path fill="#2C110D" d="M150.8,236.1c2.1-4.3,3.1-10.1,0-14.2c-1.6-2-5.1,0-3.5,2c2.3,2.9,1.4,7.3,0,10.1
					C146.2,236.4,149.7,238.4,150.8,236.1L150.8,236.1z"/>
			</g>
		</g>
		<g>
			<g>
				<path fill="#2C110D" d="M264.7,234c-1.4-2.8-2.3-7.2,0-10.1c1.6-2.1-1.9-4.1-3.5-2c-3.1,4-2.1,9.9,0,14.2
					C262.4,238.4,265.9,236.4,264.7,234L264.7,234z"/>
			</g>
		</g>
	</g>
	<g>
		<g>
			<path fill="#3F2914" d="M275.8,69.2c7.7,5,19.4,7.7,27.6,2.4c0.8-0.5,0.5-1.9-0.5-1.9c-3.3,0-9.9-0.1-11.5,3.7
				c-1.1,2.6,1.2,5,3.2,6.3c2.2,1.3,5.4,2,7.5,0c3.3-3.1,0.6-9.6-0.7-12.9c-0.3-0.6-0.8-0.9-1.5-0.6c-9.3,4.1-14.9,15.1-13.8,25.1
				c0.7,0,1.3,0,2,0c-0.8-6.7-4.3-12.7-6-19.2c-0.8-3.2-1-6.6,0.8-9.5c1.8-2.8,5.6-4.7,8.8-5.3c5.4-1,9.2,3.7,10.9,8.2
				c1.9,4.9,2.6,10.7,1.5,15.8c-0.2,0.9,0.9,1.7,1.7,1c3.3-3.4,4.6-9.4,5.3-13.9c0.6-3.9,1.4-10.6-2.6-13c-2-1.2-4.5-0.4-6.5,0.6
				c-3.1,1.5-4.7,4.5-5.3,7.7c-1.4,7.5,1.6,15.7,4,22.8c0.3,0.9,0.6,1.8,0.9,2.7c0.2-0.4,0.5-0.8,0.7-1.2c-2.8,1-7.7,2.8-10.2,0.3
				c-1.9-2-1-5.8-0.5-8.1c1.7-6.9,5.2-13.9,9.4-19.7c-0.6-0.3-1.2-0.7-1.7-1c-1.6,3.4-2.4,7-1,10.6c1.5,3.8,5.1,6.1,8.6,7.7
				c0.1-0.6,0.2-1.2,0.2-1.8c-5.9,1.1-11.9,0-17.9,0c0.3,0.5,0.6,1,0.9,1.5c1.7-3.4,4.1-8.7,1.5-12.2c-1.8-2.5-5.2-2.3-7.7-1.1
				c-3.3,1.6-5.1,5-5.2,8.5c-0.3,6.2,4.4,11.9,8.6,15.9c0.4-0.5,0.8-1.1,1.2-1.6c-8.8-5.7-10.3-15.9-8-25.5
				c-0.6,0.1-1.2,0.2-1.8,0.2c4.3,7.1,9.2,13.8,16.1,18.5c1.1,0.7,2.1-1,1-1.7c-6.6-4.5-11.3-11-15.4-17.8c-0.4-0.7-1.6-0.6-1.8,0.2
				c-2.5,10.4-0.6,21.6,8.9,27.7c1,0.6,2-0.8,1.2-1.6c-4.8-4.6-12.8-15.5-4.5-20.9c1.7-1.1,4.2-1.6,5.7,0.1
				c2.3,2.6-0.3,7.8-1.6,10.1c-0.3,0.7,0.1,1.5,0.9,1.5c6.2,0.1,12.3,1.1,18.4,0c0.8-0.2,1-1.5,0.2-1.8c-3.1-1.4-6-3.2-7.6-6.3
				c-1.5-2.9-0.6-6.4,0.7-9.2c0.6-1.2-1-2.1-1.7-1c-4.5,6.4-8.6,14.3-10,22c-0.5,2.9-0.6,6.6,1.8,8.6c3.2,2.7,8.3,1,11.7-0.2
				c0.5-0.2,0.9-0.7,0.7-1.2c-2.1-6.4-4.6-12.8-5.1-19.6c-0.2-3.2,0-6.9,2.1-9.5c1.4-1.7,4.3-3.2,6.5-2.5c3.7,1.1,2.4,9,1.9,11.6
				c-0.7,3.9-1.8,9.3-4.7,12.3c0.6,0.3,1.1,0.7,1.7,1c1.9-9.2-1.3-27.6-13.9-26.6c-3.4,0.3-6.8,2.1-9.3,4.3c-2.6,2.3-3.5,5.6-3.4,9
				c0.3,8,5.5,14.9,6.5,22.8c0.2,1.3,2.2,1.3,2,0c-1-9.3,4.1-19.4,12.8-23.3c-0.5-0.2-1-0.4-1.5-0.6c1,2.6,3.5,8,1.4,10.7
				c-1.2,1.5-3.5,0.8-4.9,0c-1.3-0.7-3.2-2.2-2.8-3.8c0.3-1,1.7-1.5,2.5-1.7c2.3-0.7,4.8-0.8,7.1-0.8c-0.2-0.6-0.3-1.3-0.5-1.9
				c-7.6,4.9-18.5,2.2-25.6-2.4C275.8,66.7,274.8,68.4,275.8,69.2L275.8,69.2z"/>
		</g>
	</g>
</g>
<g>
	<path fill="#3D3D3B" d="M13.6,392.8c0.7-11.3,1-21.2,1-29.6c0-1.9,0-3.7-0.1-5.5l7.6-0.4c3.6,10.1,6.7,18,9.5,23.7
		c0.3-10.2,0.4-18.8,0.4-25.7l8-0.5c-1.3,13.6-2.1,25.8-2.5,36.4l-6.7,0.7c-3.4-8.4-6.6-16.3-9.8-23.8c-0.7,9.2-1.1,17.6-1.1,25.4
		L13.6,392.8z"/>
	<path fill="#3D3D3B" d="M59.3,356.1c1.8,8.2,4.4,20,7.9,35.2l-8.4,2.8l-2-17.5l-7,0.7l-2.4,17.3l-6.6-2.4c2.8-9.5,6-21.4,9.5-35.7
		L59.3,356.1z M57.8,371.2l-1.1-8.4l-3.5-0.2l-1.8,9.1L57.8,371.2z"/>
	<path fill="#3D3D3B" d="M73.6,356.4c3.6,0,6.9,0.5,9.7,1.5c4,1.5,6.4,5.3,7.4,11.5c0.2,1.4,0.3,2.8,0.3,4.2c0,4.5-1.2,8.5-3.6,12
		c-3.1,4.6-9.2,7-18.3,7c0.1-2.4,0.1-5,0.1-7.9c0-7.5-0.2-16.8-0.5-28C70.4,356.5,72,356.4,73.6,356.4z M83.9,381.6
		c1.5-2,2.2-4.4,2.2-7.2c0-1.2-0.1-2.4-0.4-3.8c-0.9-4.3-4.2-6.7-10-7c-0.4,5.5-0.6,13-0.8,22.5C78.8,386.1,81.8,384.6,83.9,381.6z"
		/>
	<path fill="#3D3D3B" d="M110.5,356.1c1.8,8.2,4.4,20,7.9,35.2l-8.4,2.8l-2-17.5l-7,0.7l-2.4,17.3l-6.6-2.4c2.8-9.5,6-21.4,9.5-35.7
		L110.5,356.1z M109.1,371.2l-1.1-8.4l-3.5-0.2l-1.8,9.1L109.1,371.2z"/>
	<path fill="#3D3D3B" d="M139.7,354.8c0,1.6-0.1,3.2-0.1,4.9c0,3.4,0.1,7.1,0.2,11.1c4.4-4.9,8.5-10.6,12.3-17.3l8.1,2.1
		c-4.6,5.2-9.6,10.6-14.9,16.5c4,4.4,8.8,9.4,14.3,14.9l-4.9,7.4c-3.4-5.1-7.8-10.9-13.2-17.7l-0.7,1.1l0.4,15.9l-7.5-0.3
		c0.1-2.8,0.1-5.7,0.1-8.7c0-9-0.2-18.9-0.6-29.8L139.7,354.8z"/>
	<path fill="#3D3D3B" d="M165.5,392c0.1-5.1,0.1-10.1,0.1-14.9c0-7.2-0.1-14.1-0.2-20.7l6.9-0.6c-0.4,12.8-0.6,24.8-0.6,36
		L165.5,392z"/>
	<path fill="#3D3D3B" d="M183.1,356.4c3.6,0,6.9,0.5,9.7,1.5c4,1.5,6.4,5.3,7.4,11.5c0.2,1.4,0.3,2.8,0.3,4.2c0,4.5-1.2,8.5-3.6,12
		c-3.1,4.6-9.2,7-18.3,7c0.1-2.4,0.1-5,0.1-7.9c0-7.5-0.2-16.8-0.5-28C179.9,356.5,181.5,356.4,183.1,356.4z M193.5,381.6
		c1.5-2,2.2-4.4,2.2-7.2c0-1.2-0.1-2.4-0.4-3.8c-0.9-4.3-4.2-6.7-10-7c-0.4,5.5-0.6,13-0.8,22.5
		C188.4,386.1,191.3,384.6,193.5,381.6z"/>
	<path fill="#3D3D3B" d="M232,356.5l-0.1,5.8c-3-0.3-6.5-0.5-10.5-0.6v8.1l10.3-0.3l0.1,6.2l-9.3,0.3l-0.3,13.8l-5.9,0.6
		c0.5-8.8,0.7-20,0.8-33.4L232,356.5z"/>
	<path fill="#3D3D3B" d="M234.8,355.1c0.8,0,1.5,0,2.2,0c5.8,0,10.1,0.5,12.6,1.4c2.9,1.1,4.8,2.4,5.8,4.2c0.7,1.2,1,2.7,1,4.5
		c0,0.7,0,1.4-0.1,2.2c-0.4,2.7-3.7,5.7-10,8.9c2.8,3.2,6.7,7.4,11.5,12.6l-6,5.1c-2.9-4.7-6.6-9.8-11.1-15.5l0.9,13.5l-6.3,0.5
		C235.4,381.8,235.2,369.4,234.8,355.1z M240.8,360.9l-0.1,12c5.4-2.5,8.5-4.7,9.4-6.5c0.4-0.9,0.6-1.7,0.6-2.4
		c0-0.7-0.2-1.3-0.7-1.8c-0.9-0.9-2.2-1.4-3.7-1.4c-0.5,0-1.1,0-1.7,0C243.5,360.8,242.2,360.8,240.8,360.9z"/>
	<path fill="#3D3D3B" d="M263.1,392c0.1-5.1,0.1-10.1,0.1-14.9c0-7.2-0.1-14.1-0.2-20.7l6.9-0.6c-0.4,12.8-0.6,24.8-0.6,36
		L263.1,392z"/>
	<path fill="#3D3D3B" d="M293.9,356.6l-0.2,6.1c-1,0-2,0-2.9,0c-3.7,0-6.7,0.1-9,0.4v8.5l11.2-0.1l-0.2,6.2h-9.5l0.1,7.1l9.8-0.1
		l0.1,7.8l-17.5-0.7c0.7-10.8,1.1-22.1,1.4-33.9C280.5,357.6,286.1,357.1,293.9,356.6z"/>
	<path fill="#3D3D3B" d="M296.7,392.8c0.7-11.3,1-21.2,1-29.6c0-1.9,0-3.7-0.1-5.5l7.6-0.4c3.6,10.1,6.7,18,9.5,23.7
		c0.3-10.2,0.4-18.8,0.4-25.7l8-0.5c-1.3,13.6-2.1,25.8-2.5,36.4l-6.7,0.7c-3.4-8.4-6.6-16.3-9.8-23.8c-0.7,9.2-1.1,17.6-1.1,25.4
		L296.7,392.8z"/>
	<path fill="#3D3D3B" d="M330.3,356.4c3.6,0,6.9,0.5,9.7,1.5c4,1.5,6.4,5.3,7.4,11.5c0.2,1.4,0.3,2.8,0.3,4.2c0,4.5-1.2,8.5-3.6,12
		c-3.1,4.6-9.2,7-18.3,7c0.1-2.4,0.1-5,0.1-7.9c0-7.5-0.2-16.8-0.5-28C327.1,356.5,328.7,356.4,330.3,356.4z M340.6,381.6
		c1.5-2,2.2-4.4,2.2-7.2c0-1.2-0.1-2.4-0.4-3.8c-0.9-4.3-4.2-6.7-10-7c-0.4,5.5-0.6,13-0.8,22.5
		C335.5,386.1,338.5,384.6,340.6,381.6z"/>
	<path fill="#3D3D3B" d="M350.8,392.5c0-3.4,0-6.6,0-9.6c0-11.2-0.2-19.6-0.6-25.5l7.1-0.5c-0.7,11.7-1.1,21.1-1.1,28.3
		c5.1-0.2,9.8-0.6,14-1.2l-0.2,8.4c-3.5-0.2-6.7-0.3-9.7-0.3C356.8,392.1,353.7,392.2,350.8,392.5z"/>
	<path fill="#3D3D3B" d="M378.4,356.1c1.8,7,4,12.9,6.6,17.7c2.9-6,5.4-11.9,7.5-17.7l5.6,2.2c-7.1,14.3-12,25.9-14.8,34.6l-7.1-1.3
		c1.8-4.2,3.4-8.1,4.7-11.5c-2.7-6.2-5.8-13.2-9.5-21L378.4,356.1z"/>
</g>
</svg>
