<?xml version="1.0" encoding="utf-8"?>
<!-- Generator: Adobe Illustrator 18.0.0, SVG Export Plug-In . SVG Version: 6.00 Build 0)  -->
<!DOCTYPE svg PUBLIC "-//W3C//DTD SVG 1.1//EN" "http://www.w3.org/Graphics/SVG/1.1/DTD/svg11.dtd">
<svg version="1.1" id="Camada_1" xmlns="http://www.w3.org/2000/svg" xmlns:xlink="http://www.w3.org/1999/xlink" x="0px" y="0px"
	 viewBox="0 0 411.7 411.7" enable-background="new 0 0 411.7 411.7" xml:space="preserve">
<g>
	<g>
		<g>
			<g>
				<path fill="#4DA933" d="M245.5,90.7c0.7-2.9,1-5.9,1-9c0-8.8-2.8-16.9-7.6-23.5c-7.4-10.1-19.4-11.2-33-11.2
					c-14.1,0-26.4,1.5-33.8,12.2c-4.4,6.4-6.9,14.1-6.9,22.5c0,3.1,0.4,6.1,1,8.9C172.8,93.2,210.4,106,245.5,90.7z"/>
			</g>
			<g>
				<g>
					<path fill="#1E110C" d="M247.4,91.3c2.5-11.2,0.5-22.8-5.7-32.4c-5.3-8.3-13.6-11.9-23.1-13.2c-5-0.7-10.2-0.7-15.3-0.6
						c-4.9,0.1-9.8,0.4-14.5,1.4c-4.3,0.9-8.5,2.6-12.1,5.2c-3.9,2.9-6.8,6.8-9,11.1c-2.5,4.9-3.9,10.2-4.4,15.6
						c-0.3,2.9-0.2,5.8,0.2,8.7c0.3,2.2,0.2,4.9,2.6,5.7c5.3,2,10.8,3.4,16.4,4.6c20.8,4.4,43.1,3.9,62.9-4.4
						c0.4-0.2,0.8-0.3,1.2-0.5c2.4-1,0.3-4.5-2-3.5c-24.2,10.4-53.4,8.9-77.8-0.3c0.5,0.5,0.9,0.9,1.4,1.4
						c-2.4-11-0.1-23.5,7.5-32.1c6.3-7.2,16.3-8.6,25.3-8.9c9.4-0.4,20.2-0.6,28.8,3.8c9.3,4.8,14,16.2,14.8,26.1
						c0.3,3.8-0.1,7.5-0.9,11.2C243,92.7,246.9,93.8,247.4,91.3z"/>
				</g>
			</g>
		</g>
		<g>
			<g>
				<rect x="203.9" y="25.8" fill="#9B9BA0" width="1.9" height="16.8"/>
				<rect x="201.5" y="23.4" fill="#1E110C" width="6.7" height="21.6"/>
			</g>
			<g>
				<ellipse fill="#E59303" cx="204.9" cy="45" rx="5.2" ry="4.3"/>
				<path fill="#1E110C" d="M204.9,51.2c-3.9,0-7-2.8-7-6.1c0-3.4,3.2-6.1,7-6.1c3.9,0,7,2.8,7,6.1
					C211.9,48.4,208.8,51.2,204.9,51.2z M204.9,42.5c-1.9,0-3.4,1.2-3.4,2.5c0,1.4,1.6,2.5,3.4,2.5c1.9,0,3.4-1.2,3.4-2.5
					C208.3,43.7,206.7,42.5,204.9,42.5z"/>
			</g>
			<g>
				<path fill="#ECB043" d="M202.1,23.6c0,0-21.3-6.7-27-1.1c-5.7,5.6,23.4,8,27,2.3"/>
				<path fill="#1E110C" d="M189.5,30.4c-2.2,0-4.2-0.1-5.9-0.3c-6.6-0.7-10.5-2.4-11.4-5c-0.2-0.7-0.6-2.5,1.2-4.3
					c3-2.9,8.7-3.6,17.7-2.2c6.1,1,11.5,2.7,11.7,2.7l-1,3.2l2.3,1.5C202,29.4,195.3,30.4,189.5,30.4z M177.4,23.7
					c2.2,1.1,8.7,2.3,15.4,1.7c1.9-0.2,3.4-0.4,4.5-0.7c-1.9-0.5-4.4-1-7-1.5C182.1,21.9,178.7,22.9,177.4,23.7z"/>
			</g>
			<g>
				<path fill="#ECB043" d="M207.7,23.6c0,0,21.3-6.7,27-1.1c5.7,5.6-23.4,8-27,2.3"/>
				<path fill="#1E110C" d="M220.3,30.4c-5.9,0-12.5-1-14.7-4.4l2.3-1.5l-1-3.2c0.2-0.1,5.6-1.7,11.7-2.7c8.9-1.4,14.7-0.7,17.7,2.2
					c1.8,1.8,1.5,3.6,1.2,4.3c-0.9,2.6-4.7,4.3-11.4,5C224.5,30.3,222.5,30.4,220.3,30.4z M212.5,24.7c1.1,0.3,2.6,0.6,4.5,0.7
					c6.8,0.5,13.2-0.6,15.5-1.7c-1.3-0.8-4.7-1.8-13-0.4C216.9,23.7,214.4,24.3,212.5,24.7z"/>
			</g>
			<g>
				<circle fill="#E59303" cx="204.9" cy="24.1" r="2.8"/>
				<path fill="#1E110C" d="M204.9,29.3c-2.9,0-5.2-2.3-5.2-5.2c0-2.9,2.3-5.2,5.2-5.2c2.9,0,5.2,2.3,5.2,5.2
					C210.1,27,207.8,29.3,204.9,29.3z M204.9,23.7c-0.2,0-0.4,0.2-0.4,0.4c0,0.2,0.2,0.4,0.4,0.4c0.2,0,0.4-0.2,0.4-0.4
					C205.3,23.9,205.1,23.7,204.9,23.7z"/>
			</g>
		</g>
		<g>
			<g>
				<rect x="203.9" y="25.8" fill="#9B9BA0" width="1.9" height="16.8"/>
			</g>
			<g>
				<ellipse fill="#E59303" cx="204.9" cy="45" rx="5.2" ry="4.3"/>
				<path fill="#1E110C" d="M204.9,51.8c-4.2,0-7.6-3-7.6-6.7c0-3.7,3.4-6.7,7.6-6.7c4.2,0,7.6,3,7.6,6.7
					C212.5,48.7,209.1,51.8,204.9,51.8z M204.9,43.1c-1.5,0-2.8,0.9-2.8,1.9c0,1,1.3,1.9,2.8,1.9c1.5,0,2.8-0.9,2.8-1.9
					C207.7,44,206.4,43.1,204.9,43.1z"/>
			</g>
			<g>
				<ellipse fill="#E59303" cx="204.9" cy="45" rx="5.2" ry="4.3"/>
			</g>
			<g>
				<path fill="#ECB043" d="M202.1,23.6c0,0-21.3-6.7-27-1.1c-5.7,5.6,23.4,8,27,2.3"/>
			</g>
			<g>
				<path fill="#DF9406" d="M207.7,23.6c0,0,21.3-6.7,27-1.1c5.7,5.6-23.4,8-27,2.3"/>
			</g>
			<g>
				<path fill="#E59303" d="M201.6,22.8c0,0-12.3-2.7-15.8-2.5c0,0,0.7,7,14.8,5.7C200.7,26,201.3,25.7,201.6,22.8z"/>
			</g>
			<g>
				<path fill="#CF7F10" d="M209.4,22.9c0,0,9-2.6,16,4.8c0,0-12,1.1-16.5-1.9C208.9,25.8,209.5,24,209.4,22.9z"/>
			</g>
			<g>
				<circle fill="#E59303" cx="204.9" cy="24.1" r="2.8"/>
				<path fill="#1E110C" d="M204.9,28.7c-2.5,0-4.6-2.1-4.6-4.6s2.1-4.6,4.6-4.6c2.5,0,4.6,2.1,4.6,4.6S207.4,28.7,204.9,28.7z
					 M204.9,23.1c-0.6,0-1,0.4-1,1c0,0.6,0.4,1,1,1c0.6,0,1-0.4,1-1C205.9,23.5,205.4,23.1,204.9,23.1z"/>
			</g>
			<g>
				<circle fill="#B21827" cx="204.9" cy="24.1" r="2.8"/>
			</g>
		</g>
		<g>
			<path fill="#027233" d="M192.8,48.3c0,0-10.1,19.5-7.3,36.9c0,0,29.8-4.2,38.2,1.1c8.4,5.3,1.4-40.2-5.2-40.1
				C212,46.3,192.8,48.3,192.8,48.3z"/>
		</g>
		<g opacity="0.6">
			<g>
				<path fill="#0A4621" d="M238.9,58.3c-7.4-10.1-19.4-11.2-33-11.2v51c12.3,0.2,26.2-1.5,39.7-7.3c0.7-2.9,1-5.9,1-9
					C246.5,73,243.7,64.9,238.9,58.3z"/>
			</g>
		</g>
		<g>
			<g>
				<path fill="#2C110D" d="M248.4,91.5c2.5-11.4,0.6-23.3-5.8-33.2c-5.5-8.6-14.1-12.4-24-13.7c-5-0.7-10.2-0.7-15.3-0.6
					c-5,0.1-9.9,0.4-14.8,1.5c-4.4,0.9-8.7,2.6-12.3,5.3c-4.1,3-7.1,7-9.4,11.4c-2.6,5-4,10.5-4.6,16.1c-0.3,2.9-0.2,5.8,0.2,8.7
					c0.3,2.7,0.4,5.6,3.3,6.7c5.3,2,10.8,3.4,16.4,4.6c21,4.4,43.5,4,63.5-4.4c0.5-0.2,0.9-0.4,1.4-0.6c1.5-0.6,1.8-2.8,1.1-4.1
					c-0.9-1.5-2.6-1.7-4.1-1.1c-23.9,10.2-52.9,8.7-77-0.4c0.7,0.7,1.4,1.4,2.1,2.1c-2.3-10.6-0.1-22.8,7.2-31.1
					c6.1-7,15.8-8.3,24.6-8.6c9.2-0.3,19.9-0.7,28.3,3.7c9,4.6,13.5,15.7,14.3,25.2c0.3,3.7,0,7.3-0.8,10.9
					C241.8,93.7,247.6,95.3,248.4,91.5z"/>
			</g>
		</g>
		<g>
			<g>
				<path fill="#F6CBBE" d="M321.1,190.1c0-58-51.6-105.1-115.2-105.1c-63.6,0-115.2,47.1-115.2,105.1c0,45.9,32.3,85,77.3,99.3
					l38.5,44l37.3-44C288.8,275.1,321.1,236.1,321.1,190.1z"/>
			</g>
			<g>
				<g>
					<path fill="#1E110C" d="M324.1,190.1c0-17.7-4.8-35-13.6-50.3c-8.7-15.3-21.4-28.1-36.1-37.8c-31.7-20.8-72.8-25.4-108.7-13.7
						c-33.8,11.1-62.4,37.2-73.5,71.4c-5.6,17.3-6.1,36.2-1.9,53.9c4.3,18,13.8,34.4,26.5,47.7c13.2,13.8,29.9,24,47.9,30.1
						c0.6,0.2,1.1,0.4,1.7,0.6c-0.5-0.2-1-0.8-0.7-0.6c0.1,0.1,0.1,0.1,0.2,0.2c0.3,0.3,0.6,0.7,0.9,1c1.2,1.3,2.3,2.6,3.5,4
						c3.8,4.3,7.6,8.7,11.4,13c7.5,8.6,15,17.2,22.5,25.7c1,1.2,3.2,1.2,4.3,0c12.3-14.4,24.5-28.9,36.8-43.3
						c0.2-0.2,0.4-0.4,0.5-0.6c0,0,0,0,0,0c-0.3,0.2-0.5,0.4-0.8,0.6c0.4-0.1,0.7-0.2,1.1-0.4c1.3-0.4,2.6-0.9,3.9-1.4
						c4.6-1.7,9.1-3.7,13.4-5.9c8.5-4.3,16.4-9.7,23.6-15.8c14-12,24.9-27.6,31.2-45C322.2,213,324.1,201.5,324.1,190.1
						c0-3.9-6-3.9-6,0c-0.1,18.4-5.5,36.3-15.5,51.7c-10,15.6-24.3,28-40.6,36.7c-4.2,2.2-8.5,4.2-13,5.9c-2.1,0.8-4.8,1.3-6.8,2.4
						c-0.4,0.3-0.6,0.5-0.9,0.9c-2.4,2.8-4.8,5.6-7.1,8.4c-8,9.4-16,18.9-24,28.3c-1.9,2.3-3.9,4.6-5.8,6.9c1.4,0,2.8,0,4.3,0
						c-12.6-14.3-25.1-28.7-37.7-43c-1.2-1.4-2.5-1.8-4.4-2.4c-4.5-1.5-8.9-3.3-13.2-5.4c-8.4-4.1-16.4-9.2-23.5-15.2
						c-13.9-11.7-24.9-26.9-30.9-44.1c-6-17-6.8-35.6-2.6-53.1c4-16.6,12.7-31.9,24.4-44.3c25.5-27.1,63.7-39,100.3-34.7
						c35.3,4.1,68.5,24.7,85.6,56.2c7.5,13.8,11.4,29.3,11.5,45C318.1,194,324.1,194,324.1,190.1z"/>
				</g>
			</g>
		</g>
		<g opacity="0.7">
			<path fill="#ECB0A0" d="M206.3,86.2l0,245.9l37.9-43.3c0,0,84.5-25.9,74.6-110.2C309.1,96.9,245.4,92.9,206.3,86.2z"/>
		</g>
		<g>
			<g>
				<path fill="#ECB043" d="M231.9,87.5c0,0,0.6,12.3-15.8,16.2c-16.4,4-10.4,13.7-3,14.2c7.4,0.6,15.8-4.1,16.2-8
					c0.1-0.9,19.7,17.1-21.7,21.7c-44.7,4.9-31.9-46.6,1.1-46.7"/>
			</g>
			<g>
				<g>
					<g>
						<defs>
							<path id="SVGID_53_" d="M229.9,87.5c0.1,1.3-0.1,1.6-0.4,2.9c-0.6,2.5-2.1,4.7-3.9,6.4c-3.3,3.2-7.7,4.3-12,5.5
								c-3.5,1-7.2,2.7-9.1,6c-3,5.2,2,10.3,6.8,11.4c4.5,1,9.5-0.4,13.5-2.4c1.8-0.9,3.5-2.1,4.8-3.7c0.6-0.7,1-1.4,1.3-2.2
								c0.9-2.3-1.4,0.8-2.5,0.3c0.2,0.1,0.5,0.4-0.1-0.1c0.1,0.1,0.3,0.2,0.4,0.3c0.4,0.3,0.7,0.7,1,1.1c0.4,0.5,0-0.1,0.3,0.4
								c0.2,0.2,0.3,0.5,0.5,0.7c0.2,0.3,0.3,0.5,0.5,0.8c0.1,0.2,0.5,1.1,0.4,0.7c1.2,2.9,0.6,5.2-2,7.4c-2.1,1.9-5,2.9-7.7,3.8
								c-4.7,1.5-9.7,2.3-14.6,2.8c-6.4,0.7-13.5,0.4-19.2-3.1c-8.2-5-8.4-15.5-4.7-23.3c4.7-9.9,14.7-16.2,25.5-16.3
								c2.6,0,2.6-4,0-4c-11.9,0.1-22.8,6.7-28.4,17.2c-4.7,8.7-5.2,20.4,2.5,27.6c4.5,4.2,10.7,5.7,16.6,6.1
								c4.5,0.3,9.1-0.3,13.5-1c4.3-0.6,8.6-1.6,12.7-3.2c4.3-1.7,9-4.5,10.1-9.3c0.7-3.1-0.3-6.4-2.1-8.9c-1.2-1.7-4-5.3-6.1-2.6
								c-0.3,0.4-0.2,0.9-0.4,1.3c-0.4,0.8-1,1.3-1.6,1.9c-1.9,1.7-4.4,2.6-6.8,3.3c-3,0.8-6.8,1.1-9.4-1c-1.6-1.3-2.2-2.9-1-4.6
								c2.2-3.4,7.9-3.9,11.3-5c6.4-2.2,11.9-6.7,13.7-13.4c0.3-1.2,0.6-2.6,0.5-3.9C233.8,85,229.8,84.9,229.9,87.5L229.9,87.5z"/>
						</defs>
						<clipPath id="SVGID_1_">
							<use xlink:href="#SVGID_53_"  overflow="visible"/>
						</clipPath>
						<g clip-path="url(#SVGID_1_)">
							<rect x="215.9" y="43.2" fill="none" width="89.8" height="63.4"/>
							<rect x="215.9" y="43.2" fill="#2C110D" width="89.8" height="63.4"/>
						</g>
						<g clip-path="url(#SVGID_1_)">
							<rect x="215.9" y="106.5" fill="none" width="89.8" height="63.4"/>
							<rect x="215.9" y="106.5" fill="#2C110D" width="89.8" height="63.4"/>
						</g>
						<g clip-path="url(#SVGID_1_)">
							<rect x="126.1" y="43.2" fill="none" width="89.8" height="63.4"/>
							<rect x="126.1" y="43.2" fill="#2C110D" width="89.8" height="63.4"/>
						</g>
						<g clip-path="url(#SVGID_1_)">
							<rect x="126.1" y="106.5" fill="none" width="89.8" height="63.4"/>
							<rect x="126.1" y="106.5" fill="#2C110D" width="89.8" height="63.4"/>
						</g>
					</g>
				</g>
			</g>
		</g>
		<g>
			<path fill="#D79344" d="M216.5,85.5c0,0-0.9,3.8-5.2,7.8c-3.1,3-10.4,7-12.7,11.6c-4.7,9.7,2.4,23.2,15.1,22.7
				c15.8-0.7,22.9-5.2,16.8-15.5c0,0-30.1,13.5-22.9-1.7c5.4-11.5,20.4-6.6,22.3-17.7c1.9-11.1-5.6-7.2-5.6-7.2"/>
		</g>
		<g>
			<g>
				<g>
					<defs>
						<path id="SVGID_55_" d="M229.9,87.5c0.1,1.3-0.1,1.6-0.4,2.9c-0.6,2.5-2.1,4.7-3.9,6.4c-3.3,3.2-7.7,4.3-12,5.5
							c-3.5,1-7.2,2.7-9.1,6c-3,5.2,2,10.3,6.8,11.4c4.5,1,9.5-0.4,13.5-2.4c1.8-0.9,3.5-2.1,4.8-3.7c0.6-0.7,1-1.4,1.3-2.2
							c0.9-2.3-1.4,0.8-2.5,0.3c0.2,0.1,0.5,0.4-0.1-0.1c0.1,0.1,0.3,0.2,0.4,0.3c0.4,0.3,0.7,0.7,1,1.1c0.4,0.5,0-0.1,0.3,0.4
							c0.2,0.2,0.3,0.5,0.5,0.7c0.2,0.3,0.3,0.5,0.5,0.8c0.1,0.2,0.5,1.1,0.4,0.7c1.2,2.9,0.6,5.2-2,7.4c-2.1,1.9-5,2.9-7.7,3.8
							c-4.7,1.5-9.7,2.3-14.6,2.8c-6.4,0.7-13.5,0.4-19.2-3.1c-8.2-5-8.4-15.5-4.7-23.3c4.7-9.9,14.7-16.2,25.5-16.3
							c2.6,0,2.6-4,0-4c-11.9,0.1-22.8,6.7-28.4,17.2c-4.7,8.7-5.2,20.4,2.5,27.6c4.5,4.2,10.7,5.7,16.6,6.1c4.5,0.3,9.1-0.3,13.5-1
							c4.3-0.6,8.6-1.6,12.7-3.2c4.3-1.7,9-4.5,10.1-9.3c0.7-3.1-0.3-6.4-2.1-8.9c-1.2-1.7-4-5.3-6.1-2.6c-0.3,0.4-0.2,0.9-0.4,1.3
							c-0.4,0.8-1,1.3-1.6,1.9c-1.9,1.7-4.4,2.6-6.8,3.3c-3,0.8-6.8,1.1-9.4-1c-1.6-1.3-2.2-2.9-1-4.6c2.2-3.4,7.9-3.9,11.3-5
							c6.4-2.2,11.9-6.7,13.7-13.4c0.3-1.2,0.6-2.6,0.5-3.9C233.8,85,229.8,84.9,229.9,87.5L229.9,87.5z"/>
					</defs>
					<clipPath id="SVGID_2_">
						<use xlink:href="#SVGID_55_"  overflow="visible"/>
					</clipPath>
					<g clip-path="url(#SVGID_2_)">
						<rect x="232.9" y="63.9" fill="none" width="89.8" height="63.4"/>
						<rect x="232.9" y="63.9" fill="#2C110D" width="89.8" height="63.4"/>
					</g>
					<g clip-path="url(#SVGID_2_)">
						<rect x="232.9" y="127.3" fill="none" width="89.8" height="63.4"/>
						<rect x="232.9" y="127.3" fill="#2C110D" width="89.8" height="63.4"/>
					</g>
					<g clip-path="url(#SVGID_2_)">
						<rect x="143.1" y="63.9" fill="none" width="89.8" height="63.4"/>
						<rect x="143.1" y="63.9" fill="#2C110D" width="89.8" height="63.4"/>
					</g>
					<g clip-path="url(#SVGID_2_)">
						<rect x="143.1" y="127.3" fill="none" width="89.8" height="63.4"/>
						<rect x="143.1" y="127.3" fill="#2C110D" width="89.8" height="63.4"/>
					</g>
				</g>
			</g>
		</g>
		<g>
			<g>
				<path fill="#2C110D" d="M324.1,190.1c0-17.7-4.8-35-13.6-50.3c-8.7-15.3-21.4-28.1-36.1-37.8c-31.7-20.8-72.8-25.4-108.7-13.7
					c-33.8,11.1-62.4,37.2-73.5,71.4c-5.6,17.3-6.1,36.2-1.9,53.9c4.3,18,13.8,34.4,26.5,47.7c13.2,13.8,29.9,24,47.9,30.1
					c0.6,0.2,1.1,0.4,1.7,0.6c-0.5-0.2-1-0.8-0.7-0.6c0.1,0.1,0.1,0.1,0.2,0.2c0.3,0.3,0.6,0.7,0.9,1c1.2,1.3,2.3,2.6,3.5,4
					c3.8,4.3,7.6,8.7,11.4,13c7.5,8.6,15,17.2,22.5,25.7c1,1.2,3.2,1.2,4.3,0c12.3-14.4,24.5-28.9,36.8-43.3
					c0.2-0.2,0.4-0.4,0.5-0.6c0,0,0,0,0,0c-0.3,0.2-0.5,0.4-0.8,0.6c0.4-0.1,0.7-0.2,1.1-0.4c1.3-0.4,2.6-0.9,3.9-1.4
					c4.6-1.7,9.1-3.7,13.4-5.9c8.5-4.3,16.4-9.7,23.6-15.8c14-12,24.9-27.6,31.2-45C322.2,213,324.1,201.5,324.1,190.1
					c0-3.9-6-3.9-6,0c-0.1,18.4-5.5,36.3-15.5,51.7c-10,15.6-24.3,28-40.6,36.7c-4.2,2.2-8.5,4.2-13,5.9c-2.1,0.8-4.8,1.3-6.8,2.4
					c-0.4,0.3-0.6,0.5-0.9,0.9c-2.4,2.8-4.8,5.6-7.1,8.4c-8,9.4-16,18.9-24,28.3c-1.9,2.3-3.9,4.6-5.8,6.9c1.4,0,2.8,0,4.3,0
					c-12.6-14.3-25.1-28.7-37.7-43c-1.2-1.4-2.5-1.8-4.4-2.4c-4.5-1.5-8.9-3.3-13.2-5.4c-8.4-4.1-16.4-9.2-23.5-15.2
					c-13.9-11.7-24.9-26.9-30.9-44.1c-6-17-6.8-35.6-2.6-53.1c4-16.6,12.7-31.9,24.4-44.3c25.5-27.1,63.7-39,100.3-34.7
					c35.3,4.1,68.5,24.7,85.6,56.2c7.5,13.8,11.4,29.3,11.5,45C318.1,194,324.1,194,324.1,190.1z"/>
			</g>
		</g>
		<g opacity="0.4">
			<g>
				<path fill="#CA3650" d="M279.5,186.3c1.5,0.7,3.3,0.6,4.6-0.5c1.1-1,1.4-2.3,0.4-3.4c-1.3-1.5-4.3-1.5-6-1.2
					c-2.3,0.3-4.6,1.2-6,3.1c-1.2,1.6-0.9,4,0.4,5.5c1.5,1.7,4.3,1.9,6.4,2c5.3,0.2,11.7,0.5,14.8-4.6c0.3-0.6-0.5-1.1-0.9-0.5
					c-2.4,3.9-6.4,4-10.5,4.1c-3,0-8.5,0.7-9.8-2.8c-1.5-4,4-5.8,6.9-5.9c1.2,0,5,0.3,4.2,2.2c-0.6,1.5-2.8,1.7-4,1.1
					C279.5,185.2,279,186,279.5,186.3L279.5,186.3z"/>
			</g>
		</g>
		<g opacity="0.4">
			<g>
				<path fill="#E04358" d="M132.8,185.4c-1.3,0.6-3,0.3-3.9-0.9c-1.4-1.9,2.6-2.4,3.7-2.5c3.4-0.1,8.3,1.7,7.3,5.9
					c-0.8,3.4-6.9,2.8-9.4,2.8c-4.3-0.1-8.4,0-10.9-4.1c-0.3-0.6-1.2,0-0.9,0.5c3.1,5.1,9.1,4.7,14.4,4.6c2.3,0,4.7-0.3,6.6-1.7
					c1.7-1.4,1.7-4,0.7-5.7c-1.9-3.2-8.9-4.6-11.8-2.1c-1.2,1-1,2.3,0,3.4c1.2,1.3,3.3,1.4,4.8,0.7
					C133.8,186,133.3,185.2,132.8,185.4L132.8,185.4z"/>
			</g>
		</g>
	</g>
	<g>
		<g>
			<path fill="#201410" d="M170.7,145.3c-0.5,0.3-1.2,0.5-1.8,0.5c-2.4,0-4.4-2.3-4.4-5.1c0-1.2,0.3-2.3,0.9-3.2
				c-2.8-0.7-5.9,1.2-7.5,5.2c-4.4,5.7-2.8,21.4-1.5,28c1.7,12.2,12.7,15.2,14.8,3.8c1.3-7.6,0.8-21.1-0.4-28.7
				C170.8,145.6,170.7,145.5,170.7,145.3z"/>
		</g>
		<g>
			<path fill="#201410" d="M252.6,145.8c-2.4,0-4.4-2.3-4.4-5.1c0-1.1,0.3-2.2,0.9-3c-3.3-1.1-7,1.2-8.1,8.2
				c-1.3,7.6-1.7,21.1-0.4,28.7c2.1,11.4,13.1,8.4,14.8-3.8c1.1-5.9,2.5-19-0.3-25.8C254.3,145.4,253.5,145.8,252.6,145.8z"/>
		</g>
	</g>
	<g>
		<g>
			<g>
				<path fill="#2C110D" d="M151.3,225.5c7.3,3.8,15.4,6.1,23.3,8c18.7,4.4,38.2,4.8,57,1.2c9.9-1.9,19.6-5.1,28.8-9.2
					c2.4-1,0.3-4.5-2-3.5c-20.6,9.1-43.2,12.6-65.6,10.5c-12.4-1.2-25.6-4.4-36.7-9.2c-0.9-0.4-1.9-0.8-2.8-1.3
					C151,220.9,149,224.3,151.3,225.5L151.3,225.5z"/>
			</g>
		</g>
		<g>
			<g>
				<path fill="#2C110D" d="M255.5,217.9c1.6,4.8,5.2,9.4,10.5,10c2.6,0.3,2.5-3.7,0-4c-3.4-0.4-5.8-4.6-6.6-7.1
					C258.6,214.4,254.7,215.4,255.5,217.9L255.5,217.9z"/>
			</g>
		</g>
		<g>
			<g>
				<path fill="#2C110D" d="M151.6,217.2c-0.8,2.5-3.2,6.7-6.6,7.1c-2.5,0.3-2.6,4.3,0,4c5.3-0.6,8.9-5.2,10.5-10
					C156.3,215.8,152.4,214.8,151.6,217.2L151.6,217.2z"/>
			</g>
		</g>
	</g>
</g>
<g>
	<path fill="#3D3D3B" d="M79.9,354.3c0,1.6-0.1,3.2-0.1,4.9c0,3.4,0.1,7.1,0.2,11.1c4.4-4.9,8.5-10.6,12.3-17.3l8.1,2.1
		c-4.6,5.2-9.6,10.6-14.9,16.5c4,4.4,8.8,9.4,14.3,14.9l-4.9,7.4c-3.4-5.1-7.8-10.9-13.2-17.7l-0.7,1.1l0.4,15.9l-7.5-0.3
		c0.1-2.8,0.1-5.7,0.1-8.7c0-9-0.2-18.9-0.6-29.8L79.9,354.3z"/>
	<path fill="#3D3D3B" d="M105.7,391.6c0.1-5.1,0.1-10.1,0.1-14.9c0-7.2-0.1-14.1-0.2-20.7l6.9-0.6c-0.4,12.8-0.6,24.8-0.6,36
		L105.7,391.6z"/>
	<path fill="#3D3D3B" d="M123.3,355.9c3.6,0,6.9,0.5,9.7,1.5c4,1.5,6.4,5.3,7.4,11.5c0.2,1.4,0.3,2.8,0.3,4.2c0,4.5-1.2,8.5-3.6,12
		c-3.1,4.6-9.2,7-18.3,7c0.1-2.4,0.1-5,0.1-7.9c0-7.5-0.2-16.8-0.5-28C120.1,356,121.7,355.9,123.3,355.9z M133.7,381.1
		c1.5-2,2.2-4.4,2.2-7.2c0-1.2-0.1-2.4-0.4-3.8c-0.9-4.3-4.2-6.7-10-7c-0.4,5.5-0.6,13-0.8,22.5
		C128.6,385.6,131.5,384.1,133.7,381.1z"/>
	<path fill="#3D3D3B" d="M172.2,356l-0.1,5.8c-3-0.3-6.5-0.5-10.5-0.6v8.1l10.3-0.3l0.1,6.2l-9.3,0.3l-0.3,13.8l-5.9,0.6
		c0.5-8.8,0.7-20,0.8-33.4L172.2,356z"/>
	<path fill="#3D3D3B" d="M175,354.6c0.8,0,1.5,0,2.2,0c5.8,0,10.1,0.5,12.6,1.4c2.9,1.1,4.8,2.4,5.8,4.2c0.7,1.2,1,2.7,1,4.5
		c0,0.7,0,1.4-0.1,2.2c-0.4,2.7-3.7,5.7-10,8.9c2.8,3.2,6.7,7.4,11.5,12.6l-6,5.1c-2.9-4.7-6.6-9.8-11.1-15.5l0.9,13.5l-6.3,0.5
		C175.5,381.3,175.4,368.9,175,354.6z M181,360.5l-0.1,12c5.4-2.5,8.5-4.7,9.4-6.5c0.4-0.9,0.6-1.7,0.6-2.4c0-0.7-0.2-1.3-0.7-1.8
		c-0.9-0.9-2.2-1.4-3.7-1.4c-0.5,0-1.1,0-1.7,0C183.7,360.3,182.4,360.4,181,360.5z"/>
	<path fill="#3D3D3B" d="M203.3,391.6c0.1-5.1,0.1-10.1,0.1-14.9c0-7.2-0.1-14.1-0.2-20.7l6.9-0.6c-0.4,12.8-0.6,24.8-0.6,36
		L203.3,391.6z"/>
	<path fill="#3D3D3B" d="M234.1,356.1l-0.2,6.1c-1,0-2,0-2.9,0c-3.7,0-6.7,0.1-9,0.4v8.5l11.2-0.1l-0.2,6.2h-9.5l0.1,7.1l9.8-0.1
		l0.1,7.8l-17.5-0.7c0.7-10.8,1.1-22.1,1.4-33.9C220.7,357.1,226.3,356.7,234.1,356.1z"/>
	<path fill="#3D3D3B" d="M236.9,392.3c0.7-11.3,1-21.2,1-29.6c0-1.9,0-3.7-0.1-5.5l7.6-0.4c3.6,10.1,6.7,18,9.5,23.7
		c0.3-10.2,0.4-18.8,0.4-25.7l8-0.5c-1.3,13.6-2.1,25.8-2.5,36.4l-6.7,0.7c-3.4-8.4-6.6-16.3-9.8-23.8c-0.7,9.2-1.1,17.6-1.1,25.4
		L236.9,392.3z"/>
	<path fill="#3D3D3B" d="M270.5,355.9c3.6,0,6.9,0.5,9.7,1.5c4,1.5,6.4,5.3,7.4,11.5c0.2,1.4,0.3,2.8,0.3,4.2c0,4.5-1.2,8.5-3.6,12
		c-3.1,4.6-9.2,7-18.3,7c0.1-2.4,0.1-5,0.1-7.9c0-7.5-0.2-16.8-0.5-28C267.3,356,268.9,355.9,270.5,355.9z M280.8,381.1
		c1.5-2,2.2-4.4,2.2-7.2c0-1.2-0.1-2.4-0.4-3.8c-0.9-4.3-4.2-6.7-10-7c-0.4,5.5-0.6,13-0.8,22.5
		C275.7,385.6,278.7,384.1,280.8,381.1z"/>
	<path fill="#3D3D3B" d="M291,392c0-3.4,0-6.6,0-9.6c0-11.2-0.2-19.6-0.6-25.5l7.1-0.5c-0.7,11.7-1.1,21.1-1.1,28.3
		c5.1-0.2,9.8-0.6,14-1.2l-0.2,8.4c-3.5-0.2-6.7-0.3-9.7-0.3C297,391.6,293.8,391.7,291,392z"/>
	<path fill="#3D3D3B" d="M318.6,355.6c1.8,7,4,12.9,6.6,17.7c2.9-6,5.4-11.9,7.5-17.7l5.6,2.2c-7.1,14.3-12,25.9-14.8,34.6l-7.1-1.3
		c1.8-4.2,3.4-8.1,4.7-11.5c-2.7-6.2-5.8-13.2-9.5-21L318.6,355.6z"/>
</g>
</svg>
