<?xml version="1.0" encoding="utf-8"?>
<!-- Generator: Adobe Illustrator 18.0.0, SVG Export Plug-In . SVG Version: 6.00 Build 0)  -->
<!DOCTYPE svg PUBLIC "-//W3C//DTD SVG 1.1//EN" "http://www.w3.org/Graphics/SVG/1.1/DTD/svg11.dtd">
<svg version="1.1" id="Camada_1" xmlns="http://www.w3.org/2000/svg" xmlns:xlink="http://www.w3.org/1999/xlink" x="0px" y="0px"
	 viewBox="0 0 411.7 411.7" enable-background="new 0 0 411.7 411.7" xml:space="preserve">
<g>
	<g>
		<g>
			<g>
				<path fill="#F19805" d="M245,100.9c0.7-2.9,1-5.8,1-8.9c0-8.6-2.8-16.6-7.5-23.2c-7.3-10-19.2-11.1-32.6-11.1
					c-13.9,0-26.1,1.5-33.3,12.1c-4.3,6.3-6.8,14-6.8,22.2c0,3,0.4,6,1,8.8C173.2,103.3,210.3,115.9,245,100.9z"/>
			</g>
			<g>
				<g>
					<path fill="#1E110C" d="M246.9,101.4c2.4-11,0.5-22.5-5.6-32c-5.3-8.1-13.4-11.8-22.8-13c-5-0.7-10.1-0.7-15.1-0.6
						c-4.8,0.1-9.6,0.4-14.3,1.4c-4.3,0.9-8.4,2.6-11.9,5.1c-3.9,2.8-6.7,6.7-8.9,10.9c-2.5,4.8-3.9,10-4.4,15.4
						c-0.3,2.9-0.2,5.7,0.2,8.6c0.3,2.2,0.2,4.8,2.5,5.7c5.2,1.9,10.7,3.4,16.1,4.5c20.5,4.3,42.5,3.8,62.1-4.3
						c0.4-0.2,0.8-0.3,1.2-0.5c2.3-1,0.3-4.4-2-3.4c-23.9,10.2-52.7,8.8-76.8-0.3c0.5,0.5,0.9,0.9,1.4,1.4
						c-2.4-10.8-0.1-23.2,7.4-31.7c6.2-7.1,16.1-8.5,25-8.8c9.3-0.4,19.9-0.6,28.4,3.7c9.1,4.7,13.8,16,14.6,25.8
						c0.3,3.7-0.1,7.4-0.9,11C242.5,102.9,246.3,103.9,246.9,101.4z"/>
				</g>
			</g>
		</g>
		<g>
			<g>
				<rect x="204" y="36.9" fill="#9B9BA0" width="1.9" height="16.6"/>
				<rect x="201.6" y="34.5" fill="#1E110C" width="6.6" height="21.4"/>
			</g>
			<g>
				<ellipse fill="#E59303" cx="204.9" cy="55.8" rx="5.1" ry="4.3"/>
				<path fill="#1E110C" d="M204.9,61.9c-3.8,0-6.9-2.7-6.9-6.1c0-3.3,3.1-6.1,6.9-6.1c3.8,0,6.9,2.7,6.9,6.1
					C211.8,59.1,208.7,61.9,204.9,61.9z M204.9,53.3c-1.8,0-3.4,1.1-3.4,2.5c0,1.4,1.5,2.5,3.4,2.5c1.8,0,3.4-1.1,3.4-2.5
					C208.3,54.4,206.7,53.3,204.9,53.3z"/>
			</g>
			<g>
				<path fill="#ECB043" d="M202.1,34.6c0,0-21-6.6-26.6-1.1c-5.6,5.5,23.1,7.9,26.6,2.2"/>
				<path fill="#1E110C" d="M189.7,41.4c-2.1,0-4.2-0.1-5.8-0.3c-6.6-0.7-10.3-2.4-11.2-5c-0.2-0.7-0.6-2.5,1.2-4.3
					c2.9-2.9,8.6-3.6,17.4-2.2c6.1,1,11.3,2.6,11.5,2.7l-1,3.2l2.3,1.4C202,40.4,195.5,41.4,189.7,41.4z M177.7,34.8
					c2.2,1.1,8.5,2.2,15.2,1.7c1.9-0.2,3.4-0.4,4.4-0.7c-1.9-0.5-4.4-1-6.9-1.4C182.4,33,179.1,34,177.7,34.8z"/>
			</g>
			<g>
				<path fill="#ECB043" d="M207.7,34.6c0,0,21-6.6,26.6-1.1c5.6,5.5-23.1,7.9-26.6,2.2"/>
				<path fill="#1E110C" d="M220.1,41.4c-5.8,0-12.3-1-14.5-4.4l2.3-1.4l-1-3.2c0.2-0.1,5.5-1.7,11.5-2.7c8.8-1.4,14.5-0.7,17.4,2.2
					c1.8,1.8,1.5,3.6,1.2,4.3c-0.9,2.6-4.7,4.2-11.2,5C224.3,41.2,222.3,41.4,220.1,41.4z M212.4,35.8c1.1,0.3,2.5,0.5,4.4,0.7
					c6.7,0.5,13-0.6,15.2-1.7c-1.3-0.8-4.6-1.8-12.8-0.4C216.7,34.8,214.3,35.3,212.4,35.8z"/>
			</g>
			<g>
				<circle fill="#E59303" cx="204.9" cy="35.2" r="2.8"/>
				<path fill="#1E110C" d="M204.9,40.3c-2.8,0-5.1-2.3-5.1-5.1c0-2.8,2.3-5.1,5.1-5.1c2.8,0,5.1,2.3,5.1,5.1
					C210.1,38,207.7,40.3,204.9,40.3z M204.9,34.8c-0.2,0-0.4,0.2-0.4,0.4c0,0.2,0.2,0.4,0.4,0.4c0.2,0,0.4-0.2,0.4-0.4
					C205.3,34.9,205.1,34.8,204.9,34.8z"/>
			</g>
		</g>
		<g>
			<g>
				<rect x="204" y="36.9" fill="#9B9BA0" width="1.9" height="16.6"/>
			</g>
			<g>
				<ellipse fill="#E59303" cx="204.9" cy="55.8" rx="5.1" ry="4.3"/>
				<path fill="#1E110C" d="M204.9,62.4c-4.1,0-7.5-3-7.5-6.6c0-3.7,3.4-6.6,7.5-6.6c4.1,0,7.5,3,7.5,6.6
					C212.4,59.5,209.1,62.4,204.9,62.4z M204.9,53.9c-1.5,0-2.8,0.9-2.8,1.9c0,1,1.3,1.9,2.8,1.9c1.5,0,2.8-0.9,2.8-1.9
					C207.7,54.8,206.4,53.9,204.9,53.9z"/>
			</g>
			<g>
				<ellipse fill="#E59303" cx="204.9" cy="55.8" rx="5.1" ry="4.3"/>
			</g>
			<g>
				<path fill="#ECB043" d="M202.1,34.6c0,0-21-6.6-26.6-1.1c-5.6,5.5,23.1,7.9,26.6,2.2"/>
			</g>
			<g>
				<path fill="#DF9406" d="M207.7,34.6c0,0,21-6.6,26.6-1.1c5.6,5.5-23.1,7.9-26.6,2.2"/>
			</g>
			<g>
				<path fill="#E59303" d="M201.7,33.9c0,0-12.1-2.7-15.6-2.4c0,0,0.7,6.9,14.6,5.6C200.7,37,201.4,36.7,201.7,33.9z"/>
			</g>
			<g>
				<path fill="#CF7F10" d="M209.3,34c0,0,8.9-2.5,15.8,4.8c0,0-11.8,1.1-16.3-1.9C208.9,36.9,209.4,35,209.3,34z"/>
			</g>
			<g>
				<circle fill="#E59303" cx="204.9" cy="35.2" r="2.8"/>
				<path fill="#1E110C" d="M204.9,39.7c-2.5,0-4.5-2-4.5-4.5c0-2.5,2-4.5,4.5-4.5s4.5,2,4.5,4.5C209.5,37.7,207.4,39.7,204.9,39.7z
					 M204.9,34.2c-0.5,0-1,0.4-1,1c0,0.5,0.4,1,1,1c0.5,0,1-0.4,1-1C205.9,34.6,205.5,34.2,204.9,34.2z"/>
			</g>
			<g>
				<circle fill="#B21827" cx="204.9" cy="35.2" r="2.8"/>
			</g>
		</g>
		<g>
			<path fill="#E56113" d="M193,59.1c0,0-10,19.2-7.2,36.4c0,0,29.4-4.1,37.7,1.1c8.3,5.2,1.4-39.7-5.1-39.6
				C211.9,57.1,193,59.1,193,59.1z"/>
		</g>
		<g opacity="0.6">
			<g>
				<path fill="#AC2318" d="M239.8,68.9c-7.3-10-19.2-11.1-32.6-11.1v50.3c12.2,0.2,25.8-1.4,39.1-7.2c0.7-2.9,1-5.8,1-8.9
					C247.4,83.4,244.6,75.4,239.8,68.9z"/>
			</g>
		</g>
		<g>
			<g>
				<path fill="#2C110D" d="M247.9,101.7c2.5-11.3,0.5-23-5.7-32.7c-5.5-8.5-13.9-12.2-23.6-13.5c-5-0.7-10.1-0.7-15.1-0.6
					c-4.9,0.1-9.8,0.4-14.6,1.4c-4.3,0.9-8.6,2.6-12.2,5.2c-4,2.9-7,6.9-9.2,11.3c-2.6,5-4,10.3-4.5,15.9c-0.3,2.9-0.2,5.7,0.2,8.6
					c0.3,2.7,0.4,5.6,3.3,6.6c5.2,1.9,10.7,3.4,16.1,4.5c20.7,4.3,42.9,3.9,62.6-4.3c0.5-0.2,0.9-0.4,1.4-0.6
					c1.5-0.6,1.8-2.8,1.1-4.1c-0.9-1.5-2.6-1.7-4.1-1.1c-23.6,10.1-52.2,8.6-76-0.4c0.7,0.7,1.4,1.4,2.1,2.1
					c-2.3-10.5-0.1-22.5,7.1-30.7c6-6.9,15.6-8.2,24.3-8.5c9.1-0.3,19.6-0.7,27.9,3.6c8.8,4.5,13.3,15.5,14.1,24.9
					c0.3,3.6,0,7.2-0.8,10.8C241.3,103.8,247,105.4,247.9,101.7z"/>
			</g>
		</g>
		<g>
			<g>
				<path fill="#F6CBBE" d="M319.6,199c0-57.3-50.9-103.7-113.7-103.7c-62.8,0-113.7,46.4-113.7,103.7c0,45.3,31.9,83.8,76.3,97.9
					l38,43.4l36.9-43.4C287.7,282.8,319.6,244.3,319.6,199z"/>
			</g>
			<g>
				<g>
					<path fill="#1E110C" d="M322.5,199c0-17.4-4.7-34.5-13.4-49.6c-8.6-15.1-21.1-27.7-35.6-37.3C242.3,91.5,201.7,87,166.3,98.6
						c-33.4,11-61.6,36.7-72.5,70.5c-5.5,17.1-6,35.7-1.9,53.1c4.2,17.7,13.7,34,26.2,47.1c13,13.6,29.5,23.7,47.3,29.7
						c0.5,0.2,1.1,0.4,1.6,0.5c-0.5-0.2-1-0.8-0.7-0.6c0.1,0.1,0.1,0.1,0.2,0.2c0.3,0.3,0.6,0.7,0.9,1c1.1,1.3,2.3,2.6,3.4,3.9
						c3.7,4.3,7.5,8.6,11.2,12.9c7.4,8.5,14.8,16.9,22.2,25.4c1,1.1,3.2,1.2,4.2,0c12.1-14.2,24.2-28.5,36.3-42.7
						c0.2-0.2,0.4-0.4,0.5-0.6c0,0,0,0,0,0c-0.3,0.2-0.5,0.4-0.8,0.6c0.4-0.1,0.7-0.2,1.1-0.4c1.3-0.4,2.5-0.9,3.8-1.3
						c4.5-1.7,8.9-3.6,13.2-5.8c8.4-4.2,16.1-9.5,23.2-15.6c13.9-11.9,24.6-27.2,30.8-44.4C320.6,221.5,322.5,210.2,322.5,199
						c0-3.8-5.9-3.8-5.9,0c-0.1,18.2-5.5,35.8-15.3,51.1c-9.9,15.4-24,27.6-40.1,36.2c-4.1,2.2-8.4,4.1-12.8,5.8
						c-2.1,0.8-4.8,1.2-6.7,2.4c-0.4,0.3-0.6,0.5-0.9,0.9c-2.3,2.8-4.7,5.5-7,8.3c-7.9,9.3-15.8,18.6-23.7,27.9
						c-1.9,2.3-3.8,4.5-5.8,6.8c1.4,0,2.8,0,4.2,0c-12.4-14.2-24.8-28.3-37.2-42.5c-1.2-1.4-2.5-1.8-4.3-2.4
						c-4.5-1.5-8.8-3.3-13.1-5.3c-8.3-4-16.2-9.1-23.2-15c-13.7-11.5-24.5-26.5-30.5-43.5c-5.9-16.8-6.7-35.1-2.5-52.4
						c4-16.4,12.6-31.4,24.1-43.7c25.2-26.7,62.9-38.4,98.9-34.2c34.8,4.1,67.6,24.4,84.5,55.4c7.4,13.6,11.3,28.9,11.3,44.4
						C316.6,202.8,322.5,202.8,322.5,199z"/>
				</g>
			</g>
		</g>
		<g opacity="0.7">
			<path fill="#ECB0A0" d="M206.3,96.5l0,242.7l37.4-42.8c0,0,83.4-25.6,73.6-108.7C307.8,107,244.9,103.1,206.3,96.5z"/>
		</g>
		<g>
			<g>
				<path fill="#ECB043" d="M231.5,97.7c0,0,0.6,12.1-15.6,16c-16.2,3.9-10.3,13.5-3,14.1c7.3,0.6,15.6-4.1,16-7.9
					c0.1-0.9,19.5,16.9-21.4,21.4c-44.1,4.9-31.5-46,1.1-46"/>
			</g>
			<g>
				<g>
					<g>
						<defs>
							<path id="SVGID_68_" d="M229.6,97.7c0.1,1.3-0.1,1.5-0.4,2.8c-0.6,2.5-2,4.6-3.8,6.4c-3.3,3.2-7.6,4.2-11.8,5.5
								c-3.4,1-7.1,2.7-9,5.9c-3,5.1,2,10.2,6.7,11.3c4.4,1,9.4-0.4,13.3-2.3c1.8-0.9,3.5-2.1,4.8-3.6c0.6-0.7,1-1.4,1.3-2.2
								c0.9-2.3-1.4,0.8-2.4,0.2c0.2,0.1,0.5,0.4-0.1-0.1c0.1,0.1,0.3,0.2,0.4,0.3c0.4,0.3,0.7,0.7,1,1.1c0.4,0.5,0-0.1,0.3,0.4
								c0.2,0.2,0.3,0.5,0.5,0.7c0.2,0.3,0.3,0.5,0.5,0.8c0.1,0.2,0.5,1.1,0.3,0.7c1.2,2.9,0.6,5.1-2,7.3c-2.1,1.8-5,2.9-7.6,3.7
								c-4.7,1.5-9.6,2.2-14.4,2.7c-6.4,0.7-13.3,0.4-18.9-3c-8.1-4.9-8.3-15.3-4.6-23c4.6-9.7,14.5-16,25.2-16.1c2.6,0,2.6-4,0-4
								c-11.7,0.1-22.5,6.6-28.1,17c-4.6,8.6-5.1,20.2,2.5,27.3c4.4,4.1,10.5,5.7,16.4,6c4.5,0.3,9-0.3,13.4-1
								c4.2-0.6,8.5-1.6,12.5-3.1c4.2-1.7,8.9-4.4,10-9.2c0.7-3.1-0.3-6.3-2.1-8.8c-1.2-1.7-3.9-5.2-6-2.6c-0.3,0.4-0.2,0.9-0.4,1.3
								c-0.4,0.7-1,1.3-1.6,1.9c-1.8,1.6-4.3,2.6-6.7,3.2c-3,0.8-6.8,1.1-9.3-0.9c-1.6-1.3-2.2-2.9-1-4.6c2.2-3.4,7.8-3.8,11.2-5
								c6.3-2.1,11.7-6.6,13.5-13.2c0.3-1.2,0.6-2.6,0.5-3.9C233.4,95.2,229.4,95.2,229.6,97.7L229.6,97.7z"/>
						</defs>
						<clipPath id="SVGID_1_">
							<use xlink:href="#SVGID_68_"  overflow="visible"/>
						</clipPath>
						<g clip-path="url(#SVGID_1_)">
							<rect x="215.7" y="54" fill="none" width="88.6" height="62.5"/>
							<rect x="215.7" y="54" fill="#2C110D" width="88.6" height="62.5"/>
						</g>
						<g clip-path="url(#SVGID_1_)">
							<rect x="215.7" y="116.5" fill="none" width="88.6" height="62.5"/>
							<rect x="215.7" y="116.5" fill="#2C110D" width="88.6" height="62.5"/>
						</g>
						<g clip-path="url(#SVGID_1_)">
							<rect x="127.1" y="54" fill="none" width="88.6" height="62.5"/>
							<rect x="127.1" y="54" fill="#2C110D" width="88.6" height="62.5"/>
						</g>
						<g clip-path="url(#SVGID_1_)">
							<rect x="127.1" y="116.5" fill="none" width="88.6" height="62.5"/>
							<rect x="127.1" y="116.5" fill="#2C110D" width="88.6" height="62.5"/>
						</g>
					</g>
				</g>
			</g>
		</g>
		<g>
			<path fill="#D79344" d="M216.4,95.7c0,0-0.9,3.7-5.1,7.7c-3.1,3-10.3,7-12.5,11.5c-4.7,9.6,2.4,22.9,14.9,22.4
				c15.6-0.7,22.6-5.1,16.5-15.3c0,0-29.7,13.3-22.6-1.6c5.3-11.3,20.1-6.5,22-17.5c1.9-11-5.6-7.1-5.6-7.1"/>
		</g>
		<g>
			<g>
				<g>
					<defs>
						<path id="SVGID_70_" d="M229.6,97.7c0.1,1.3-0.1,1.5-0.4,2.8c-0.6,2.5-2,4.6-3.8,6.4c-3.3,3.2-7.6,4.2-11.8,5.5
							c-3.4,1-7.1,2.7-9,5.9c-3,5.1,2,10.2,6.7,11.3c4.4,1,9.4-0.4,13.3-2.3c1.8-0.9,3.5-2.1,4.8-3.6c0.6-0.7,1-1.4,1.3-2.2
							c0.9-2.3-1.4,0.8-2.4,0.2c0.2,0.1,0.5,0.4-0.1-0.1c0.1,0.1,0.3,0.2,0.4,0.3c0.4,0.3,0.7,0.7,1,1.1c0.4,0.5,0-0.1,0.3,0.4
							c0.2,0.2,0.3,0.5,0.5,0.7c0.2,0.3,0.3,0.5,0.5,0.8c0.1,0.2,0.5,1.1,0.3,0.7c1.2,2.9,0.6,5.1-2,7.3c-2.1,1.8-5,2.9-7.6,3.7
							c-4.7,1.5-9.6,2.2-14.4,2.7c-6.4,0.7-13.3,0.4-18.9-3c-8.1-4.9-8.3-15.3-4.6-23c4.6-9.7,14.5-16,25.2-16.1c2.6,0,2.6-4,0-4
							c-11.7,0.1-22.5,6.6-28.1,17c-4.6,8.6-5.1,20.2,2.5,27.3c4.4,4.1,10.5,5.7,16.4,6c4.5,0.3,9-0.3,13.4-1
							c4.2-0.6,8.5-1.6,12.5-3.1c4.2-1.7,8.9-4.4,10-9.2c0.7-3.1-0.3-6.3-2.1-8.8c-1.2-1.7-3.9-5.2-6-2.6c-0.3,0.4-0.2,0.9-0.4,1.3
							c-0.4,0.7-1,1.3-1.6,1.9c-1.8,1.6-4.3,2.6-6.7,3.2c-3,0.8-6.8,1.1-9.3-0.9c-1.6-1.3-2.2-2.9-1-4.6c2.2-3.4,7.8-3.8,11.2-5
							c6.3-2.1,11.7-6.6,13.5-13.2c0.3-1.2,0.6-2.6,0.5-3.9C233.4,95.2,229.4,95.2,229.6,97.7L229.6,97.7z"/>
					</defs>
					<clipPath id="SVGID_2_">
						<use xlink:href="#SVGID_70_"  overflow="visible"/>
					</clipPath>
					<g clip-path="url(#SVGID_2_)">
						<rect x="232.5" y="74.4" fill="none" width="88.6" height="62.5"/>
						<rect x="232.5" y="74.4" fill="#2C110D" width="88.6" height="62.5"/>
					</g>
					<g clip-path="url(#SVGID_2_)">
						<rect x="232.5" y="137" fill="none" width="88.6" height="62.5"/>
						<rect x="232.5" y="137" fill="#2C110D" width="88.6" height="62.5"/>
					</g>
					<g clip-path="url(#SVGID_2_)">
						<rect x="144" y="74.4" fill="none" width="88.6" height="62.5"/>
						<rect x="144" y="74.4" fill="#2C110D" width="88.6" height="62.5"/>
					</g>
					<g clip-path="url(#SVGID_2_)">
						<rect x="144" y="137" fill="none" width="88.6" height="62.5"/>
						<rect x="144" y="137" fill="#2C110D" width="88.6" height="62.5"/>
					</g>
				</g>
			</g>
		</g>
		<g>
			<g>
				<path fill="#2C110D" d="M322.5,199c0-17.4-4.7-34.5-13.4-49.6c-8.6-15.1-21.1-27.7-35.6-37.3C242.3,91.5,201.7,87,166.3,98.6
					c-33.4,11-61.6,36.7-72.5,70.5c-5.5,17.1-6,35.7-1.9,53.1c4.2,17.7,13.7,34,26.2,47.1c13,13.6,29.5,23.7,47.3,29.7
					c0.5,0.2,1.1,0.4,1.6,0.5c-0.5-0.2-1-0.8-0.7-0.6c0.1,0.1,0.1,0.1,0.2,0.2c0.3,0.3,0.6,0.7,0.9,1c1.1,1.3,2.3,2.6,3.4,3.9
					c3.8,4.3,7.5,8.6,11.2,12.9c7.4,8.5,14.8,16.9,22.2,25.4c1,1.1,3.2,1.2,4.2,0c12.1-14.2,24.2-28.5,36.3-42.7
					c0.2-0.2,0.4-0.4,0.5-0.6c0,0,0,0,0,0c-0.3,0.2-0.5,0.4-0.8,0.6c0.4-0.1,0.7-0.2,1.1-0.4c1.3-0.4,2.5-0.9,3.8-1.3
					c4.5-1.7,8.9-3.6,13.2-5.8c8.4-4.2,16.1-9.5,23.2-15.6c13.9-11.9,24.6-27.2,30.8-44.4C320.6,221.5,322.5,210.2,322.5,199
					c0-3.8-5.9-3.8-5.9,0c-0.1,18.2-5.5,35.8-15.3,51.1c-9.9,15.4-24,27.6-40.1,36.2c-4.1,2.2-8.4,4.1-12.8,5.8
					c-2.1,0.8-4.8,1.2-6.7,2.4c-0.4,0.3-0.6,0.5-0.9,0.9c-2.3,2.8-4.7,5.5-7,8.3c-7.9,9.3-15.8,18.6-23.7,27.9
					c-1.9,2.3-3.8,4.5-5.8,6.8c1.4,0,2.8,0,4.2,0c-12.4-14.2-24.8-28.3-37.2-42.5c-1.2-1.4-2.5-1.8-4.3-2.4
					c-4.5-1.5-8.8-3.3-13.1-5.3c-8.3-4-16.2-9.1-23.2-15c-13.7-11.5-24.5-26.5-30.5-43.5c-5.9-16.8-6.7-35.1-2.5-52.4
					c4-16.4,12.6-31.4,24.1-43.7c25.2-26.7,62.9-38.4,98.9-34.2c34.8,4.1,67.6,24.4,84.5,55.4c7.4,13.6,11.3,28.9,11.3,44.4
					C316.6,202.8,322.5,202.8,322.5,199z"/>
			</g>
		</g>
		<g opacity="0.4">
			<g>
				<path fill="#CA3650" d="M271.4,195.2c1.5,0.7,3.3,0.6,4.5-0.5c1-0.9,1.4-2.2,0.4-3.3c-1.3-1.5-4.2-1.4-6-1.2
					c-2.3,0.3-4.5,1.2-5.9,3.1c-1.2,1.6-0.9,4,0.4,5.4c1.4,1.7,4.3,1.9,6.3,1.9c5.3,0.2,11.5,0.5,14.6-4.6c0.3-0.5-0.5-1-0.9-0.5
					c-2.4,3.9-6.3,4-10.4,4.1c-2.9,0-8.3,0.7-9.7-2.7c-1.5-4,4-5.7,6.8-5.8c1.1,0,5,0.3,4.1,2.2c-0.6,1.4-2.7,1.7-4,1.1
					C271.3,194.1,270.8,194.9,271.4,195.2L271.4,195.2z"/>
			</g>
		</g>
		<g>
			<g>
				<path fill="#2C110D" d="M275.9,167.6c-12-7-27.8-5.9-39.9,0c-2.9,1.4-0.6,5.6,2.3,4.6c0.7-0.1,2.3-0.5,4.5-0.9
					c1.5-0.3,3.1-0.6,5-0.8c0.9-0.1,1.8-0.2,2.8-0.3c1-0.1,1.9-0.2,2.9-0.2c1-0.1,1.9-0.1,2.9-0.1c1,0,1.9,0,2.8,0.1
					c0.9,0.1,1.8,0.1,2.6,0.3c0.8,0.1,1.6,0.3,2.3,0.4c0.7,0.2,1.3,0.4,1.9,0.6c0.6,0.2,1,0.4,1.4,0.6c0.4,0.2,0.7,0.3,0.9,0.4
					c0.2,0.1,0.3,0.2,0.3,0.2s-0.1-0.1-0.3-0.2c-0.2-0.1-0.4-0.4-0.8-0.6c-0.4-0.2-0.8-0.6-1.4-0.8c-0.5-0.3-1.2-0.6-1.9-0.8
					c-0.4-0.1-0.7-0.3-1.1-0.4c-0.4-0.1-0.8-0.2-1.2-0.3c-0.8-0.2-1.7-0.4-2.7-0.5c-0.5,0-0.9-0.1-1.4-0.1c-0.5,0-1-0.1-1.5-0.1
					c-0.9,0-1.9,0-2.9,0.1c-1.2,0-2.6,0-3-0.1c7.8-1.2,16.1-0.3,22.9,3.7C276.2,173.7,278.8,169.2,275.9,167.6z"/>
			</g>
			<g>
				<path fill="#2C110D" d="M179.4,167.6c-12.1-5.9-27.9-7-39.9,0c-2.9,1.7-0.3,6.1,2.6,4.5c6.8-4,15.1-4.9,22.9-3.7
					c-0.4,0.1-1.8,0.1-3,0.1c-1,0-1.9-0.1-2.9-0.1c-0.5,0-1,0-1.5,0.1c-0.5,0-1,0.1-1.4,0.1c-0.9,0.1-1.8,0.3-2.7,0.5
					c-0.4,0.1-0.8,0.2-1.2,0.3c-0.4,0.1-0.8,0.3-1.1,0.4c-0.7,0.3-1.3,0.5-1.9,0.8c-0.6,0.3-1,0.6-1.4,0.8c-0.4,0.2-0.6,0.5-0.8,0.6
					c-0.2,0.1-0.3,0.2-0.3,0.2s0.1-0.1,0.3-0.2c0.2-0.1,0.5-0.3,0.9-0.4c0.4-0.2,0.9-0.4,1.4-0.6c0.6-0.2,1.2-0.4,1.9-0.6
					c0.7-0.2,1.5-0.3,2.3-0.4c0.8-0.1,1.7-0.2,2.6-0.3c0.9-0.1,1.8-0.1,2.8-0.1c1,0,1.9,0,2.9,0.1c1,0.1,1.9,0.1,2.9,0.2
					c1,0.1,1.9,0.2,2.8,0.3c1.8,0.3,3.5,0.5,5,0.8c2.2,0.4,3.8,0.7,4.5,0.9C180,173.1,182.3,169,179.4,167.6z"/>
			</g>
		</g>
		<g opacity="0.4">
			<g>
				<path fill="#CA3650" d="M138.9,194.4c-1.3,0.6-2.9,0.3-3.8-0.9c-1.4-1.9,2.6-2.4,3.6-2.4c3.4-0.1,8.2,1.7,7.2,5.8
					c-0.8,3.4-6.8,2.8-9.3,2.7c-4.2-0.1-8.3,0-10.8-4.1c-0.3-0.5-1.2,0-0.9,0.5c3.1,5.1,8.9,4.6,14.2,4.6c2.3,0,4.7-0.3,6.5-1.7
					c1.7-1.3,1.7-4,0.7-5.7c-1.9-3.1-8.8-4.5-11.6-2.1c-1.1,1-1,2.3,0,3.3c1.2,1.3,3.2,1.4,4.8,0.7
					C140,194.9,139.5,194.1,138.9,194.4L138.9,194.4z"/>
			</g>
		</g>
		<g>
			<g>
				<g>
					<path fill="#3F2914" d="M263.7,213.8c-1.9,0.8-1.7,3-1.8,4.8c0,0.5-0.1,1-0.1,1.6c0,0.3-0.1,0.6-0.1,0.9c0,0.2,0,0.3-0.1,0.5
						c0,0.3,0-0.3,0,0.3c-0.2,1.5-0.5,3-0.9,4.5c-2.1,8.4-7.3,15.6-14.6,20.5c-11.8,7.9-26.8,9.6-40.7,9.6c-2.6,0-2.6,4,0,4
						c0.3,0,0.6,0,0.9,0c2.6,0,2.6-4,0-4c-14.8,0-31.5-2-43.4-11.7c-6.5-5.3-10.6-12.5-12.3-20.6c-0.5-2.3-0.6-3.7-0.8-6.2
						c-0.1-1.7,0-3.5-1.8-4.2c-2.4-1-3.4,2.9-1.1,3.8c-0.7-0.3-1.1-0.8-1.3-1.2c0,0.1,0,0.2,0,0.2c-0.1-0.8,0,0.1,0,0.4
						c0.1,0.9,0.1,1.9,0.2,2.8c0.3,3.1,0.8,6.1,1.7,9.1c2.7,9.1,8.6,16.6,16.5,21.7c12.3,8,27.8,9.8,42.1,9.8c0-1.3,0-2.6,0-4
						c-0.3,0-0.6,0-0.9,0c0,1.3,0,2.6,0,4c15.3,0,32-2.2,44.6-11.5c7.2-5.4,12.3-13,14.5-21.8c0.7-2.6,1-5.2,1.3-7.8
						c0.1-0.8,0.1-1.6,0.2-2.4c0-0.3,0.1-1,0-0.3c0-0.1,0-0.2,0-0.2c-0.1,0.4-0.6,0.9-1.3,1.2C267.1,216.6,266.1,212.8,263.7,213.8
						L263.7,213.8z"/>
				</g>
			</g>
			<g>
				<g>
					<path fill="#3F2914" d="M253.6,204.6c-2,6.3,4.1,10.8,9.4,12.2c5.5,1.5,15.2,1.6,17.3-5.2c0.8-2.4-3.1-3.5-3.8-1.1
						c0,0.1,0,0.1-0.1,0.2c0.3-0.7-0.1,0.1-0.2,0.2c-0.3,0.5-0.7,1-1.4,1.4c-2.9,2-7,1.5-10.2,0.8c-2.7-0.6-6.1-1.8-7.1-4.6
						c-0.3-0.8-0.3-1.3-0.3-2.2c0-0.2-0.1,0.2,0.1-0.4c0-0.1,0-0.2,0.1-0.3C258.2,203.2,254.4,202.2,253.6,204.6L253.6,204.6z"/>
				</g>
			</g>
			<g>
				<g>
					<path fill="#3F2914" d="M153.4,205.7c0.2,0.8,0.2,1.5-0.1,2.6c-0.8,2.8-4,4-6.5,4.7c-3.3,0.9-7.5,1.3-10.6-0.5
						c-0.7-0.4-1.3-1.1-1.6-1.5c-0.1-0.2-0.3-0.4-0.4-0.7c0.3,0.6,0.1,0.3,0.1,0.1c-0.8-2.4-4.6-1.4-3.8,1.1
						c2.1,6.8,11.3,6.5,16.7,5.4c5.5-1.2,12-5.9,10-12.3C156.5,202.2,152.6,203.2,153.4,205.7L153.4,205.7z"/>
				</g>
			</g>
		</g>
	</g>
	<g>
		<path fill="#3D3D3B" d="M79.9,355c0,1.6-0.1,3.2-0.1,4.9c0,3.4,0.1,7.1,0.2,11.1c4.4-4.9,8.5-10.6,12.3-17.3l8.1,2.1
			c-4.6,5.2-9.6,10.6-14.9,16.5c4,4.4,8.8,9.4,14.3,14.9l-4.9,7.4c-3.4-5.1-7.8-10.9-13.2-17.7l-0.7,1.1l0.4,15.9l-7.5-0.3
			C74,390.9,74,388,74,385c0-9-0.2-18.9-0.6-29.8L79.9,355z"/>
		<path fill="#3D3D3B" d="M105.7,392.2c0.1-5.1,0.1-10.1,0.1-14.9c0-7.2-0.1-14.1-0.2-20.7l6.9-0.6c-0.4,12.8-0.6,24.8-0.6,36
			L105.7,392.2z"/>
		<path fill="#3D3D3B" d="M123.3,356.6c3.6,0,6.9,0.5,9.7,1.5c4,1.5,6.4,5.3,7.4,11.5c0.2,1.4,0.3,2.8,0.3,4.2c0,4.5-1.2,8.5-3.6,12
			c-3.1,4.6-9.2,7-18.3,7c0.1-2.4,0.1-5,0.1-7.9c0-7.5-0.2-16.8-0.5-28C120.1,356.7,121.7,356.6,123.3,356.6z M133.7,381.8
			c1.5-2,2.2-4.4,2.2-7.2c0-1.2-0.1-2.4-0.4-3.8c-0.9-4.3-4.2-6.7-10-7c-0.4,5.5-0.6,13-0.8,22.5
			C128.6,386.3,131.5,384.8,133.7,381.8z"/>
		<path fill="#3D3D3B" d="M172.2,356.7l-0.1,5.8c-3-0.3-6.5-0.5-10.5-0.6v8.1l10.3-0.3l0.1,6.2l-9.3,0.3l-0.3,13.8l-5.9,0.6
			c0.5-8.8,0.7-20,0.8-33.4L172.2,356.7z"/>
		<path fill="#3D3D3B" d="M175,355.3c0.8,0,1.5,0,2.2,0c5.8,0,10.1,0.5,12.6,1.4c2.9,1.1,4.8,2.4,5.8,4.2c0.7,1.2,1,2.7,1,4.5
			c0,0.7,0,1.4-0.1,2.2c-0.4,2.7-3.7,5.7-10,8.9c2.8,3.2,6.7,7.4,11.5,12.6l-6,5.1c-2.9-4.7-6.6-9.8-11.1-15.5l0.9,13.5l-6.3,0.5
			C175.5,382,175.4,369.6,175,355.3z M181,361.1l-0.1,12c5.4-2.5,8.5-4.7,9.4-6.5c0.4-0.9,0.6-1.7,0.6-2.4c0-0.7-0.2-1.3-0.7-1.8
			c-0.9-0.9-2.2-1.4-3.7-1.4c-0.5,0-1.1,0-1.7,0C183.7,361,182.4,361,181,361.1z"/>
		<path fill="#3D3D3B" d="M203.3,392.2c0.1-5.1,0.1-10.1,0.1-14.9c0-7.2-0.1-14.1-0.2-20.7l6.9-0.6c-0.4,12.8-0.6,24.8-0.6,36
			L203.3,392.2z"/>
		<path fill="#3D3D3B" d="M234.1,356.8l-0.2,6.1c-1,0-2,0-2.9,0c-3.7,0-6.7,0.1-9,0.4v8.5l11.2-0.1l-0.2,6.2h-9.5l0.1,7.1l9.8-0.1
			l0.1,7.8L216,392c0.7-10.8,1.1-22.1,1.4-33.9C220.7,357.8,226.3,357.3,234.1,356.8z"/>
		<path fill="#3D3D3B" d="M236.9,393c0.7-11.3,1-21.2,1-29.6c0-1.9,0-3.7-0.1-5.5l7.6-0.4c3.6,10.1,6.7,18,9.5,23.7
			c0.3-10.2,0.4-18.8,0.4-25.7l8-0.5c-1.3,13.6-2.1,25.8-2.5,36.4l-6.7,0.7c-3.4-8.4-6.6-16.3-9.8-23.8c-0.7,9.2-1.1,17.6-1.1,25.4
			L236.9,393z"/>
		<path fill="#3D3D3B" d="M270.5,356.6c3.6,0,6.9,0.5,9.7,1.5c4,1.5,6.4,5.3,7.4,11.5c0.2,1.4,0.3,2.8,0.3,4.2c0,4.5-1.2,8.5-3.6,12
			c-3.1,4.6-9.2,7-18.3,7c0.1-2.4,0.1-5,0.1-7.9c0-7.5-0.2-16.8-0.5-28C267.3,356.7,268.9,356.6,270.5,356.6z M280.8,381.8
			c1.5-2,2.2-4.4,2.2-7.2c0-1.2-0.1-2.4-0.4-3.8c-0.9-4.3-4.2-6.7-10-7c-0.4,5.5-0.6,13-0.8,22.5
			C275.7,386.3,278.7,384.8,280.8,381.8z"/>
		<path fill="#3D3D3B" d="M291,392.7c0-3.4,0-6.6,0-9.6c0-11.2-0.2-19.6-0.6-25.5l7.1-0.5c-0.7,11.7-1.1,21.1-1.1,28.3
			c5.1-0.2,9.8-0.6,14-1.2l-0.2,8.4c-3.5-0.2-6.7-0.3-9.7-0.3C297,392.3,293.8,392.4,291,392.7z"/>
		<path fill="#3D3D3B" d="M318.6,356.3c1.8,7,4,12.9,6.6,17.7c2.9-6,5.4-11.9,7.5-17.7l5.6,2.2c-7.1,14.3-12,25.9-14.8,34.6
			l-7.1-1.3c1.8-4.2,3.4-8.1,4.7-11.5c-2.7-6.2-5.8-13.2-9.5-21L318.6,356.3z"/>
	</g>
</g>
</svg>
